<svg width="100%" height="100%" viewBox="0 0 117 117" fill="none" xmlns="http://www.w3.org/2000/svg">
<path d="M8.95046 20.8308C7.57044 24.4442 6.31921 28.1362 5.30141 31.8807C4.25141 35.6056 3.40264 39.3633 2.83962 43.1605C2.27659 46.9576 1.9148 50.7875 1.9635 54.5981C1.98001 58.3889 2.33458 62.2062 3.07549 65.8992C3.8164 69.5922 4.92353 73.1937 6.45724 76.6056C7.93864 80.0305 9.84661 83.2658 12.0323 86.2655C16.3834 92.2976 21.9619 97.4137 28.1159 101.666C34.2175 105.931 40.9751 109.201 48.159 110.842C51.745 111.636 55.4355 112.043 59.1139 112.039C62.8124 112.001 66.4667 111.532 70.0564 110.663C77.2561 108.892 84.0934 105.549 90.1297 101.133C93.1318 98.9149 95.9889 96.4284 98.512 93.6929C101.067 90.977 103.393 87.986 105.24 84.8377C107.107 81.6566 108.556 78.22 109.674 74.672C110.76 71.1043 111.549 67.4447 111.967 63.7392C112.803 56.3281 112.255 48.792 110.274 41.6414C108.325 34.5105 104.904 27.8306 100.122 22.2108C97.7313 19.4008 95.0426 16.8592 92.1407 14.5924C90.6636 13.4656 89.1462 12.4042 87.5886 11.4083C86.0109 10.445 84.393 9.54729 82.7348 8.71498C76.094 5.47086 68.7369 3.67988 61.2674 3.80063C57.5488 3.87085 53.7899 4.36661 50.1599 5.3011C46.5299 6.23559 42.9764 7.62188 39.5799 9.32906C32.819 12.7631 26.7345 17.6902 21.785 23.5803C19.3102 26.5254 17.1816 29.7718 15.4273 33.2017C13.6729 36.6316 12.3372 40.317 11.6373 44.1206C12.136 40.2842 13.2584 36.5135 14.8718 32.9526C16.4531 29.372 18.5254 26.0012 20.8995 22.8597C23.2736 19.7182 25.9818 16.8256 28.9637 14.2802C31.9335 11.6823 35.1972 9.39894 38.6299 7.48882C45.5154 3.63584 53.3308 1.29573 61.247 0.95258C65.2152 0.764635 69.1874 1.07429 73.0792 1.87495C76.9388 2.65595 80.6978 3.96068 84.2879 5.61234C87.8578 7.29672 91.2467 9.27564 94.4344 11.5818C96.0282 12.7349 97.5617 13.9862 99.0348 15.3356C100.476 16.6654 101.856 18.0934 103.197 19.5868C108.441 25.5343 112.31 32.7119 114.496 40.3929C116.682 48.0739 117.311 56.1994 116.49 64.1604C115.638 72.1018 113.341 80.0163 109.164 87.0984C107.044 90.6198 104.545 93.8202 101.784 96.7258C99.0037 99.6642 95.9936 102.327 92.7219 104.696C86.2309 109.42 78.8301 112.958 71.0308 114.768C67.1151 115.663 63.1026 116.139 59.1184 116.137C55.1341 116.135 51.1256 115.669 47.262 114.75C43.3983 113.832 39.6473 112.442 36.1096 110.777C32.5598 109.06 29.179 106.996 26.0235 104.709C19.7327 100.104 14.0172 94.6338 9.55737 88.1302C7.34353 84.8883 5.45968 81.3977 4.0346 77.7371C2.55721 74.0895 1.53859 70.272 0.86608 66.3957C-0.470907 58.558 -0.0089438 50.6033 1.54772 42.9569C2.32002 39.1075 3.39013 35.3499 4.62124 31.6905C5.89259 27.9658 7.35713 24.359 8.95046 20.8308Z" fill="white"/>
</svg>
