<svg width="131" height="93" viewBox="0 0 131 93" fill="none" xmlns="http://www.w3.org/2000/svg">
<path d="M4.56404 16.824C1.01407 20.7597 3.12186 89.495 7.47612 91.2965C11.8304 93.098 103.852 93.2643 108.012 90.271C112.172 87.2777 106.431 18.875 102.493 16.2143C98.555 13.5536 8.08627 12.8607 4.56404 16.824Z" fill="#3B9BD8"/>
<path d="M10.9704 19.4848C11.3032 34.091 11.3864 48.6973 12.0798 63.2481C12.2462 66.8788 12.4681 70.5096 12.7731 74.1404C12.9395 75.9419 13.106 77.7434 13.3278 79.545C13.5774 81.3188 13.827 83.1203 14.2985 84.7833C14.4095 85.199 14.5481 85.587 14.6868 85.9473C14.77 86.1136 14.8532 86.2799 14.9087 86.4185C14.9919 86.5294 15.0751 86.6402 15.0473 86.6125C15.0473 86.6125 15.0473 86.6125 15.0196 86.6125L14.9919 86.5848C14.9641 86.5848 14.9919 86.5848 14.9919 86.5848C14.9919 86.5848 14.9919 86.5848 15.0196 86.5848C15.0751 86.6125 15.1583 86.6125 15.2415 86.6402C15.4356 86.6679 15.6298 86.6957 15.8516 86.7234C16.2676 86.7788 16.7114 86.8065 17.1551 86.862C18.9301 87.0005 20.7606 87.0837 22.5633 87.1391C26.1965 87.25 29.8574 87.3331 33.4905 87.3608C48.0787 87.4994 62.6668 87.4994 77.2827 87.2777C84.5768 87.1668 91.8709 87.056 99.1649 86.8342C102.798 86.7234 106.459 86.5848 110.064 86.3908C111.867 86.2799 113.698 86.1691 115.5 86.0305C116.388 85.9473 117.303 85.8642 118.191 85.781C119.078 85.6702 119.966 85.587 120.77 85.4207C120.964 85.393 121.158 85.3376 121.325 85.3099C121.491 85.2822 121.657 85.199 121.63 85.2267C121.63 85.2267 121.602 85.2544 121.574 85.2544C121.546 85.2544 121.546 85.2822 121.519 85.3099C121.491 85.3376 121.463 85.3376 121.435 85.3653C121.408 85.393 121.408 85.393 121.408 85.393C121.38 85.4207 121.38 85.4207 121.38 85.4207C121.38 85.4207 121.38 85.4207 121.38 85.393C121.408 85.3376 121.463 85.199 121.519 85.0327C121.713 84.3675 121.851 83.5083 121.962 82.6492C122.157 80.9308 122.24 79.1292 122.267 77.3277C122.351 73.7246 122.267 70.0939 122.157 66.4631C121.907 59.2016 121.408 51.94 120.798 44.7062C120.492 41.0754 120.16 37.4723 119.744 33.8416C119.355 30.2385 118.884 26.6355 118.329 23.0601C118.052 21.2863 117.747 19.4848 117.359 17.7664C117.164 16.9072 116.97 16.048 116.721 15.2165C116.61 14.8008 116.471 14.4128 116.332 14.0802C116.249 13.9139 116.194 13.7476 116.138 13.6644C116.138 13.6367 116.11 13.609 116.11 13.609V13.5813C116.11 13.5813 116.166 13.6367 116.194 13.6367L116.221 13.6644C116.249 13.6644 116.249 13.6644 116.221 13.6644C116.194 13.6367 116 13.5813 115.833 13.5259C115.639 13.4704 115.445 13.4427 115.251 13.3873C114.835 13.3041 114.419 13.2487 113.975 13.1933C113.115 13.0824 112.2 12.9993 111.312 12.9161C109.51 12.7498 107.707 12.639 105.904 12.5281C98.638 12.1401 91.3439 11.9738 84.0498 11.8352C76.7558 11.6966 69.4617 11.6412 62.1676 11.6689C54.8735 11.6689 47.5795 11.7243 40.2577 11.8906C36.5968 11.9738 32.9636 12.0846 29.3027 12.2509C27.5277 12.3064 25.6972 12.3895 23.8945 12.5281C22.9793 12.6112 22.0641 12.6667 21.1766 12.7775C20.2614 12.8884 19.3739 12.9993 18.4864 13.221C19.3739 12.9715 20.2614 12.8053 21.1766 12.6667C22.0918 12.5281 22.9793 12.3895 23.8945 12.2787C25.6972 12.0569 27.5277 11.8629 29.3582 11.6966C32.9913 11.3917 36.6522 11.1423 40.2854 10.9206C47.5795 10.5048 54.9013 10.2277 62.1954 10.006C69.4894 9.81194 76.8112 9.70108 84.133 9.64565C87.7939 9.61793 91.4548 9.61793 95.1158 9.67336C98.7767 9.72879 102.438 9.78423 106.098 9.9228C107.929 10.006 109.759 10.0891 111.618 10.2C112.533 10.2554 113.476 10.3385 114.391 10.4494C114.862 10.5048 115.334 10.5603 115.833 10.6434C116.083 10.6711 116.332 10.7266 116.582 10.782C116.859 10.8374 117.109 10.9206 117.497 11.0869C117.553 11.1146 117.58 11.1423 117.664 11.17C117.719 11.1977 117.775 11.2254 117.83 11.2809C117.969 11.364 118.107 11.4749 118.163 11.558C118.218 11.6135 118.246 11.6412 118.301 11.6966L118.385 11.8075C118.44 11.8906 118.496 11.9738 118.551 12.0292C118.745 12.3341 118.856 12.5835 118.967 12.833C119.189 13.3319 119.355 13.803 119.494 14.2742C119.771 15.2165 120.021 16.1312 120.215 17.0181C120.631 18.8473 120.964 20.6488 121.269 22.4781C121.879 26.1089 122.378 29.7396 122.794 33.3981C123.238 37.0289 123.626 40.6874 123.959 44.3181C124.32 47.9766 124.597 51.6074 124.847 55.2659C125.096 58.9244 125.29 62.5829 125.429 66.2414C125.568 69.8999 125.651 73.5861 125.568 77.2723C125.54 79.1292 125.457 80.9862 125.235 82.8986C125.18 83.3698 125.124 83.8687 125.041 84.3398C124.958 84.8387 124.847 85.3376 124.68 85.8919C124.597 86.1691 124.486 86.4739 124.292 86.8065C124.237 86.8897 124.209 86.9728 124.126 87.0837C124.07 87.1945 123.987 87.2777 123.904 87.3886C123.848 87.444 123.821 87.4994 123.765 87.5549C123.71 87.6103 123.626 87.6657 123.571 87.7211C123.488 87.7766 123.432 87.832 123.377 87.8597C123.321 87.8874 123.238 87.9429 123.183 87.9706C122.739 88.1923 122.489 88.2477 122.212 88.3309C121.935 88.414 121.685 88.4695 121.435 88.4972C120.437 88.6912 119.522 88.8021 118.579 88.9129C117.636 89.0238 116.721 89.0792 115.805 89.1624C113.975 89.3009 112.117 89.4118 110.286 89.495C106.625 89.689 102.965 89.7998 99.3036 89.9107C91.9818 90.1047 84.6877 90.2156 77.3659 90.271C70.0441 90.2987 62.75 90.271 55.4282 90.2156C51.7673 90.1879 48.1064 90.1324 44.4732 90.077C40.8123 89.9938 37.1514 89.9107 33.5183 89.7998C29.8574 89.689 26.1965 89.5504 22.5356 89.3841C20.7051 89.2732 18.8747 89.1901 17.0165 88.9961C16.545 88.9406 16.0735 88.9129 15.602 88.8298C15.3524 88.8021 15.1305 88.7466 14.8532 88.6912C14.7145 88.6635 14.5759 88.6358 14.4095 88.5803C14.3817 88.5803 14.3263 88.5526 14.2708 88.5249C14.2153 88.4972 14.1876 88.4972 14.1044 88.4695C14.0489 88.4418 13.9657 88.414 13.9102 88.3863C13.8548 88.3586 13.7993 88.3309 13.7438 88.2755C13.3556 87.9706 13.1614 87.6934 12.995 87.4163C12.8286 87.1391 12.7177 86.8897 12.6345 86.6402C12.4403 86.1413 12.3017 85.6702 12.1907 85.199C11.7192 83.3143 11.4974 81.4851 11.3032 79.6558C11.1091 77.8266 10.9704 75.9973 10.8595 74.1681C10.6376 70.5096 10.5267 66.8511 10.4435 63.1926C10.1939 48.6695 10.5544 34.0633 10.9704 19.4848Z" fill="#1D4557"/>
<path d="M0.347656 25.4714C11.1917 24.7785 22.0635 24.4459 32.9075 24.1688C43.7516 23.9193 54.6233 23.8085 65.4674 23.8085C76.3114 23.8085 87.1832 23.9193 98.0272 24.1688C108.871 24.4459 119.743 24.7785 130.587 25.4714C119.743 26.1643 108.871 26.5246 98.0272 26.7741C87.1832 27.0235 76.3114 27.1344 65.4674 27.1344C54.6233 27.1344 43.7516 27.0235 32.9075 26.7741C22.0635 26.4969 11.1917 26.1643 0.347656 25.4714Z" fill="#1D4557"/>
<path d="M49.3821 0.47168C49.9645 1.13686 50.3805 1.85747 50.7688 2.6058C51.1293 3.35413 51.4344 4.07474 51.7118 4.85078C52.2387 6.34744 52.5715 7.89952 52.7657 9.45161C52.9598 11.0037 53.043 12.5558 52.9321 14.1356C52.8211 15.7154 52.5993 17.3229 51.9614 18.9581C50.9629 17.5169 50.3805 16.0203 49.909 14.5236C49.4376 13.027 49.1048 11.5026 48.9106 9.97821C48.7165 8.45384 48.6333 6.90175 48.6887 5.32195C48.7442 3.71443 48.9106 2.16235 49.3821 0.47168Z" fill="#FF775D"/>
<path d="M84.0212 0.942871C84.9364 2.35638 85.4357 3.82532 85.8239 5.29426C86.2122 6.7632 86.4341 8.23214 86.545 9.70108C86.6559 11.17 86.6282 12.6667 86.4341 14.1633C86.2122 15.66 85.9071 17.1566 85.2138 18.7087C84.2985 17.2952 83.7993 15.8263 83.3833 14.3573C82.995 12.8884 82.7732 11.4195 82.69 9.95052C82.6068 8.48158 82.6345 6.98492 82.8009 5.48827C83.0228 3.99161 83.3279 2.46724 84.0212 0.942871Z" fill="#FF775D"/>
<path d="M44.7497 42.8215C45.1102 43.3481 45.6094 43.7638 46.1918 44.0133C46.7743 44.2627 47.3844 44.3182 47.9668 44.2627C48.5492 44.2073 49.1039 44.0687 49.6309 43.8747C50.1578 43.6807 50.6848 43.459 51.2117 43.1818C51.7109 42.9046 52.2379 42.5721 52.6816 42.184C53.1254 41.7683 53.4859 41.2694 53.6801 40.6874C53.8742 40.1053 53.9019 39.4956 53.7355 38.9136C53.5691 38.3315 53.2086 37.8326 52.7926 37.4169C52.6816 37.306 52.5707 37.2229 52.4598 37.1398C52.3488 37.0566 52.2379 36.9457 52.0992 36.8903C51.8496 36.7517 51.6 36.5854 51.3504 36.4746C51.1008 36.336 50.8234 36.2806 50.5738 36.1697C50.2965 36.1143 50.0469 36.0311 49.7418 36.0311C49.4645 35.9757 49.1871 36.0034 48.9098 36.0034C48.6324 36.0311 48.3551 36.0588 48.1055 36.142C47.8282 36.1974 47.6063 36.3083 47.3289 36.3914C47.1071 36.53 46.8297 36.6132 46.6356 36.7794C46.386 36.918 46.2196 37.0843 45.9977 37.2506C45.8868 37.3338 45.8036 37.4446 45.7204 37.5278C45.6649 37.5832 45.6094 37.6109 45.5817 37.6664L45.4708 37.8326C45.3876 37.9435 45.3044 38.0544 45.2212 38.1652C45.1379 38.2761 45.0825 38.4147 44.9993 38.5255C44.8329 38.7473 44.6942 39.0244 44.5833 39.3016C44.3337 39.8282 44.1673 40.4379 44.2227 41.0477C44.195 41.6574 44.4169 42.2949 44.7497 42.8215ZM44.611 42.9324C44.2505 42.378 43.9454 41.796 43.6958 41.1585C43.4739 40.5211 43.363 39.7728 43.4184 39.0521C43.4462 38.6918 43.5016 38.3315 43.6126 37.9989C43.668 37.8326 43.7235 37.6386 43.8067 37.4723C43.8899 37.306 43.9731 37.1398 44.0563 36.9735L44.195 36.724C44.2505 36.6409 44.3059 36.5854 44.3614 36.5023C44.4723 36.3637 44.5833 36.1974 44.7219 36.0588C44.9993 35.7817 45.2766 35.5322 45.5817 35.3105C45.8868 35.0888 46.2473 34.9225 46.5801 34.7562C46.9407 34.6453 47.3012 34.5067 47.6618 34.4513C48.0223 34.3682 48.4106 34.3682 48.7711 34.3405C49.1317 34.3682 49.5199 34.3682 49.8805 34.479C50.241 34.5345 50.6016 34.673 50.9344 34.7839C51.2672 34.9502 51.6 35.0888 51.9051 35.3105C52.0437 35.4214 52.2101 35.5045 52.3488 35.6431L52.7371 36.0034C52.8758 36.142 52.959 36.2806 53.0699 36.4191C53.1808 36.5577 53.2918 36.6963 53.375 36.8349C53.7633 37.4169 54.0406 38.0821 54.1793 38.775C54.3179 39.4679 54.2625 40.1608 54.0961 40.826C53.7633 42.1563 53.0144 43.4312 51.8773 44.3181C51.3227 44.7616 50.657 45.0942 49.936 45.2605C49.2426 45.4545 48.466 45.4545 47.7727 45.2882C47.0516 45.1219 46.4137 44.7616 45.8868 44.3459C45.4153 43.9578 44.9993 43.459 44.611 42.9324Z" fill="white"/>
<path d="M69.4326 35.7262C68.8224 35.5045 68.1846 35.4491 67.5744 35.5877C66.9643 35.7262 66.4373 36.0311 65.9936 36.4191C65.5498 36.8072 65.1893 37.2506 64.8565 37.6941C64.5237 38.1652 64.2463 38.6364 63.969 39.163C63.7194 39.6896 63.4975 40.2439 63.3866 40.826C63.2756 41.408 63.2479 42.0455 63.442 42.6275C63.6084 43.2095 63.969 43.7361 64.4405 44.0964C64.9119 44.4844 65.4943 44.6785 66.0768 44.7616C66.2154 44.7893 66.3818 44.7893 66.5205 44.7893C66.6592 44.7893 66.8256 44.817 66.9643 44.7893C67.2693 44.7616 67.5467 44.7616 67.824 44.6785C68.1014 44.6507 68.3787 44.5399 68.6283 44.4567C68.8779 44.3459 69.1552 44.2627 69.3771 44.0964C69.6267 43.9578 69.8486 43.7915 70.0427 43.6253C70.2369 43.4312 70.4587 43.2649 70.6252 43.0432C70.8193 42.8492 70.958 42.5998 71.0966 42.4058C71.2076 42.1563 71.374 41.9346 71.4572 41.6851C71.5681 41.4357 71.6236 41.1863 71.7068 40.9368C71.7345 40.7982 71.7345 40.6597 71.7622 40.5488C71.7622 40.4934 71.79 40.4102 71.79 40.3548V40.1608C71.79 40.0222 71.8177 39.8836 71.8177 39.745C71.8177 39.6065 71.79 39.4679 71.79 39.3293C71.79 39.0521 71.7345 38.7473 71.6791 38.4701C71.5681 37.8881 71.3462 37.3338 70.958 36.8349C70.5697 36.336 70.015 35.9757 69.4326 35.7262ZM69.4881 35.5599C70.0982 35.8094 70.6806 36.0865 71.263 36.4746C71.8177 36.8626 72.3447 37.3892 72.7052 38.0266C72.8993 38.3315 73.0658 38.6641 73.149 38.9967C73.2044 39.163 73.2599 39.357 73.3154 39.5233C73.3431 39.7173 73.3708 39.8836 73.3986 40.0776L73.4263 40.3548C73.4263 40.4379 73.4263 40.5488 73.4263 40.6319C73.4263 40.826 73.3986 41.02 73.3986 41.1863C73.3431 41.5466 73.2599 41.9346 73.1212 42.2949C73.0103 42.6552 72.8161 42.9878 72.622 43.3204C72.4001 43.6253 72.1783 43.9578 71.9009 44.2073C71.6513 44.4844 71.3462 44.7062 71.0412 44.9556C70.7361 45.1496 70.4033 45.3714 70.0705 45.5099C69.7377 45.6762 69.3771 45.7594 69.0166 45.8702C68.656 45.9257 68.2955 46.0088 67.9349 46.0088C67.7408 46.0088 67.5744 46.0365 67.3803 46.0088L66.8533 45.9257C66.6869 45.898 66.4928 45.8425 66.3264 45.7871C66.16 45.7317 65.9936 45.7039 65.8272 45.6208C65.1615 45.3714 64.5514 44.9833 64.0522 44.5122C63.553 44.041 63.1647 43.4312 62.9151 42.7938C62.4159 41.5188 62.2495 40.0499 62.6655 38.6641C62.8596 37.9712 63.2202 37.3338 63.6916 36.7794C64.1631 36.2251 64.7733 35.7817 65.4389 35.5045C66.1045 35.2273 66.8533 35.1442 67.5189 35.1719C68.2123 35.1996 68.8779 35.3659 69.4881 35.5599Z" fill="white"/>
<path d="M81.9147 39.4956C81.776 40.1053 81.8037 40.7705 82.0256 41.3526C82.2197 41.9346 82.608 42.4335 83.0518 42.8215C83.4955 43.2095 83.967 43.5144 84.4662 43.7915C84.9654 44.0687 85.4924 44.2904 86.047 44.4844C86.6017 44.6785 87.1841 44.817 87.7666 44.8725C88.3767 44.9279 88.9869 44.8447 89.5415 44.5953C90.0962 44.3459 90.5677 43.9301 90.8728 43.4312C91.1779 42.9046 91.3165 42.3226 91.3165 41.7129C91.3165 41.5743 91.3165 41.408 91.2888 41.2694C91.2611 41.1308 91.2611 40.9645 91.2333 40.826C91.1501 40.5488 91.1224 40.2716 91.0115 39.9945C90.9283 39.7173 90.7896 39.4679 90.7064 39.2184C90.5677 38.969 90.429 38.7196 90.2626 38.5255C90.0962 38.3038 89.9021 38.1098 89.708 37.9158C89.4861 37.7495 89.2919 37.5555 89.0701 37.4169C88.8482 37.2506 88.5986 37.1397 88.3767 37.0289C88.1271 36.9457 87.8775 36.8072 87.6279 36.7794C87.3783 36.6963 87.1009 36.6686 86.8513 36.6409C86.7127 36.6409 86.574 36.6409 86.4631 36.6409C86.4076 36.6409 86.3244 36.6409 86.2689 36.6409L86.0748 36.6686C85.9361 36.6963 85.7974 36.6686 85.6588 36.6963C85.5201 36.724 85.3814 36.7517 85.2428 36.7794C84.9654 36.8072 84.6603 36.8903 84.383 37.0012C83.8283 37.1952 83.2736 37.4723 82.8576 37.9158C82.3861 38.3038 82.1088 38.8858 81.9147 39.4956ZM81.7483 39.4679C81.9147 38.8304 82.1088 38.2207 82.4416 37.6109C82.7467 37.0012 83.2182 36.4191 83.8006 35.9757C84.1057 35.754 84.383 35.5599 84.7158 35.3937C84.8822 35.3105 85.0486 35.2551 85.215 35.1719C85.3814 35.1165 85.5756 35.0611 85.7697 35.0333L86.047 34.9779C86.1302 34.9502 86.2412 34.9502 86.3244 34.9502C86.5185 34.9502 86.7127 34.9225 86.8791 34.9225C87.2673 34.9502 87.6556 34.9502 88.0162 35.0611C88.4044 35.1165 88.7373 35.2828 89.0978 35.4214C89.4306 35.6154 89.7634 35.7817 90.0685 36.0034C90.3736 36.2251 90.6509 36.5023 90.9005 36.7517C91.1224 37.0566 91.372 37.3338 91.5661 37.6664C91.788 37.9712 91.899 38.3315 92.0654 38.6641C92.1763 39.0244 92.2872 39.357 92.3427 39.745C92.3704 39.939 92.3982 40.1053 92.3982 40.2994V40.8537C92.3982 41.02 92.3427 41.214 92.3427 41.3803C92.315 41.5466 92.2872 41.7406 92.2318 41.9069C92.0653 42.5998 91.7603 43.2372 91.3443 43.7915C90.9283 44.3459 90.3736 44.7893 89.7912 45.1219C88.5986 45.7871 87.1287 46.1197 85.7142 45.898C84.9931 45.7871 84.3275 45.5099 83.7174 45.1219C83.1072 44.7339 82.5803 44.1796 82.2197 43.5421C81.8592 42.9046 81.6651 42.184 81.6373 41.5189C81.5541 40.7705 81.6373 40.1053 81.7483 39.4679Z" fill="white"/>
<path d="M102.824 36.1696C102.297 36.5022 101.826 36.9734 101.548 37.5554C101.271 38.1098 101.188 38.7195 101.216 39.3015C101.243 39.8836 101.354 40.4379 101.521 40.9922C101.687 41.5465 101.881 42.0731 102.131 42.5997C102.38 43.1263 102.685 43.6529 103.074 44.0964C103.462 44.5398 103.961 44.9556 104.516 45.1773C105.071 45.399 105.708 45.4545 106.291 45.3159C106.873 45.1773 107.4 44.8447 107.816 44.429C107.927 44.3458 108.038 44.2072 108.121 44.0964C108.205 43.9855 108.316 43.8747 108.399 43.7638C108.565 43.5143 108.732 43.2926 108.842 43.0155C108.981 42.766 109.064 42.4889 109.175 42.2394C109.231 41.9623 109.342 41.7128 109.369 41.4357C109.425 41.1585 109.425 40.8813 109.425 40.6042C109.397 40.327 109.397 40.0499 109.314 39.8004C109.286 39.5233 109.175 39.2738 109.092 39.0244C108.981 38.7749 108.898 38.5255 108.759 38.3038C108.648 38.0543 108.454 37.8603 108.315 37.6386C108.232 37.5277 108.121 37.4446 108.038 37.3337C107.983 37.2783 107.955 37.2228 107.899 37.1951L107.733 37.0565C107.622 36.9734 107.539 36.8625 107.428 36.7794C107.317 36.6962 107.206 36.6131 107.095 36.5299C106.873 36.3637 106.596 36.1974 106.346 36.0588C105.819 35.7816 105.237 35.6153 104.627 35.6153C104.017 35.6708 103.379 35.8648 102.824 36.1696ZM102.741 36.0311C103.323 35.6985 103.906 35.4213 104.571 35.2273C105.237 35.0333 105.958 34.9501 106.679 35.061C107.04 35.1164 107.4 35.1719 107.733 35.3104C107.899 35.3659 108.066 35.449 108.26 35.5322C108.426 35.6153 108.593 35.7262 108.732 35.8093L108.981 35.9756C109.064 36.0311 109.12 36.0865 109.203 36.1696C109.342 36.3082 109.48 36.4191 109.619 36.5577C109.869 36.8348 110.118 37.1397 110.312 37.4723C110.534 37.7772 110.673 38.1375 110.812 38.4978C110.923 38.8581 111.033 39.2184 111.061 39.6064C111.117 39.9667 111.117 40.3547 111.117 40.7428C111.061 41.1031 111.033 41.4911 110.923 41.8514C110.839 42.2117 110.701 42.5443 110.562 42.9046C110.396 43.2372 110.229 43.5698 109.98 43.8469C109.869 43.9855 109.758 44.1518 109.619 44.2627L109.231 44.6507C109.092 44.7616 108.953 44.8724 108.815 44.9833C108.676 45.0942 108.537 45.205 108.371 45.2882C107.761 45.6485 107.095 45.8979 106.402 45.9811C105.708 46.0642 105.015 46.0088 104.35 45.787C103.046 45.399 101.798 44.5953 100.966 43.4035C100.55 42.8214 100.245 42.1563 100.106 41.4357C99.9675 40.715 99.9953 39.9667 100.189 39.2738C100.384 38.5809 100.772 37.9435 101.216 37.4446C101.687 36.8071 102.186 36.3914 102.741 36.0311Z" fill="white"/>
<path d="M25.2799 54.5176C25.1412 55.1273 25.169 55.7925 25.3908 56.3745C25.585 56.9566 25.9732 57.4555 26.417 57.8435C26.8607 58.2315 27.3322 58.5364 27.8314 58.8135C28.3306 59.0907 28.8576 59.3124 29.4123 59.5064C29.967 59.7004 30.5494 59.839 31.1318 59.8944C31.7419 59.9499 32.3521 59.8667 32.9068 59.6173C33.4615 59.3678 33.9329 58.9521 34.238 58.4532C34.5431 57.9266 34.6818 57.3446 34.6818 56.7348C34.6818 56.5963 34.6818 56.43 34.654 56.2914C34.6263 56.1528 34.6263 55.9865 34.5986 55.8479C34.5153 55.5708 34.4876 55.2936 34.3767 55.0165C34.2935 54.7393 34.1548 54.4899 34.0716 54.2404C33.9329 53.991 33.7943 53.7415 33.6279 53.5475C33.4615 53.3258 33.2673 53.1318 33.0732 52.9378C32.8513 52.7715 32.6572 52.5775 32.4353 52.4389C32.2134 52.2726 31.9638 52.1617 31.7419 52.0509C31.4923 51.9677 31.2427 51.8291 30.9931 51.8014C30.7435 51.7183 30.4662 51.6906 30.2166 51.6628C30.0779 51.6628 29.9392 51.6628 29.8283 51.6628C29.7728 51.6628 29.6896 51.6628 29.6341 51.6628L29.44 51.6906C29.3013 51.7183 29.1627 51.6906 29.024 51.7183C28.8853 51.746 28.7467 51.7737 28.608 51.8014C28.3306 51.8291 28.0256 51.9123 27.7482 52.0231C27.1935 52.2172 26.6389 52.4943 26.2229 52.9378C25.7514 53.3258 25.4463 53.9078 25.2799 54.5176ZM25.1135 54.4899C25.2799 53.8524 25.474 53.2426 25.8068 52.6329C26.1119 52.0231 26.5834 51.4411 27.1658 50.9977C27.4709 50.7759 27.7482 50.5819 28.081 50.4156C28.2474 50.3325 28.4138 50.277 28.5803 50.1939C28.7467 50.1385 28.9408 50.083 29.1349 50.0553L29.4123 49.9999C29.4955 49.9722 29.6064 49.9722 29.6896 49.9722C29.8838 49.9722 30.0779 49.9445 30.2443 49.9445C30.6326 49.9722 31.0209 49.9722 31.3814 50.083C31.7697 50.1385 32.1025 50.3048 32.463 50.4433C32.7958 50.6374 33.1286 50.8036 33.4337 51.0254C33.7388 51.2471 34.0161 51.5243 34.2657 51.7737C34.4876 52.0786 34.7372 52.3557 34.9314 52.6883C35.1532 52.9932 35.2642 53.3535 35.4306 53.6861C35.5415 54.0464 35.6524 54.379 35.7079 54.767C35.7357 54.961 35.7634 55.1273 35.7634 55.3213V55.8756C35.7634 56.0419 35.7079 56.236 35.7079 56.4023C35.6802 56.5685 35.6524 56.7626 35.597 56.9289C35.4306 57.6217 35.1255 58.2592 34.7095 58.8135C34.2935 59.3678 33.7388 59.8113 33.1564 60.1439C31.9638 60.8091 30.4939 61.1417 29.0795 60.9199C28.3584 60.8091 27.6928 60.5319 27.0826 60.1439C26.4725 59.7559 25.9455 59.2016 25.585 58.5641C25.2244 57.9266 25.0303 57.206 25.0026 56.5408C24.9193 55.7925 25.0026 55.1273 25.1135 54.4899Z" fill="white"/>
<path d="M25.2525 38.4147C23.8935 44.623 34.5434 46.7849 35.209 40.5211C35.5973 36.6963 31.8809 33.5921 28.1923 35.0333C26.7224 35.6154 25.7517 36.5577 25.2525 38.4147Z" fill="#FF775D"/>
<path d="M63.1092 57.8989C63.3033 58.5087 63.6639 59.063 64.1631 59.451C64.6346 59.839 65.217 60.0885 65.7994 60.1993C66.3818 60.3102 66.9365 60.3379 67.4912 60.3102C68.0459 60.2825 68.6283 60.1993 69.1829 60.0885C69.7376 59.9776 70.32 59.8113 70.8747 59.5341C71.4017 59.257 71.9009 58.8967 72.2614 58.3978C72.622 57.8989 72.8161 57.2892 72.8161 56.7071C72.8161 56.0974 72.622 55.5153 72.3169 55.0165C72.2614 54.8779 72.1505 54.767 72.0673 54.6562C71.9841 54.5453 71.9009 54.4067 71.79 54.2958C71.5958 54.0741 71.4017 53.8524 71.1798 53.6861C70.9857 53.4921 70.7361 53.3535 70.5142 53.1872C70.2646 53.0486 70.0427 52.9101 69.7654 52.8269C69.5158 52.716 69.2384 52.6606 68.9888 52.5775C68.7115 52.5497 68.4619 52.4666 68.1845 52.4943C67.9072 52.4666 67.6576 52.4943 67.3802 52.522C67.1306 52.5775 66.8533 52.6052 66.6037 52.6883C66.3263 52.7438 66.1045 52.8823 65.8549 52.9655C65.7439 53.0209 65.633 53.1041 65.4943 53.1595C65.4388 53.1872 65.3834 53.2149 65.3279 53.2704L65.1615 53.3812C65.0506 53.4644 64.9396 53.5198 64.8287 53.6307C64.7178 53.7138 64.6068 53.8247 64.4959 53.9078C64.274 54.0741 64.0521 54.2958 63.858 54.5176C63.4697 54.961 63.1646 55.4876 63.026 56.0974C62.8873 56.624 62.9428 57.2614 63.1092 57.8989ZM62.9428 57.9266C62.7764 57.2892 62.61 56.6517 62.5822 55.9588C62.5268 55.2659 62.6377 54.5453 62.915 53.8524C63.0537 53.5198 63.1924 53.1872 63.4142 52.8823C63.5252 52.7438 63.6361 52.5775 63.7471 52.4389C63.858 52.3003 63.9967 52.1617 64.1353 52.0231L64.3295 51.8291C64.4127 51.7737 64.4681 51.7183 64.5514 51.6628C64.7178 51.552 64.8564 51.4411 65.0228 51.3303C65.3556 51.164 65.6884 50.9699 66.0767 50.8591C66.4373 50.7205 66.8255 50.6651 67.1861 50.6096C67.5744 50.5819 67.9349 50.5542 68.3232 50.6096C68.7115 50.6374 69.072 50.7482 69.4326 50.8314C69.7931 50.9699 70.1259 51.0808 70.4587 51.2748C70.7915 51.4411 71.0966 51.6628 71.4017 51.8846C71.679 52.134 71.9564 52.3557 72.1782 52.6606C72.2892 52.7992 72.4278 52.9378 72.511 53.1041L72.7884 53.5752C72.8716 53.7415 72.9271 53.9078 73.0103 54.0741C73.0935 54.2404 73.1489 54.4067 73.1767 54.573C73.3985 55.2382 73.454 55.9588 73.3985 56.6517C73.3153 57.3446 73.0935 58.0098 72.7329 58.5918C72.0396 59.7559 70.9579 60.8091 69.6267 61.3357C68.9611 61.6128 68.24 61.7237 67.5189 61.696C66.7978 61.6683 66.049 61.4742 65.4388 61.1139C64.801 60.7536 64.274 60.227 63.8857 59.6727C63.442 59.1461 63.1646 58.5641 62.9428 57.9266Z" fill="white"/>
<path d="M44.3625 53.6029C44.002 54.1295 43.7801 54.7392 43.7523 55.3767C43.7246 55.9864 43.891 56.5962 44.1406 57.1228C44.3902 57.6494 44.723 58.1206 45.0836 58.564C45.4441 59.0075 45.8324 59.4232 46.2762 59.7835C46.7199 60.1715 47.1914 60.5318 47.7461 60.7813C48.273 61.0584 48.8832 61.2247 49.4933 61.197C50.1035 61.1693 50.7136 60.9753 51.1851 60.615C51.6843 60.2547 52.0171 59.7558 52.239 59.2015C52.2945 59.0629 52.3499 58.9243 52.3777 58.7857C52.4054 58.6472 52.4609 58.5086 52.4886 58.37C52.5441 58.0928 52.5995 57.8157 52.5995 57.5108C52.6273 57.2337 52.5995 56.9565 52.5995 56.6793C52.5441 56.4022 52.5441 56.125 52.4609 55.8479C52.4054 55.5707 52.2945 55.3213 52.1835 55.0718C52.0449 54.8224 51.9339 54.5729 51.7675 54.3789C51.6288 54.1572 51.4347 53.9632 51.2683 53.7415C51.0742 53.5752 50.88 53.3534 50.6581 53.2149C50.464 53.0486 50.2144 52.9377 49.9925 52.7714C49.8816 52.716 49.7429 52.6605 49.632 52.6051C49.5765 52.5774 49.521 52.5497 49.4378 52.522L49.2437 52.4665C49.105 52.4388 48.9941 52.3834 48.8554 52.3279C48.7168 52.3002 48.5781 52.2725 48.4394 52.2448C48.1621 52.1617 47.857 52.1339 47.5797 52.1062C46.9972 52.0508 46.3871 52.1339 45.8047 52.3834C45.25 52.6883 44.7508 53.104 44.3625 53.6029ZM44.2238 53.5197C44.6398 52.9931 45.0559 52.4942 45.5828 52.0508C46.1097 51.6073 46.7476 51.247 47.4687 51.053C47.8293 50.9699 48.1621 50.8867 48.5504 50.8867C48.7445 50.8867 48.9109 50.8867 49.105 50.8867C49.2992 50.8867 49.4656 50.9422 49.6597 50.9422L49.9371 50.9976C50.0203 51.0253 50.1312 51.053 50.2144 51.0807C50.3808 51.1362 50.5749 51.1916 50.7413 51.2747C51.0742 51.441 51.4347 51.6073 51.7398 51.8291C52.0726 52.0231 52.3222 52.3002 52.5995 52.5774C52.8491 52.8823 53.0988 53.1594 53.2652 53.492C53.487 53.7969 53.598 54.1572 53.7366 54.5175C53.8476 54.8778 53.9585 55.2381 54.014 55.5984C54.0972 55.9587 54.0694 56.3467 54.0972 56.7071C54.0694 57.0674 54.0417 57.4554 53.9308 57.788C53.8753 57.9543 53.8476 58.1483 53.7644 58.3146L53.5425 58.8135C53.4593 58.9798 53.3761 59.1183 53.2652 59.2846C53.182 59.4509 53.0988 59.5895 52.9601 59.7281C52.5441 60.3101 52.0171 60.7813 51.407 61.1416C50.7968 61.5019 50.1312 61.6959 49.4378 61.7791C48.0789 61.9176 46.609 61.6959 45.3887 60.9476C44.7785 60.5596 44.2238 60.0607 43.8355 59.4786C43.4195 58.8689 43.1422 58.176 43.059 57.4554C42.9758 56.7348 43.059 56.0142 43.2809 55.349C43.5305 54.6561 43.8633 54.074 44.2238 53.5197Z" fill="white"/>
<path d="M102.548 60.227C103.048 60.615 103.658 60.8645 104.296 60.8922C104.906 60.9476 105.516 60.8091 106.043 60.5596C106.57 60.3379 107.041 60.0053 107.513 59.6727C107.957 59.3401 108.4 58.9521 108.789 58.5086C109.177 58.0929 109.565 57.6217 109.842 57.0951C110.12 56.5685 110.314 55.9588 110.314 55.349C110.314 54.7393 110.148 54.1295 109.787 53.6306C109.454 53.1318 108.955 52.7715 108.4 52.522C108.262 52.4389 108.123 52.4111 107.984 52.3557C107.846 52.3003 107.707 52.2448 107.568 52.2171C107.291 52.1617 107.014 52.0786 106.709 52.0786C106.431 52.0231 106.154 52.0508 105.877 52.0508C105.599 52.0786 105.322 52.0786 105.044 52.1617C104.767 52.2171 104.518 52.328 104.268 52.4111C104.018 52.5497 103.769 52.6329 103.547 52.7992C103.297 52.9377 103.103 53.104 102.909 53.2703C102.715 53.4643 102.521 53.6306 102.354 53.8524C102.16 54.0464 102.049 54.2958 101.883 54.5176C101.827 54.6284 101.772 54.767 101.716 54.8779C101.689 54.9333 101.661 54.9887 101.633 55.0719L101.578 55.2659C101.55 55.4045 101.467 55.5153 101.439 55.6539C101.411 55.7925 101.384 55.9311 101.328 56.0696C101.245 56.3468 101.189 56.6517 101.162 56.9288C101.106 57.5109 101.134 58.1206 101.384 58.7027C101.633 59.3124 102.049 59.839 102.548 60.227ZM102.437 60.3656C101.938 59.9499 101.439 59.5064 101.023 58.9798C100.607 58.4532 100.246 57.788 100.08 57.0674C99.9969 56.7071 99.9414 56.3745 99.9414 55.9865C99.9414 55.7925 99.9414 55.6262 99.9414 55.4322C99.9691 55.2382 99.9969 55.0719 100.025 54.8779L100.08 54.6007C100.108 54.5176 100.136 54.4344 100.163 54.3235C100.219 54.1572 100.302 53.9632 100.357 53.7969C100.524 53.4643 100.718 53.104 100.94 52.8269C101.162 52.522 101.439 52.2448 101.716 51.9954C102.021 51.7737 102.327 51.5242 102.659 51.3579C102.992 51.1639 103.353 51.0531 103.686 50.9145C104.046 50.8313 104.407 50.7205 104.767 50.6928C105.128 50.6373 105.516 50.6373 105.877 50.6373C106.237 50.6928 106.625 50.7205 106.958 50.8313C107.125 50.8868 107.319 50.9145 107.485 50.9976L107.984 51.2194C108.151 51.3025 108.289 51.4134 108.456 51.4965C108.594 51.5797 108.761 51.6905 108.9 51.8014C109.454 52.2448 109.926 52.7715 110.258 53.3812C110.591 53.9909 110.785 54.6838 110.841 55.349C110.952 56.7071 110.647 58.176 109.87 59.3678C109.482 59.9776 108.955 60.4765 108.345 60.8922C107.735 61.2802 107.014 61.5297 106.293 61.6128C105.571 61.6683 104.85 61.5574 104.212 61.3079C103.547 61.0862 102.992 60.7536 102.437 60.3656Z" fill="white"/>
<path d="M25.4737 74.0295C25.6955 74.6115 26.0561 75.1659 26.5553 75.5539C27.0545 75.9419 27.6369 76.1636 28.1916 76.2468C28.774 76.3299 29.3287 76.3299 29.9111 76.3022C30.4658 76.2745 31.0482 76.1636 31.6029 76.0251C32.1576 75.8865 32.74 75.6925 33.267 75.4153C33.7939 75.1381 34.2931 74.7501 34.6259 74.2235C34.9587 73.7246 35.1529 73.1149 35.1251 72.5051C35.1251 71.8954 34.9033 71.3134 34.5705 70.8145C34.515 70.6759 34.4041 70.565 34.3209 70.4542C34.2377 70.3433 34.1544 70.2047 34.0435 70.1216C33.8216 69.9276 33.6552 69.7058 33.4056 69.5395C33.1838 69.3455 32.9341 69.207 32.7123 69.0407C32.4627 68.9298 32.2131 68.7635 31.9635 68.6804C31.7138 68.5695 31.4365 68.5141 31.1592 68.4586C30.8818 68.4309 30.6045 68.3755 30.3549 68.4032C30.0775 68.3755 29.8279 68.4309 29.5506 68.4586C29.301 68.5141 29.0236 68.5418 28.774 68.6526C28.5244 68.7081 28.2748 68.8467 28.0252 68.9575C27.9143 69.013 27.8033 69.0961 27.6924 69.1515C27.6369 69.1792 27.5815 69.207 27.526 69.2624L27.3596 69.401C27.2487 69.4841 27.1377 69.5673 27.0268 69.6504C26.9158 69.7336 26.8326 69.8444 26.7217 69.9276C26.4998 70.1216 26.3057 70.3433 26.1116 70.565C25.751 71.0085 25.4459 71.5628 25.335 72.1726C25.2241 72.7546 25.3073 73.4198 25.4737 74.0295ZM25.335 74.0849C25.1409 73.4475 24.9745 72.81 24.919 72.1448C24.8635 71.4519 24.9467 70.7313 25.1686 70.0384C25.3073 69.7058 25.4459 69.3733 25.6401 69.0684C25.751 68.9021 25.8342 68.7635 25.9451 68.5972C26.0561 68.4586 26.1948 68.3201 26.3334 68.1815L26.5276 67.9875C26.6108 67.932 26.6662 67.8766 26.7494 67.8212C26.8881 67.7103 27.0545 67.5994 27.2209 67.4886C27.5537 67.2946 27.8865 67.1006 28.2471 66.9897C28.6076 66.8511 28.9682 66.7957 29.3564 66.7125C29.7447 66.6848 30.1053 66.6571 30.4935 66.6848C30.8818 66.6848 31.2424 66.7957 31.6029 66.8788C31.9635 66.9897 32.324 67.1006 32.6568 67.2946C32.9896 67.4332 33.2947 67.6549 33.5998 67.8766C33.8771 68.126 34.1822 68.3478 34.4041 68.6249C34.515 68.7635 34.6537 68.9021 34.7369 69.0407L35.0142 69.5118C35.0974 69.6781 35.1806 69.8444 35.2361 70.0107C35.3193 70.177 35.3748 70.3433 35.4302 70.5096C35.6521 71.1748 35.763 71.8954 35.7076 72.5883C35.6521 73.2812 35.4302 73.9464 35.0974 74.5561C34.4318 75.7479 33.4056 76.8011 32.0744 77.3831C31.4088 77.6603 30.6877 77.8266 29.9666 77.7989C29.2455 77.7989 28.4967 77.6049 27.8588 77.2723C27.2209 76.9397 26.6662 76.4131 26.278 75.8865C25.8619 75.2767 25.5569 74.6947 25.335 74.0849Z" fill="white"/>
<path d="M51.5442 68.4586C51.0172 68.0983 50.3793 67.8766 49.7692 67.8766C49.159 67.8488 48.5489 68.0151 48.0219 68.2923C47.495 68.5417 47.0512 68.902 46.6075 69.2624C46.1638 69.6227 45.7755 70.0384 45.3872 70.4819C45.0266 70.9253 44.6661 71.3965 44.3888 71.9508C44.1392 72.5051 43.9728 73.0871 44.0005 73.6969C44.0282 74.3066 44.2224 74.8887 44.6106 75.3876C44.9712 75.8587 45.4981 76.219 46.0528 76.4408C46.1915 76.4962 46.3302 76.5516 46.4688 76.5793C46.6075 76.6071 46.7462 76.6625 46.8848 76.6902C47.1899 76.7179 47.4673 76.8011 47.7446 76.8011C48.0219 76.8288 48.2993 76.8011 48.5766 76.8011C48.854 76.7456 49.1313 76.7456 49.3809 76.6348C49.6583 76.5793 49.9079 76.4408 50.1575 76.3576C50.4071 76.219 50.6567 76.1082 50.8508 75.9419C51.0727 75.8033 51.2668 75.6093 51.461 75.443C51.6274 75.249 51.8215 75.055 51.9879 74.8332C52.1543 74.6392 52.2653 74.3898 52.4039 74.1681C52.4594 74.0572 52.5149 73.9186 52.5703 73.8078C52.5981 73.7523 52.6258 73.6969 52.6535 73.6137L52.709 73.4197C52.7367 73.2812 52.7922 73.1703 52.8199 73.0317C52.8477 72.8931 52.8754 72.7545 52.9031 72.616C52.9586 72.3388 53.0141 72.0339 53.0141 71.7568C53.0418 71.1747 52.9863 70.565 52.709 70.0107C52.4871 69.3178 52.0434 68.8466 51.5442 68.4586ZM51.6551 68.32C52.1821 68.708 52.6813 69.1238 53.1528 69.6504C53.5965 70.177 53.9848 70.8144 54.1789 71.5073C54.2899 71.8676 54.3731 72.2002 54.3731 72.5605C54.3731 72.7546 54.4008 72.9208 54.4008 73.1149C54.4008 73.3089 54.3731 73.4752 54.3453 73.6692L54.2899 73.9463C54.2621 74.0295 54.2344 74.1403 54.2066 74.2235C54.1512 74.4175 54.0957 74.5838 54.0402 74.7778C53.8738 75.1104 53.7352 75.4707 53.4856 75.7756C53.2914 76.1082 53.0141 76.3853 52.7645 76.6625C52.4871 76.9119 52.1821 77.1614 51.8492 77.3554C51.5442 77.5771 51.1836 77.7157 50.8508 77.8543C50.4903 77.9651 50.1297 78.076 49.7692 78.1314C49.4086 78.2146 49.0204 78.2146 48.6598 78.2423C48.2993 78.2146 47.911 78.2146 47.5782 78.1037C47.4118 78.0483 47.2176 78.0206 47.0512 77.9651L46.552 77.7711C46.3856 77.688 46.2469 77.6048 46.0805 77.5217C45.9141 77.4385 45.7755 77.3554 45.6368 77.2445C45.0544 76.8288 44.5552 76.3299 44.1946 75.7201C43.8341 75.1381 43.6122 74.4452 43.529 73.78C43.3626 72.422 43.5845 70.953 44.3056 69.7058C44.6661 69.0961 45.1653 68.5417 45.7477 68.126C46.3302 67.7103 47.0512 67.4054 47.7723 67.3222C48.4934 67.2114 49.2145 67.3222 49.8801 67.5163C50.4903 67.6548 51.1004 67.9597 51.6551 68.32Z" fill="white"/>
<path d="M89.6516 52.0786C89.1246 51.7183 88.4868 51.4966 87.8766 51.4966C87.2665 51.4688 86.6563 51.6351 86.1293 51.9123C85.6024 52.1617 85.1587 52.522 84.7149 52.8823C84.2712 53.2426 83.8829 53.6584 83.4946 54.1018C83.1341 54.5453 82.7735 55.0165 82.4962 55.5708C82.2466 56.1251 82.0802 56.7071 82.1079 57.3169C82.1356 57.9266 82.3298 58.5087 82.7181 59.0075C83.0786 59.4787 83.6056 59.839 84.1602 60.0607C84.2989 60.1162 84.4376 60.1716 84.5762 60.1993C84.7149 60.227 84.8536 60.2825 84.9923 60.3102C85.2973 60.3379 85.5747 60.4211 85.852 60.4211C86.1293 60.4488 86.4067 60.4211 86.684 60.4211C86.9614 60.3656 87.2387 60.3656 87.4883 60.2548C87.7657 60.1993 88.0153 60.0607 88.2649 59.9776C88.5145 59.839 88.7641 59.7282 88.9582 59.5619C89.1801 59.4233 89.3742 59.2293 89.5684 59.063C89.7348 58.869 89.9289 58.675 90.0953 58.4532C90.2617 58.2592 90.3727 58.0098 90.5113 57.788C90.5668 57.6772 90.6223 57.5386 90.6778 57.4277C90.7055 57.3723 90.7332 57.3169 90.761 57.2337L90.8164 57.0397C90.8442 56.9011 90.8996 56.7903 90.9274 56.6517C90.9551 56.5131 90.9828 56.3745 91.0106 56.236C91.066 55.9588 91.1215 55.6539 91.1215 55.3768C91.1492 54.7947 91.0938 54.185 90.8164 53.6307C90.5946 52.9655 90.1508 52.4666 89.6516 52.0786ZM89.7625 51.94C90.2895 52.328 90.7887 52.7438 91.2602 53.2704C91.7039 53.797 92.0922 54.4344 92.2863 55.1273C92.3973 55.4876 92.4805 55.8202 92.4805 56.1805C92.4805 56.3745 92.5082 56.5408 92.5082 56.7348C92.5082 56.9289 92.4805 57.0951 92.4527 57.2892L92.3973 57.5663C92.3695 57.6495 92.3418 57.7603 92.3141 57.8435C92.2586 58.0098 92.2031 58.2038 92.1477 58.3978C91.9813 58.7304 91.8426 59.0907 91.593 59.3956C91.3988 59.7282 91.1215 60.0053 90.8719 60.2825C90.5945 60.5319 90.2895 60.7814 89.9567 60.9754C89.6516 61.1971 89.291 61.3357 88.9582 61.4743C88.5977 61.5851 88.2371 61.696 87.8766 61.7514C87.5161 61.8346 87.1278 61.8346 86.7672 61.8623C86.4067 61.8346 86.0184 61.8346 85.6856 61.7237C85.5192 61.6683 85.3251 61.6405 85.1587 61.5851L84.6594 61.3911C84.493 61.308 84.3544 61.2248 84.188 61.1417C84.0216 61.0585 83.8829 60.9754 83.7442 60.8645C83.1618 60.4488 82.6626 59.9499 82.302 59.3401C81.9415 58.7581 81.7196 58.0652 81.6364 57.4C81.47 56.0419 81.6919 54.573 82.413 53.3258C82.7735 52.716 83.2727 52.1617 83.8552 51.746C84.4376 51.3303 85.1587 51.0254 85.8797 50.9422C86.6008 50.8314 87.3219 50.9422 87.9875 51.1362C88.6254 51.2748 89.2078 51.5797 89.7625 51.94Z" fill="white"/>
<path d="M63.776 70.1215C63.4154 70.6481 63.1658 71.2579 63.1103 71.8676C63.0549 72.4774 63.2213 73.0871 63.4431 73.6137C63.6928 74.1403 63.9978 74.6115 64.3584 75.055C64.7189 75.4984 65.1072 75.9141 65.5232 76.3022C65.967 76.6902 66.4107 77.0782 66.9654 77.3554C67.4923 77.6325 68.1025 77.8265 68.7126 77.8265C69.3228 77.8265 69.9329 77.6325 70.4044 77.2999C70.9036 76.9674 71.2642 76.4408 71.486 75.9141C71.5692 75.7756 71.597 75.637 71.6525 75.4984C71.7079 75.3598 71.7634 75.2213 71.7911 75.0827C71.8466 74.8055 71.9298 74.5284 71.9298 74.2235C71.9575 73.9463 71.9298 73.6692 71.9575 73.392C71.9298 73.1148 71.9021 72.8377 71.8189 72.5605C71.7634 72.2834 71.6524 72.0339 71.5692 71.7845C71.4306 71.535 71.3474 71.2856 71.181 71.0639C71.0423 70.8421 70.8482 70.6204 70.6818 70.4264C70.4876 70.2601 70.3212 70.0384 70.0993 69.8998C69.9052 69.7058 69.6556 69.5949 69.4337 69.4564C69.3228 69.4009 69.1841 69.3455 69.0732 69.2901C69.0177 69.2623 68.9622 69.2346 68.879 69.2069L68.6849 69.1515C68.5462 69.1238 68.4353 69.0406 68.2966 69.0129C68.1579 68.9852 68.0193 68.9575 67.8806 68.902C67.6033 68.8189 67.2982 68.7912 67.0208 68.7635C66.4384 68.708 65.8283 68.7635 65.2459 69.0129C64.6912 69.2069 64.1642 69.6504 63.776 70.1215ZM63.6373 70.0384C64.0533 69.5395 64.497 69.0406 65.024 68.5972C65.5509 68.1537 66.2166 67.8211 66.9099 67.6271C67.2705 67.544 67.6033 67.4608 67.9915 67.4608C68.1857 67.4608 68.3521 67.4608 68.5462 67.4608C68.7404 67.4608 68.9068 67.5162 69.1009 67.544L69.3782 67.5994C69.4615 67.6271 69.5447 67.6548 69.6556 67.6825C69.822 67.738 70.0161 67.7934 70.1825 67.8766C70.5154 68.0428 70.8759 68.2091 71.1532 68.4586C71.486 68.6803 71.7357 68.9575 72.013 69.2346C72.2349 69.5395 72.4845 69.8167 72.6509 70.177C72.845 70.5096 72.9837 70.8699 73.1224 71.2025C73.2333 71.5628 73.3442 71.9231 73.372 72.2834C73.4274 72.6437 73.4274 73.0317 73.4274 73.392C73.372 73.7523 73.372 74.1403 73.2333 74.4729C73.1778 74.6392 73.1501 74.8332 73.0669 74.9995L72.845 75.4984C72.7618 75.6647 72.6509 75.8033 72.5677 75.9696C72.4845 76.1082 72.3735 76.2745 72.2626 76.413C71.8466 76.9673 71.2919 77.4662 70.6818 77.7988C70.0716 78.1314 69.406 78.3254 68.7126 78.4086C67.3537 78.5194 65.8837 78.27 64.6634 77.4939C64.0533 77.1059 63.5263 76.5793 63.1381 75.9696C62.7221 75.3598 62.4725 74.6392 62.417 73.9186C62.3338 73.198 62.4725 72.4774 62.6943 71.8122C62.9439 71.147 63.249 70.565 63.6373 70.0384Z" fill="white"/>
<path d="M101.023 70.7867C100.746 71.3687 100.607 72.0062 100.662 72.616C100.718 73.2257 100.968 73.8077 101.3 74.2789C101.633 74.7501 102.021 75.1658 102.437 75.5538C102.853 75.9418 103.297 76.2744 103.796 76.607C104.296 76.9119 104.823 77.2168 105.377 77.3831C105.96 77.5771 106.57 77.6602 107.18 77.5494C107.79 77.4385 108.345 77.1614 108.761 76.7456C109.177 76.3299 109.454 75.7756 109.621 75.1935C109.676 75.0549 109.676 74.9164 109.704 74.7501C109.731 74.6115 109.759 74.4729 109.759 74.3066C109.759 74.0017 109.787 73.7246 109.759 73.4474C109.759 73.1703 109.676 72.8931 109.648 72.616C109.565 72.3388 109.51 72.0894 109.371 71.8399C109.288 71.5905 109.121 71.341 108.983 71.1193C108.816 70.8976 108.678 70.6759 108.483 70.4818C108.317 70.2601 108.095 70.1215 107.901 69.9275C107.679 69.7889 107.485 69.5949 107.235 69.4841C107.014 69.3455 106.764 69.2623 106.514 69.1515C106.376 69.1238 106.265 69.096 106.126 69.0406C106.071 69.0129 105.987 69.0129 105.932 68.9852L105.738 68.9575C105.599 68.9298 105.46 68.902 105.322 68.902C105.183 68.902 105.044 68.8743 104.906 68.8743C104.628 68.8466 104.323 68.8466 104.018 68.8743C103.436 68.9298 102.826 69.0683 102.327 69.4009C101.772 69.7335 101.356 70.2324 101.023 70.7867ZM100.884 70.7036C101.217 70.1215 101.55 69.5672 101.994 69.0683C102.437 68.5417 103.02 68.0983 103.713 67.8211C104.046 67.6825 104.379 67.544 104.739 67.4885C104.934 67.4608 105.1 67.4331 105.294 67.4054C105.488 67.3777 105.655 67.4054 105.849 67.4054H106.126C106.209 67.4054 106.32 67.4331 106.403 67.4331C106.598 67.4608 106.792 67.4885 106.958 67.544C107.319 67.6548 107.679 67.7657 108.012 67.9597C108.373 68.126 108.678 68.3477 108.983 68.5694C109.26 68.8189 109.565 69.0683 109.787 69.3732C110.037 69.6504 110.231 69.983 110.425 70.3155C110.591 70.6481 110.758 70.9807 110.841 71.341C110.98 71.7013 111.007 72.0616 111.09 72.4219C111.118 72.7823 111.146 73.1703 111.09 73.5306C111.063 73.7246 111.063 73.8909 111.007 74.0572L110.869 74.5838C110.813 74.7501 110.73 74.9164 110.674 75.0827C110.619 75.249 110.536 75.4152 110.453 75.5538C110.12 76.1913 109.676 76.7456 109.149 77.1891C108.594 77.6325 107.984 77.9374 107.319 78.1037C105.987 78.464 104.517 78.4363 103.186 77.8542C102.521 77.5771 101.91 77.1613 101.411 76.6347C100.912 76.1081 100.552 75.443 100.357 74.7501C100.163 74.0572 100.163 73.3088 100.274 72.6437C100.357 71.9231 100.607 71.3133 100.884 70.7036Z" fill="white"/>
<path d="M82.2183 70.7867C81.941 71.3687 81.8023 72.0062 81.8578 72.616C81.9132 73.2257 82.1628 73.8077 82.4957 74.2789C82.8285 74.7501 83.2167 75.1658 83.6327 75.5538C84.0488 75.9418 84.4925 76.2744 84.9917 76.607C85.4909 76.9119 86.0179 77.2168 86.5726 77.3831C87.155 77.5771 87.7651 77.6602 88.3753 77.5494C88.9854 77.4385 89.5401 77.1614 89.9561 76.7456C90.3721 76.3299 90.6495 75.7756 90.8159 75.1935C90.8714 75.0549 90.8714 74.9164 90.8991 74.7501C90.9268 74.6115 90.9546 74.4729 90.9546 74.3066C90.9546 74.0017 90.9823 73.7246 90.9546 73.4474C90.9546 73.1703 90.8714 72.8931 90.8436 72.616C90.7604 72.3388 90.7049 72.0894 90.5663 71.8399C90.4831 71.5905 90.3167 71.341 90.178 71.1193C90.0116 70.8976 89.8729 70.6759 89.6788 70.4818C89.5124 70.2601 89.2905 70.1215 89.0964 69.9275C88.8745 69.7889 88.6804 69.5949 88.4308 69.4841C88.2089 69.3455 87.9593 69.2623 87.7097 69.1515C87.571 69.1238 87.4601 69.096 87.3214 69.0406C87.2659 69.0129 87.1827 69.0129 87.1272 68.9852L86.9331 68.9575C86.7944 68.9298 86.6558 68.902 86.5171 68.902C86.3784 68.902 86.2398 68.8743 86.1011 68.8743C85.8237 68.8466 85.5187 68.8466 85.2136 68.8743C84.6312 68.9298 84.021 69.0683 83.5218 69.4009C82.9671 69.7335 82.5511 70.2324 82.2183 70.7867ZM82.0796 70.7036C82.4125 70.1215 82.7453 69.5672 83.189 69.0683C83.6328 68.5417 84.2152 68.0983 84.9085 67.8211C85.2413 67.6825 85.5741 67.544 85.9347 67.4885C86.1288 67.4608 86.2952 67.4331 86.4894 67.4054C86.6835 67.3777 86.8499 67.4054 87.044 67.4054H87.3214C87.4046 67.4054 87.5155 67.4331 87.5987 67.4331C87.7929 67.4608 87.987 67.4885 88.1534 67.544C88.514 67.6548 88.8745 67.7657 89.2073 67.9597C89.5679 68.126 89.8729 68.3477 90.178 68.5694C90.4553 68.8189 90.7604 69.0683 90.9823 69.3732C91.2319 69.6504 91.426 69.983 91.6202 70.3155C91.7866 70.6481 91.953 70.9807 92.0362 71.341C92.1749 71.7013 92.2026 72.0616 92.2858 72.4219C92.3135 72.7823 92.3413 73.1703 92.2858 73.5306C92.2581 73.7246 92.2581 73.8909 92.2026 74.0572L92.0639 74.5838C92.0085 74.7501 91.9253 74.9164 91.8698 75.0827C91.8143 75.249 91.7311 75.4152 91.6479 75.5538C91.3151 76.1913 90.8714 76.7456 90.3444 77.1891C89.7897 77.6325 89.1796 77.9374 88.514 78.1037C87.1827 78.464 85.7128 78.4363 84.3816 77.8542C83.716 77.5771 83.1058 77.1613 82.6066 76.6347C82.1074 76.1081 81.7468 75.443 81.5527 74.7501C81.3585 74.0572 81.3586 73.3088 81.4695 72.6437C81.5804 71.9231 81.8023 71.3133 82.0796 70.7036Z" fill="white"/>
<path d="M25.2799 38.6363C25.1412 39.2461 25.169 39.9113 25.3908 40.4933C25.585 41.0753 25.9732 41.5742 26.417 41.9622C26.8607 42.3503 27.3322 42.6551 27.8314 42.9323C28.3306 43.2095 28.8576 43.4312 29.4123 43.6252C29.967 43.8192 30.5494 43.9578 31.1318 44.0132C31.7419 44.0686 32.3521 43.9855 32.9068 43.7361C33.4615 43.4866 33.9329 43.0709 34.238 42.572C34.5431 42.0454 34.6818 41.4634 34.6818 40.8536C34.6818 40.715 34.6818 40.5487 34.654 40.4102C34.6263 40.2716 34.6263 40.1053 34.5986 39.9667C34.5153 39.6895 34.4876 39.4124 34.3767 39.1352C34.2935 38.8581 34.1548 38.6086 34.0716 38.3592C33.9329 38.1097 33.7943 37.8603 33.6279 37.6663C33.4615 37.4446 33.2673 37.2506 33.0732 37.0565C32.8513 36.8902 32.6572 36.6962 32.4353 36.5577C32.2134 36.3914 31.9638 36.2805 31.7419 36.1696C31.4923 36.0865 31.2427 35.9479 30.9931 35.9202C30.7435 35.837 30.4662 35.8093 30.2166 35.7816C30.0779 35.7816 29.9392 35.7816 29.8283 35.7816C29.7728 35.7816 29.6896 35.7816 29.6341 35.7816L29.44 35.8093C29.3013 35.837 29.1627 35.8093 29.024 35.837C28.8853 35.8648 28.7467 35.8925 28.608 35.9202C28.3306 35.9479 28.0256 36.0311 27.7482 36.1419C27.1935 36.3359 26.6389 36.6131 26.2229 37.0565C25.7514 37.4446 25.4463 38.0266 25.2799 38.6363ZM25.1135 38.6086C25.2799 37.9712 25.474 37.3614 25.8068 36.7517C26.1119 36.1419 26.5834 35.5599 27.1658 35.1164C27.4709 34.8947 27.7482 34.7007 28.081 34.5344C28.2474 34.4513 28.4138 34.3958 28.5803 34.3127C28.7467 34.2572 28.9408 34.2018 29.1349 34.1741L29.4123 34.1187C29.4955 34.0909 29.6064 34.0909 29.6896 34.0909C29.8838 34.0909 30.0779 34.0632 30.2443 34.0632C30.6326 34.0909 31.0209 34.0909 31.3814 34.2018C31.7697 34.2572 32.1025 34.4235 32.463 34.5621C32.7958 34.7561 33.1286 34.9224 33.4337 35.1441C33.7388 35.3659 34.0161 35.643 34.2657 35.8925C34.4876 36.1974 34.7372 36.4745 34.9314 36.8071C35.1532 37.112 35.2642 37.4723 35.4306 37.8049C35.5415 38.1652 35.6524 38.4978 35.7079 38.8858C35.7357 39.0798 35.7634 39.2461 35.7634 39.4401V39.9944C35.7634 40.1607 35.7079 40.3547 35.7079 40.521C35.6802 40.6873 35.6524 40.8813 35.597 41.0476C35.4306 41.7405 35.1255 42.378 34.7095 42.9323C34.2935 43.4866 33.7388 43.9301 33.1564 44.2627C31.9638 44.9278 30.4939 45.2604 29.0795 45.0387C28.3584 44.9278 27.6928 44.6507 27.0826 44.2627C26.4725 43.8746 25.9455 43.3203 25.585 42.6829C25.2244 42.0454 25.0303 41.3248 25.0026 40.6596C24.9193 39.9113 25.0026 39.2461 25.1135 38.6086Z" fill="white"/>
</svg>
