<svg width="101" height="124" viewBox="0 0 101 124" fill="none" xmlns="http://www.w3.org/2000/svg">
  <path
    d="M26.0117 121.434C28.8383 121.053 31.6648 120.808 34.4914 120.591C37.3179 120.373 40.1445 120.237 42.9439 120.101C48.597 119.883 54.2229 119.802 59.876 119.856C65.5291 119.911 71.155 120.074 76.781 120.427C79.6075 120.591 82.4069 120.808 85.2335 121.053C88.06 121.325 90.8594 121.624 93.6859 122.059C90.8594 122.44 88.0328 122.712 85.2063 122.93C82.3797 123.148 79.5532 123.284 76.7266 123.42C71.0735 123.637 65.4476 123.719 59.7945 123.664C54.1414 123.61 48.5154 123.42 42.8895 123.093C40.063 122.93 37.2636 122.712 34.437 122.467C31.6376 122.168 28.8383 121.869 26.0117 121.434Z"
    fill="#FF775D" />
  <path
    d="M30.6054 68.7724C31.2033 85.0115 42.5911 90.3157 50.5271 90.0165C58.4632 89.7173 67.867 79.8704 67.3778 66.5963C66.8885 53.2949 55.99 43.0401 47.6734 43.3665C39.3568 43.6929 30.0075 52.5333 30.6054 68.7724Z"
    fill="#3B9BD8" />
  <path
    d="M63.6261 25.6042C61.6149 37.7087 50.662 40.2656 43.4054 39.0688C36.1488 37.8719 28.3486 29.3036 30.0065 19.4023C31.6643 9.50111 42.59 3.16323 50.2 4.44169C57.8099 5.72014 65.6101 13.4997 63.6261 25.6042Z"
    fill="#FF775D" />
  <path
    d="M52.3753 1.91192C53.5712 2.02073 54.767 2.23834 55.9357 2.53755C57.1043 2.86396 58.2458 3.29918 59.3601 3.84321C61.5616 4.95845 63.5184 6.56332 65.0948 8.54901C65.8558 9.52825 66.5352 10.6163 67.0788 11.7587C67.6224 12.9012 68.0572 14.0981 68.3562 15.3221C68.9541 17.7702 69.1172 20.3543 68.7639 22.9112C68.5736 24.2169 68.2475 25.4681 67.7311 26.6922C67.2419 27.889 66.6168 29.0587 65.8558 30.1195C64.361 32.2684 62.4041 34.0365 60.1755 35.3966C57.9469 36.7294 55.4465 37.6543 52.8645 38.0079C51.5871 38.1983 50.2554 38.2527 48.9508 38.1711C48.6247 38.1439 48.2985 38.1167 47.9724 38.0895C47.6463 38.0623 47.3201 38.0079 46.994 37.9535C46.3417 37.8447 45.6894 37.7087 45.0643 37.5455C42.5096 36.8382 40.1722 35.5326 38.1882 33.8461C36.2042 32.1868 34.5735 30.1467 33.2961 27.9162C32.671 26.801 32.1274 25.6313 31.7197 24.4073C31.2849 23.1832 30.9859 21.932 30.7957 20.6535C30.6326 19.3751 30.6054 18.0422 30.7413 16.7366C30.7957 16.4102 30.8228 16.0837 30.9044 15.7573C30.9859 15.4581 31.0403 15.1317 31.1218 14.8325C31.2033 14.5333 31.2849 14.2069 31.3664 13.9076C31.4751 13.6084 31.5567 13.3092 31.6654 13.01C32.5079 10.6163 33.8396 8.3858 35.5247 6.50892C37.2098 4.63204 39.2481 3.10877 41.5039 2.04793C43.7598 0.987083 46.1515 0.307053 48.5975 0.143846C49.8205 0.0622427 51.0436 0.0350416 52.2394 0.143846C53.4353 0.252651 54.6311 0.443059 55.7998 0.715071C54.6039 0.606266 53.4081 0.551864 52.2122 0.579065C51.0164 0.633467 49.8477 0.742272 48.679 0.959882C46.3689 1.3679 44.1403 2.18393 42.1562 3.32638C40.1722 4.49603 38.4056 5.9921 36.9923 7.78738C35.5791 9.55545 34.5191 11.6227 33.894 13.7716L33.6766 14.5877C33.6222 14.8597 33.5679 15.1317 33.4863 15.4037C33.432 15.6757 33.4048 15.9477 33.3504 16.2197C33.2961 16.4918 33.2961 16.7638 33.2689 17.0086C33.1874 18.0694 33.2689 19.1847 33.4863 20.2455C33.8668 22.4216 34.7365 24.5161 35.878 26.4202C37.0195 28.3243 38.4871 30.0379 40.1994 31.4252C41.9116 32.8125 43.8413 33.8733 45.9068 34.4173C46.4232 34.5533 46.9396 34.6621 47.4832 34.7437C47.755 34.7709 48.0268 34.8253 48.2985 34.8525C48.5703 34.8797 48.8421 34.907 49.1139 34.9342C50.201 34.9886 51.2882 34.9613 52.3753 34.7981C54.5224 34.4989 56.6423 33.7917 58.5448 32.7037C60.4473 31.6156 62.1323 30.1467 63.4641 28.4059C64.7958 26.665 65.7199 24.6521 66.1547 22.5032C66.9973 18.1238 66.2091 13.3364 63.7087 9.50105C62.4857 7.56977 60.8006 5.9377 58.8438 4.65924C57.8653 4.00641 56.8054 3.46239 55.7182 3.02717C54.6855 2.56475 53.544 2.21114 52.3753 1.91192Z"
    fill="#1D4557" />
  <path
    d="M71.2368 61.7273C72.3511 61.8633 73.4654 61.7273 74.5254 61.4825C75.6125 61.2377 76.6453 60.8841 77.6781 60.5032C79.7165 59.6872 81.6733 58.6264 83.5214 57.4295C85.3696 56.2327 87.109 54.8726 88.6581 53.3221C89.0386 52.9413 89.4191 52.5333 89.7453 52.1253L90.7781 50.8196C91.4575 49.9492 92.137 49.0787 92.8164 48.2083C94.121 46.4402 95.3712 44.6177 96.4583 42.7137C97.0019 41.7616 97.4911 40.7824 97.8988 39.8031C98.3065 38.8239 98.6326 37.7903 98.7957 36.7838C98.9587 35.7774 98.9588 34.7709 98.6326 33.9005C98.3337 33.03 97.7085 32.35 96.866 31.8876C95.9963 31.398 95.0451 31.0716 94.0938 30.99C93.1426 30.9084 92.1642 31.0716 91.2401 31.4252C90.316 31.7788 89.4191 32.2956 88.5766 32.9212C87.7341 33.5197 86.9187 34.2269 86.1306 34.9613C84.5542 36.4302 83.0322 38.0351 81.4831 39.6399C79.9339 41.2448 78.3575 42.8497 76.5638 44.3185C76.1289 44.6722 75.6669 45.053 75.1777 45.3794C74.9331 45.5426 74.6885 45.7058 74.4438 45.869C74.308 45.9506 74.1992 46.0322 74.0633 46.1138C73.9818 46.1682 73.9546 46.1954 73.8459 46.2498C73.7372 46.3042 73.6557 46.3586 73.547 46.413C72.8131 46.7394 72.1609 46.8482 71.5629 46.9571C70.9378 47.0387 70.3671 47.0931 69.7692 47.1203C68.6005 47.1747 67.459 47.1203 66.3175 47.0931C65.176 47.0387 64.0617 46.9571 62.9474 46.8754C60.7188 46.7122 58.4901 46.4946 56.2887 46.277C51.8586 45.8418 47.4557 45.4338 43.08 45.0802C38.6771 44.7538 34.3014 44.5633 29.9256 44.6722C27.7514 44.7266 25.5771 44.8898 23.4572 45.189C21.3373 45.4882 19.2717 45.9234 17.3421 46.6306C15.4396 47.3379 13.7001 48.3715 12.5587 49.786C12.2597 50.1396 12.0151 50.5204 11.8248 50.9012C11.6074 51.3364 11.39 51.7989 11.2269 52.2613C10.8736 53.1861 10.6018 54.1926 10.3844 55.199C10.0039 57.2119 9.89517 59.3336 10.0311 61.4281C10.167 63.5226 10.5203 65.6443 11.0638 67.6843C11.6074 69.7244 12.3684 71.7101 13.3196 73.5598C14.2981 75.4095 15.4939 77.1232 16.9887 78.3744C18.4564 79.6257 20.223 80.3329 21.9624 80.0609C22.3972 79.9793 22.8321 79.8977 23.1582 79.7345C23.4844 79.5713 23.7562 79.3809 23.9464 79.136C24.1366 78.8912 24.2997 78.5648 24.4084 78.184C24.5171 77.8032 24.5715 77.3408 24.5715 76.8783C24.5715 75.9263 24.4628 74.8927 24.2725 73.8318C24.0823 72.7982 23.8377 71.7373 23.5659 70.6493C23.2941 69.5884 23.0223 68.5004 22.7777 67.3851C22.5331 66.2699 22.2885 65.1546 22.1526 63.985C22.0711 63.3866 22.0711 62.8153 22.0983 62.2169C22.1254 61.6185 22.1798 61.0201 22.2885 60.4216C22.3972 59.8232 22.5603 59.2248 22.8049 58.6264C23.0495 58.0279 23.43 57.4839 23.8649 57.0215C24.3269 56.5591 24.8705 56.2055 25.4684 55.9606C26.0663 55.7158 26.6642 55.6342 27.2622 55.6342C28.458 55.6342 29.5723 55.9062 30.6051 56.3687C29.518 56.1783 28.3765 56.1782 27.3709 56.3959C26.3381 56.6407 25.4684 57.1303 24.952 57.9191C24.6802 58.2999 24.5171 58.7352 24.3813 59.1976C24.2454 59.66 24.191 60.1496 24.1638 60.6392C24.1095 61.6457 24.2725 62.6793 24.4356 63.6858C24.7618 65.7531 25.414 67.8476 26.0391 69.9965C26.3381 71.0845 26.6371 72.1725 26.9088 73.2878C27.1535 74.4302 27.3709 75.5999 27.3709 76.8511C27.3709 77.4768 27.3165 78.1568 27.1534 78.8368C26.9904 79.5169 26.6914 80.2513 26.2022 80.8769C25.713 81.5026 25.0607 82.0194 24.4084 82.3186C24.0823 82.4818 23.729 82.6178 23.4028 82.6994C23.2398 82.7538 23.0767 82.781 22.9136 82.8082C22.7506 82.8354 22.5875 82.8898 22.4244 82.8898C21.0927 83.1074 19.7066 82.9442 18.4564 82.509C17.2062 82.0738 16.0918 81.3665 15.1406 80.5777C13.2109 78.9728 11.8248 76.9872 10.7105 74.9199C9.59621 72.8526 8.75368 70.6493 8.12858 68.4188C7.50347 66.1883 7.12298 63.8762 6.95991 61.5641C6.79684 59.2248 6.87837 56.8855 7.3404 54.519C7.55783 53.3493 7.88397 52.1797 8.31883 51.0372C8.53625 50.466 8.78086 49.922 9.07982 49.3508C9.37878 48.7523 9.75928 48.2083 10.167 47.6915C10.9823 46.6578 11.9879 45.8146 13.0207 45.1346C14.0806 44.4545 15.1678 43.9377 16.3093 43.5025C18.5651 42.6593 20.8481 42.1696 23.131 41.8432C25.414 41.5168 27.697 41.3808 29.9528 41.3264C34.4916 41.2176 38.9761 41.4624 43.4333 41.816C47.8906 42.1696 52.3206 42.6865 56.7235 43.1761C58.925 43.4209 61.1264 43.6657 63.3279 43.8833C65.5022 44.0737 67.7036 44.2641 69.8235 44.2369C70.3399 44.2369 70.8563 44.2097 71.3455 44.1553C71.8347 44.1009 72.2968 44.0193 72.5685 43.8833C72.5957 43.8833 72.6229 43.8561 72.6501 43.8561C72.6773 43.8289 72.7588 43.8017 72.8131 43.7745C72.9219 43.7201 73.0306 43.6385 73.1393 43.5841C73.3567 43.4481 73.5741 43.3121 73.7916 43.1489C74.2264 42.8497 74.6613 42.5505 75.069 42.224C76.754 40.9184 78.3304 39.3951 79.9067 37.8447C81.483 36.2942 83.0594 34.6893 84.7716 33.1933C85.6413 32.4588 86.5382 31.7244 87.5166 31.0716C88.4951 30.4187 89.555 29.8475 90.7237 29.4395C91.8924 29.0315 93.1698 28.8683 94.42 29.0315C95.6702 29.1947 96.8388 29.6571 97.8988 30.2827C98.4424 30.6091 98.9316 31.0172 99.3664 31.534C99.8013 32.0236 100.127 32.622 100.318 33.2477C100.753 34.4989 100.671 35.7774 100.454 36.947C100.209 38.1167 99.8285 39.2047 99.3392 40.2656C98.8772 41.3264 98.3336 42.3057 97.7357 43.2849C96.5671 45.2162 95.2353 47.0387 93.8492 48.7795C93.1426 49.65 92.4359 50.5204 91.7293 51.3636L90.6422 52.6421C90.2617 53.0773 89.854 53.4853 89.4463 53.8661C87.7884 55.4166 85.9403 56.7223 84.0106 57.8647C82.081 59.0072 80.0698 59.9864 77.9499 60.7208C76.8899 61.0745 75.8028 61.3737 74.7156 61.5641C73.4654 61.8633 72.3239 61.9177 71.2368 61.7273Z"
    fill="#1D4557" />
  <path
    d="M51.3145 89.01C52.3472 88.6836 53.4344 88.5748 54.5215 88.6292C55.6086 88.6836 56.6958 88.9556 57.7286 89.3637C58.7613 89.7717 59.7398 90.3157 60.6366 90.9413C61.5607 91.567 62.4032 92.2742 63.2186 93.0086C64.0339 93.743 64.7949 94.5319 65.5016 95.3479C66.2354 96.1639 66.9149 97.0072 67.5943 97.8504C68.9261 99.5369 70.1763 101.305 71.3993 103.046C73.8453 106.555 76.1283 110.118 78.7646 113.246C80.0964 114.77 81.5097 116.211 83.086 117.136C83.8742 117.598 84.6624 117.898 85.4505 118.006C86.2387 118.115 87.0541 118.034 87.8694 117.762L87.5161 117.925C88.3043 117.435 88.9022 116.81 89.337 116.021C89.7447 115.232 89.9893 114.307 90.0437 113.301C90.1252 112.294 90.0437 111.261 89.8534 110.2C89.6632 109.139 89.3914 108.078 89.0653 107.017C88.413 104.896 87.5161 102.801 86.5377 100.734C85.5592 98.6665 84.4721 96.6536 83.3306 94.6407C81.0204 90.6421 78.4929 86.7795 75.8837 82.9442C73.2474 79.136 70.5024 75.3551 67.703 71.6557C69.3609 73.315 70.9373 75.0287 72.4864 76.7695C74.0356 78.5104 75.5576 80.3057 77.0252 82.101C79.9877 85.7187 82.787 89.4725 85.3418 93.4438C86.6192 95.4295 87.8422 97.4424 88.9565 99.5369C90.0709 101.631 91.0765 103.807 91.8646 106.12C92.2723 107.262 92.5984 108.459 92.8431 109.683C93.0877 110.907 93.2236 112.185 93.1692 113.518C93.1148 114.851 92.8159 116.238 92.1636 117.517C91.8374 118.142 91.4026 118.768 90.9134 119.285C90.4242 119.802 89.8534 120.264 89.2555 120.645L89.1196 120.754L88.9294 120.808C88.3314 121.026 87.6792 121.162 87.0269 121.243C86.3746 121.298 85.6951 121.298 85.0429 121.216C83.7383 121.053 82.5153 120.563 81.4553 119.938C80.3953 119.312 79.4713 118.578 78.6559 117.789C77.8134 117 77.0524 116.157 76.3729 115.314C74.9597 113.6 73.7366 111.805 72.568 110.009C71.3993 108.214 70.285 106.364 69.1707 104.569C68.0563 102.747 66.942 100.979 65.7734 99.2377C64.6047 97.4968 63.3817 95.8103 62.0227 94.2599C60.6638 92.7094 59.1418 91.2677 57.3481 90.2885C55.5543 89.2549 53.4344 88.7652 51.3145 89.01Z"
    fill="#1D4557" />
  <path
    d="M34.1924 78.4832C32.2355 81.9378 30.17 85.3107 28.0501 88.6565C25.9301 92.0022 23.7559 95.3207 21.5001 98.5849L20.6575 99.8089C20.3857 100.217 20.0868 100.625 19.8694 101.033C19.4073 101.876 18.9453 102.747 18.5104 103.617C17.6679 105.358 16.9341 107.126 16.4449 108.921C16.2003 109.819 16.0372 110.717 15.9557 111.587C15.8741 112.457 15.9013 113.328 16.0916 114.09C16.2546 114.878 16.5808 115.558 17.0428 116.102C17.0972 116.184 17.1515 116.238 17.2059 116.293C17.2331 116.32 17.2602 116.347 17.2874 116.374L17.3689 116.429C17.3961 116.456 17.5048 116.51 17.5592 116.565C17.6407 116.592 17.6951 116.646 17.7766 116.674C18.0484 116.81 18.3474 116.918 18.6735 116.973C19.2986 117.082 20.0868 116.973 20.8478 116.701C21.636 116.456 22.4241 116.075 23.2123 115.613C24.7886 114.688 26.3106 113.546 27.7511 112.321C30.6864 109.846 33.4042 107.044 36.0677 104.161C41.3946 98.3945 46.3955 92.3014 51.505 86.2083C49.6569 89.7173 47.537 93.1174 45.3355 96.4088C43.1069 99.7001 40.7424 102.937 38.2148 106.011C35.66 109.112 32.9693 112.077 29.871 114.77C28.3218 116.102 26.6911 117.381 24.8158 118.442C23.8918 118.959 22.8862 119.448 21.7718 119.775C20.6847 120.101 19.4345 120.291 18.1028 120.074C17.4505 119.965 16.7982 119.72 16.2003 119.367C16.0644 119.285 15.9285 119.176 15.7654 119.095C15.6295 118.986 15.5208 118.904 15.3577 118.768L15.1403 118.578C15.086 118.523 15.0316 118.442 14.9501 118.387C14.8414 118.251 14.7055 118.115 14.6239 118.007C13.8358 117 13.3737 115.803 13.1835 114.634C12.9932 113.464 13.0204 112.321 13.1835 111.233C13.3465 110.145 13.6455 109.112 13.9716 108.133C14.6783 106.147 15.6567 104.324 16.7167 102.611C17.2602 101.74 17.831 100.924 18.4289 100.108L20.2499 97.7145C25.1148 91.4582 29.7351 85.0387 34.1924 78.4832Z"
    fill="#1D4557" />
  <path
    d="M13.9445 38.1711C12.9661 38.6607 12.042 39.0959 11.1451 39.5311C10.2482 39.9936 9.40568 40.456 8.61751 40.9728C7.04116 42.0064 5.76378 43.2033 4.81254 44.6722C3.86129 46.141 3.18183 47.8547 2.63826 49.7316C2.06752 51.6085 1.63266 53.5941 0.953204 55.6342C0.599885 54.6006 0.382457 53.5669 0.246565 52.5061C0.110673 51.4453 0.0563167 50.3844 0.110673 49.2964C0.16503 48.2083 0.355279 47.1203 0.654241 46.0322C0.980382 44.9442 1.44241 43.8833 2.0947 42.8769C2.74698 41.8976 3.56233 41 4.48639 40.2928C5.41046 39.5855 6.44324 39.0415 7.5032 38.6607C9.62311 37.9263 11.8246 37.7903 13.9445 38.1711Z"
    fill="#3B9BD8" />
</svg>