<svg width="100" height="129" viewBox="0 0 100 129" fill="none" xmlns="http://www.w3.org/2000/svg">
  <path
    d="M79.0919 0.0350952C79.0919 0.0350952 21.9372 19.6579 45.7837 64.3911C54.1631 75.8522 74.3086 53.8329 77.4509 47.1646C84.4338 32.4041 79.0919 0.0350952 79.0919 0.0350952Z"
    fill="#3B9BD8" />
  <path
    d="M46.5527 128.643C46.2734 122.53 46.3782 116.383 46.6575 110.27C46.7971 107.214 46.9717 104.158 47.1812 101.101L47.7747 91.9325C47.9493 88.8762 48.1239 85.8546 48.2286 82.7983C48.2985 81.2702 48.3334 79.742 48.4032 78.2486C48.4381 76.7205 48.473 75.2271 48.473 73.6989C48.4381 72.1707 48.473 70.6426 48.4032 69.1839C48.3334 67.6905 48.2286 66.1971 48.089 64.6689C47.8446 61.6474 47.4954 58.6258 47.1812 55.5695C46.867 52.5132 46.5877 49.4569 46.4131 46.3311C46.2385 43.2054 46.2385 40.0796 46.5178 36.8844C46.7971 33.7239 47.3558 30.5287 48.473 27.4376C49.0317 25.9095 49.695 24.3813 50.533 22.9226C51.336 21.4987 52.2438 20.1442 53.2563 18.8591C55.2464 16.2543 57.6904 13.9969 60.4137 12.1561C63.137 10.3154 66.1047 8.89144 69.1423 7.84952C72.1798 6.8076 75.3221 6.11299 78.4644 5.62676C81.6067 5.14053 84.714 4.89741 87.8214 4.72376L89.2878 4.6543L89.7417 6.00879C90.859 9.30821 91.662 12.7465 92.1159 16.2196C92.3254 17.9561 92.4301 19.7274 92.465 21.4639C92.465 23.2352 92.3603 24.9717 92.1508 26.743C91.3128 33.7239 88.6244 40.4964 84.4347 46.088C83.4222 47.512 82.27 48.8317 81.1179 50.1168C79.9308 51.4018 78.7437 52.5826 77.4868 53.7635C74.973 56.1252 72.3195 58.3132 69.3518 60.1539C67.8854 61.0569 66.3491 61.8557 64.7431 62.5156C63.137 63.1755 61.4611 63.6617 59.7853 64.009C56.3986 64.7036 52.977 64.7731 49.5903 64.7384C51.3011 64.5995 52.977 64.4258 54.6529 64.1827C56.3287 63.9396 57.9697 63.627 59.5758 63.1408C62.7879 62.2378 65.7905 60.7444 68.5138 58.8342C71.2371 56.924 73.6462 54.6318 75.9855 52.2353C77.1376 51.0198 78.2898 49.7695 79.3372 48.5192C80.3847 47.2688 81.3972 45.9491 82.305 44.5946C83.2127 43.2401 84.0507 41.8161 84.7839 40.3574C85.5171 38.8988 86.1804 37.4053 86.7391 35.8772C87.8214 32.8209 88.5546 29.6257 88.8339 26.3957C88.9736 24.7981 89.0085 23.1658 88.9736 21.5334C88.9387 19.9011 88.799 18.3035 88.5546 16.7058C88.1007 13.4759 87.2628 10.3154 86.1804 7.2591L88.1007 8.54413C85.0632 8.75252 82.0606 9.09982 79.1278 9.58605C76.195 10.0723 73.2971 10.7669 70.5388 11.7394C67.7806 12.7118 65.1621 13.9621 62.8228 15.5945C60.4835 17.2268 58.3887 19.2065 56.6081 21.4292C55.7352 22.5406 54.9322 23.7562 54.2339 25.0065C53.5356 26.2221 52.9421 27.5071 52.4882 28.8616C51.5106 31.5358 50.9519 34.3838 50.6726 37.3011C50.114 43.1706 50.4981 49.179 51.0218 55.2569C51.2662 58.3132 51.5455 61.3695 51.7201 64.4605C51.7899 66.0234 51.8597 67.5516 51.8597 69.1144C51.8597 70.6773 51.7899 72.2055 51.755 73.7684C51.6851 75.2965 51.6153 76.8594 51.5455 78.3875C51.4407 79.9157 51.3709 81.4786 51.2313 83.0067C51.1265 84.5349 50.9519 86.063 50.8123 87.5912C50.6726 89.1193 50.4981 90.6475 50.3235 92.1756C49.9743 95.2319 49.6252 98.2535 49.2761 101.31C48.892 104.331 48.5429 107.388 48.1937 110.409C47.4256 116.452 46.867 122.53 46.5527 128.643Z"
    fill="#1D4557" />
  <path
    d="M0.814453 109.298C8.98439 108.047 16.2815 104.435 24.5212 102.56C26.5812 102.109 28.676 101.726 30.8407 101.622C32.9705 101.483 35.0653 101.483 37.1951 101.553C41.3848 101.726 45.5396 102.282 49.6246 102.977C51.6496 103.324 53.6746 103.706 55.6997 104.123C57.6898 104.54 59.7497 104.956 61.7049 105.338C65.6502 106.103 69.6654 106.658 73.6805 107.11C81.7457 108.047 89.9506 108.464 98.1554 109.333C89.9506 110.201 81.7457 110.687 73.4361 110.374C71.3762 110.305 69.2813 110.166 67.2214 109.992C66.174 109.923 65.1614 109.784 64.114 109.68C63.0666 109.541 62.0541 109.402 61.0066 109.263C58.9118 108.95 56.9217 108.568 54.9316 108.221C52.9065 107.839 50.9164 107.492 48.9263 107.144C46.9362 106.797 44.9461 106.485 42.956 106.207C40.9659 105.929 38.9757 105.721 36.9856 105.547C34.9955 105.408 33.0054 105.304 31.0502 105.338C30.5614 105.338 30.0726 105.373 29.5838 105.373L28.1174 105.477C27.6286 105.512 27.1398 105.582 26.651 105.616L25.9178 105.686L25.1846 105.79C24.207 105.929 23.1945 106.103 22.2169 106.276C21.2393 106.485 20.2268 106.658 19.2492 106.867C17.2591 107.283 15.269 107.735 13.2439 108.117C9.12405 108.916 4.93434 109.576 0.814453 109.298Z"
    fill="#FF775D" />
  <path
    d="M49.9727 66.1971C50.8804 61.3 52.1723 56.4377 54.0925 51.7838L54.7908 50.0473C55.0352 49.4569 55.3145 48.9012 55.5938 48.3455C56.1176 47.1994 56.6762 46.0533 57.2348 44.9419C57.8284 43.8305 58.4568 42.7538 59.0853 41.6425C59.3995 41.0868 59.7486 40.5658 60.0629 40.0449L61.0754 38.4472C63.8685 34.2448 67.1156 30.3203 70.7466 26.8125C72.5622 25.0412 74.4825 23.4089 76.4377 21.8807C78.4278 20.3526 80.4877 18.9286 82.5127 17.4699C82.1287 17.9561 81.7097 18.4424 81.2907 18.9286L80.0338 20.3178L77.4851 23.0268C75.8092 24.8328 74.1333 26.6388 72.5273 28.5143C69.3152 32.2304 66.3824 36.1203 63.694 40.1838L62.6814 41.7119C62.3323 42.2329 62.0181 42.7191 61.7038 43.2401C61.0754 44.282 60.4469 45.3239 59.8185 46.3658C59.19 47.4078 58.6314 48.5191 58.0378 49.5611C57.7585 50.082 57.4443 50.6377 57.165 51.1587L56.3271 52.791C54.0227 57.1323 52.1024 61.6821 49.9727 66.1971Z"
    fill="#1D4557" />
  <path
    d="M60.3438 43.5874C60.4834 42.7191 60.8675 41.8856 61.3912 41.1562C61.9149 40.4269 62.5783 39.767 63.2765 39.2113C64.708 38.1347 66.3839 37.4053 68.0598 36.9538C69.7357 36.5023 71.4465 36.2939 73.1573 36.2939C73.9952 36.2939 74.8681 36.3634 75.706 36.4676C76.544 36.5718 77.3819 36.7454 78.2198 36.9538C77.8358 37.1622 77.4168 37.3359 76.9978 37.4748C76.5789 37.6137 76.1948 37.7526 75.7758 37.8568C74.9728 38.0999 74.1698 38.3083 73.4017 38.5167C71.8305 38.8987 70.2594 39.2808 68.7581 39.6976C67.2568 40.1143 65.7904 40.5658 64.3589 41.1562C62.9623 41.6772 61.6356 42.4413 60.3438 43.5874Z"
    fill="#1D4557" />
  <path
    d="M82.5488 59.2856C84.3644 56.6461 86.145 54.1802 87.7161 51.6449C89.2873 49.1095 90.6838 46.5047 91.9757 43.8652C93.2675 41.1909 94.4546 38.4472 95.6417 35.6687C96.8288 32.8556 97.946 30.0076 99.4473 27.1597C99.6917 30.355 99.4124 33.5154 98.8189 36.6412C98.1904 39.7322 97.1779 42.7885 95.7813 45.7059C94.3848 48.5886 92.5692 51.3323 90.3347 53.694C88.0653 55.9862 85.4816 57.9658 82.5488 59.2856Z"
    fill="#FF775D" />
  <path
    d="M33.1805 43.5873C34.0883 44.9418 34.612 46.2616 35.1357 47.4424L36.5672 50.8808L38.0336 54.2844C38.5224 55.5 39.081 56.7503 39.4651 58.3479C37.859 58.0006 36.5323 57.2365 35.3801 56.2293C34.228 55.2221 33.3202 53.9371 32.6917 52.4784C32.0633 51.0544 31.784 49.4568 31.8887 47.9634C31.9934 46.4353 32.3426 44.9766 33.1805 43.5873Z"
    fill="#FF775D" />
</svg>