<svg width="116" height="102" viewBox="0 0 116 102" fill="none" xmlns="http://www.w3.org/2000/svg">
<path d="M49.5075 11.9011L111.136 23.1922L83.6215 97.3712L12.0938 83.9977L49.5075 11.9011Z" fill="#3B9BD8"/>
<path d="M2.96036 66.6677C6.53907 61.5543 10.0481 56.3715 13.3712 51.0962C16.6942 45.8208 19.8314 40.4298 22.713 34.923C25.641 29.4394 28.267 23.7939 30.8464 18.1252C31.4971 16.7138 32.1478 15.2793 32.7984 13.8447C33.4723 12.4102 34.1463 10.9988 34.9131 9.58742C35.68 8.17603 36.5166 6.78778 37.5391 5.46894C38.5616 4.1501 39.8164 2.92381 41.3502 2.04459C42.117 1.60497 42.9304 1.25791 43.7437 1.0034C44.5803 0.748886 45.4169 0.586923 46.2535 0.494373C47.9266 0.286135 49.5765 0.355547 51.18 0.51751C52.7834 0.679473 54.3636 0.933986 55.9206 1.23477L60.5451 2.20655C63.6125 2.8544 66.68 3.52539 69.7475 4.21952C72.8149 4.91364 75.8824 5.60777 78.9266 6.30189L97.2849 10.4898L106.464 12.5722L111.042 13.6134L113.343 14.1455L114.481 14.4232L115.062 14.562L115.364 14.6314L115.527 14.6777L115.62 14.7008L115.69 14.724C115.271 14.4926 116.643 14.9091 115.527 15.7883H115.457C113.529 15.6726 111.623 15.742 109.741 16.0891C107.882 16.4361 106.069 17.0377 104.396 17.9169C102.723 18.7962 101.212 19.9299 99.8876 21.2487C98.5398 22.5676 97.3779 24.0715 96.3786 25.668C94.3569 28.861 92.8696 32.4242 91.6612 36.0568C90.4528 39.6894 89.5233 43.4376 88.71 47.2322C87.0833 54.7982 86.0143 62.503 84.5038 70.2309C83.7602 74.0949 82.9004 77.9588 81.5758 81.7534C80.9019 83.6507 80.1118 85.548 78.9963 87.3527C78.7175 87.7923 78.4154 88.255 78.09 88.6715C77.7647 89.1111 77.4161 89.5276 77.0211 89.921C76.2542 90.7308 75.3479 91.4249 74.3022 91.9802L73.7909 92.2347L73.2332 92.0959C67.168 90.4531 61.1028 88.7872 55.0376 87.0982L45.9514 84.553L36.8652 81.9848C30.8232 80.2495 24.758 78.5373 18.716 76.7557C12.674 74.9972 6.63202 73.2156 0.613281 71.3646L0.682996 71.087C6.81793 72.4752 12.9529 73.9329 19.0646 75.4137C25.1762 76.8945 31.2879 78.3985 37.3996 79.9024L46.5556 82.193L55.7115 84.5068C61.7999 86.057 67.9116 87.6303 74.0001 89.2268L72.9311 89.3425C74.3254 88.6021 75.4873 87.2833 76.4169 85.7562C77.3464 84.2291 78.09 82.4938 78.7175 80.7353C79.9723 77.1722 80.8089 73.4007 81.6223 69.6293C82.4124 65.8348 83.0863 61.9939 83.8067 58.1763C84.5271 54.3354 85.2707 50.4946 86.1537 46.6538C87.0368 42.8361 88.0825 39.0184 89.4071 35.2701C90.081 33.3959 90.8479 31.5681 91.7077 29.7634C92.5675 27.9586 93.5668 26.2233 94.7055 24.5574C95.8441 22.9146 97.1687 21.3413 98.656 19.9762C100.143 18.6111 101.84 17.431 103.675 16.5518C105.511 15.6726 107.487 15.0942 109.485 14.7934C111.484 14.4926 113.505 14.4694 115.481 14.6545H115.411C114.342 15.5106 115.666 15.904 115.225 15.6726L115.178 15.6495L115.039 15.6032L114.76 15.5338L114.202 15.3718L113.064 15.071L110.786 14.4926L106.232 13.3588C103.187 12.6184 100.12 11.9243 97.0758 11.2071C94.0083 10.5129 90.9641 9.84194 87.8966 9.17095C84.8292 8.5231 81.7617 7.89838 78.6942 7.27367C75.6268 6.67209 72.5361 6.09366 69.4454 5.51522C66.3546 4.95992 63.2872 4.40462 60.1965 3.89559L55.572 3.13205C54.0383 2.90068 52.5278 2.69244 50.9941 2.59989C49.4836 2.50734 47.9731 2.50734 46.5323 2.71558C45.0915 2.92381 43.7437 3.34029 42.5586 4.05755C41.3734 4.77482 40.3509 5.76973 39.4678 6.92661C38.5848 8.08348 37.7947 9.37919 37.0743 10.7212C35.6103 13.4051 34.3089 16.251 32.9843 19.0738C31.6598 21.8966 30.3352 24.7425 28.8944 27.5422C27.4768 30.3418 26.0128 33.1183 24.4791 35.8717C21.3884 41.3321 18.0421 46.6769 14.4634 51.8134C10.9776 57.0194 7.18974 62.0171 3.19274 66.8297L2.96036 66.6677Z" fill="#1D4557"/>
<path d="M53.0393 24.6731C52.5513 25.8068 52.4351 27.1025 52.7604 28.2594C53.0857 29.4163 53.7597 30.4112 54.5498 31.221C55.3399 32.0539 56.2229 32.7481 57.1525 33.419C58.082 34.0669 59.058 34.6685 60.0573 35.1081C60.1735 35.1544 60.3129 35.2006 60.4291 35.2469C60.4988 35.27 60.5453 35.2932 60.615 35.3163L60.8241 35.3857C61.103 35.4783 61.4051 35.5246 61.684 35.594C62.2649 35.7097 62.8691 35.8022 63.4733 35.8485C64.6817 35.941 65.8901 35.8022 67.0288 35.4089C68.1675 35.0155 69.19 34.3214 69.9801 33.4422C70.7702 32.563 71.2582 31.4524 71.5138 30.3418C71.63 29.7633 71.6997 29.208 71.6997 28.6296C71.6997 28.4908 71.6997 28.3288 71.6997 28.19C71.6997 28.0511 71.6997 27.9123 71.6765 27.7504C71.6765 27.4727 71.6532 27.1719 71.6067 26.9174C71.4441 25.8068 71.1652 24.7887 70.5843 23.9327C70.0265 23.0766 69.2364 22.3824 68.3301 21.8503C67.8654 21.5726 67.3774 21.3413 66.8661 21.133C66.6105 21.0173 66.3549 20.9248 66.076 20.8322L65.681 20.6934C65.5648 20.6471 65.4486 20.624 65.3324 20.5777C65.0768 20.5083 64.8211 20.462 64.5423 20.4158C64.2634 20.3695 63.9846 20.3232 63.7057 20.3001C63.148 20.2538 62.567 20.2075 62.0093 20.2075C61.4283 20.2075 60.8474 20.2075 60.2896 20.2538C59.7087 20.3001 59.1277 20.3695 58.5468 20.4852C57.4081 20.7165 56.2462 21.133 55.2702 21.8503C54.7821 22.1973 54.3406 22.637 53.9456 23.1228C53.7597 23.3774 53.5738 23.6319 53.4343 23.8864C53.2949 24.1178 53.1555 24.3954 53.0393 24.6731ZM52.7604 24.5805C52.8766 24.2797 53.016 24.0021 53.1555 23.7013C53.2949 23.4005 53.4576 23.146 53.6202 22.8683C53.9456 22.313 54.3406 21.804 54.7589 21.295C55.2004 20.8091 55.6652 20.3232 56.1997 19.9067C56.7342 19.4902 57.2919 19.12 57.8961 18.7961C59.1045 18.1483 60.4523 17.7318 61.8001 17.5467C62.4741 17.4541 63.1712 17.431 63.8684 17.4541C64.5655 17.4773 65.2627 17.5467 65.9831 17.7087C66.169 17.7549 66.3549 17.8012 66.5408 17.8475C66.7034 17.8938 66.8661 17.94 67.0288 18.0094C67.3541 18.1251 67.6795 18.2408 68.0048 18.3796C68.6555 18.6573 69.2829 18.9812 69.8871 19.3977C71.0955 20.1844 72.1645 21.3181 72.8616 22.637C73.5588 23.9558 73.8609 25.4366 73.8144 26.848C73.8144 27.0331 73.7912 27.1951 73.7912 27.3801C73.7912 27.5421 73.7679 27.7272 73.7447 27.8892C73.7214 28.0511 73.6982 28.2362 73.6517 28.3982C73.6285 28.5602 73.582 28.7221 73.5588 28.9072C73.4193 29.5551 73.2102 30.2261 72.9546 30.8508C72.4201 32.1002 71.63 33.2571 70.654 34.1594C69.678 35.0849 68.5393 35.7791 67.3076 36.265C66.076 36.7509 64.7979 37.0516 63.4733 37.2367C62.8226 37.3062 62.1487 37.3756 61.4748 37.3524C61.1495 37.3524 60.8009 37.3524 60.4756 37.3293L60.2199 37.3062C60.127 37.3062 60.034 37.283 59.9411 37.283C59.7552 37.2599 59.5693 37.2367 59.4066 37.1905C57.989 36.9128 56.7342 36.3112 55.6187 35.4783C54.5033 34.6685 53.5505 33.6041 52.8998 32.3547C52.2492 31.1284 51.9238 29.717 51.9238 28.3982C51.9703 27.0099 52.2956 25.7374 52.7604 24.5805Z" fill="#1D4557"/>
<path d="M37.1914 41.3322C40.561 41.1008 43.9538 41.3322 47.3001 41.7949C50.6464 42.2577 53.9463 42.9518 57.1996 43.7616C60.453 44.5714 63.6599 45.5201 66.8436 46.515C70.0272 47.533 73.1877 48.5742 76.3713 49.7542C72.9785 49.6154 69.6554 49.0832 66.3556 48.4585C63.0557 47.8107 59.8023 47.0471 56.5722 46.2373L46.905 43.7616C43.6981 42.9287 40.468 42.142 37.1914 41.3322Z" fill="#FF775D"/>
<path d="M48.7637 93.2065C51.2967 93.4841 53.8064 93.8774 56.3161 94.3171C58.8027 94.7567 61.2892 95.2426 63.7757 95.7516C66.2389 96.2606 68.7254 96.7928 71.1655 97.3018C73.6287 97.8108 76.092 98.343 78.532 98.8057L78.2764 98.7826C78.2997 98.7826 78.3694 98.7826 78.4623 98.7363C78.5553 98.69 78.6947 98.6206 78.8341 98.4818C79.113 98.2504 79.4151 97.9034 79.694 97.51C80.2517 96.7234 80.7397 95.821 81.1812 94.8955C81.6227 93.9469 82.041 92.9751 82.4361 91.9802C82.8311 90.9852 83.1797 89.9903 83.5515 88.9723C84.2487 86.9362 84.9226 84.8769 85.5733 82.8177C86.2239 80.7353 86.8281 78.6529 87.4556 76.5706C87.3626 78.7686 87.1302 80.9436 86.8049 83.1185C86.4796 85.2934 86.0613 87.4452 85.55 89.5739C85.0156 91.7257 84.3881 93.8312 83.5283 95.9367C83.0868 96.9779 82.5988 98.0191 81.9248 99.0371C81.5763 99.5461 81.1812 100.055 80.6467 100.541C80.3679 100.772 80.0658 101.027 79.6707 101.212C79.2757 101.397 78.7877 101.536 78.2764 101.536H78.1602L78.044 101.513L76.1617 101.166C75.5343 101.05 74.9069 100.911 74.2794 100.772L72.4203 100.356L70.5613 99.9163C68.098 99.3148 65.6347 98.6438 63.2179 97.9496C60.7779 97.2555 58.3611 96.492 55.9676 95.7053C53.5508 94.9418 51.134 94.1088 48.7637 93.2065Z" fill="#1D4557"/>
<path d="M30.127 48.2271C33.6127 48.875 37.052 49.5922 40.468 50.3558C43.8841 51.1424 47.3001 51.9523 50.6697 52.8546C54.0625 53.757 57.4321 54.7056 60.7784 55.7468L62.0333 56.1401C62.4515 56.279 62.8698 56.3947 63.2881 56.5335L65.7979 57.3433C67.471 57.8986 69.121 58.5002 70.8174 59.0092C69.9343 59.0555 69.028 59.0092 68.1449 58.9398C67.2619 58.8704 66.3788 58.7778 65.4958 58.6621L64.1712 58.477C63.7297 58.4076 63.2881 58.3382 62.8698 58.2688C61.9868 58.13 61.127 57.9911 60.2671 57.8292C56.8046 57.1813 53.3653 56.4178 49.9725 55.4923C46.5797 54.5899 43.2102 53.5719 39.8638 52.3919C38.2139 51.7903 36.5407 51.1887 34.9141 50.4946C33.2874 49.8699 31.6607 49.1295 30.127 48.2271Z" fill="#1D4557"/>
<path d="M26.7109 59.981C30.5453 60.328 34.2866 60.9759 38.028 61.6931C41.7694 62.4335 45.4643 63.2665 49.1592 64.2151C52.8309 65.1638 56.5025 66.2049 60.1277 67.385C61.9403 67.9634 63.7297 68.5881 65.519 69.2591C67.3084 69.9301 69.0745 70.6474 70.8174 71.4572C67.0063 70.9481 63.2649 70.254 59.5468 69.4905C55.8286 68.7038 52.1337 67.8477 48.4621 66.8991C44.7904 65.9504 41.142 64.9324 37.4935 63.7986C33.8684 62.6649 30.2432 61.4618 26.7109 59.981Z" fill="#1D4557"/>
</svg>
