<svg width="150" height="153" viewBox="0 0 150 153" fill="none" xmlns="http://www.w3.org/2000/svg">
<g clip-path="url(#clip0)">
<path d="M35.0273 76.8915C35.0273 103.357 59.9296 126.064 82.7599 126.064C105.59 126.064 127.482 103.357 126.896 76.1085C126.896 59.3521 109.812 29.0105 82.2126 29.0105C54.613 29.0105 35.0273 50.4258 35.0273 76.8915Z" fill="#FF775D"/>
<path d="M32.3298 59.4303C31.8998 64.4807 31.7825 69.5311 32.0562 74.5815C32.408 79.5928 33.1508 84.5649 34.519 89.3804C35.2227 91.7686 36.0827 94.1176 37.0601 96.3492C38.0765 98.6199 39.2493 100.773 40.6175 102.809C43.3149 106.92 46.716 110.482 50.6253 113.34C54.5346 116.198 58.9913 118.313 63.6433 119.565C65.9889 120.192 68.3736 120.622 70.7583 120.896C73.182 121.131 75.5667 121.171 77.9905 121.014C82.7989 120.701 87.5683 119.565 91.9467 117.647C96.3251 115.729 100.352 113.027 103.557 109.582C103.948 109.151 104.378 108.721 104.73 108.251C105.121 107.781 105.473 107.35 105.825 106.881L106.333 106.176L106.802 105.432C107.115 104.962 107.428 104.414 107.74 103.905C108.991 101.83 110.047 99.677 110.946 97.4454C112.744 92.9822 113.878 88.245 114.112 83.4687C114.66 73.8768 111.845 64.1283 106.372 56.1808C103.636 52.2266 100.195 48.7031 96.286 45.8842C92.3767 43.0654 87.9201 40.9904 83.2289 39.9334C80.8834 39.3852 78.4596 39.1503 76.0749 39.1112C73.6511 39.072 71.2274 39.3461 68.8818 39.8551C64.1124 40.873 59.5776 42.9479 55.4729 45.6885L55.5511 45.6493C54.4174 46.5498 53.3619 47.5285 52.3845 48.5856C51.4072 49.6427 50.5081 50.8172 49.7262 52.0308C48.1625 54.4582 47.0679 57.1987 46.5206 60.0567C45.9733 62.9147 46.0515 65.9293 46.7551 68.7872C47.107 70.2358 47.5761 71.6452 48.2407 72.9763C48.9053 74.3075 49.7262 75.5603 50.7426 76.6565C49.648 75.6386 48.7098 74.4249 47.9279 73.1329C47.1852 71.841 46.5597 70.4316 46.1296 68.983C45.2305 66.0859 44.9959 62.9538 45.3869 59.9001C45.7778 56.8464 46.7551 53.8709 48.3189 51.1695C49.1007 49.8384 49.9608 48.5465 50.9772 47.3719C51.9936 46.1974 53.0491 45.1012 54.2219 44.0442L54.261 44.005C58.4049 40.873 63.1351 38.4848 68.2172 37.1145C70.7583 36.449 73.3775 36.0575 76.0358 35.94C78.6941 35.8617 81.3525 36.0575 83.9326 36.5664C89.132 37.5452 94.0968 39.7376 98.5143 42.6739C102.893 45.6493 106.724 49.4469 109.812 53.7535C112.901 58.06 115.324 62.8755 116.81 67.9651C118.334 73.0546 118.999 78.4183 118.725 83.7427C118.452 89.0672 117.279 94.3525 115.246 99.2463C114.23 101.713 113.057 104.062 111.689 106.333C111.337 106.881 111.024 107.468 110.633 108.016L110.086 108.877L109.46 109.699C108.639 110.796 107.779 111.814 106.841 112.792C103.088 116.707 98.5143 119.722 93.6277 121.797C88.702 123.833 83.4244 124.968 78.1468 125.242C72.8693 125.477 67.5526 124.89 62.4705 123.324C57.4275 121.797 52.6582 119.33 48.4752 116.081C44.2923 112.871 40.813 108.799 38.1547 104.336C36.8255 102.104 35.6527 99.7553 34.7145 97.3279C33.7762 94.9006 33.0335 92.4341 32.4471 89.9285C31.2743 84.9172 30.8052 79.7494 30.8052 74.6598C30.9615 69.492 31.4307 64.4024 32.3298 59.4303Z" fill="#1D4557"/>
<path d="M35.4574 23.7643L39.6012 36.0967L31.3526 26.0351C30.5317 25.0171 30.6489 23.5294 31.6654 22.6681C32.6818 21.846 34.1673 21.9634 35.0274 22.9813C35.2228 23.2554 35.3792 23.4903 35.4574 23.7643Z" fill="#3B9BD8"/>
<path d="M89.7575 2.81883L86.2392 20.9846L85.1055 2.50562C85.0273 1.21366 86.0046 0.0782929 87.3338 -7.9968e-06C88.6629 -0.0783089 89.7575 0.900452 89.8357 2.23157C89.7966 2.42732 89.7966 2.62307 89.7575 2.81883Z" fill="#3B9BD8"/>
<path d="M142.924 50.1518L129.007 54.7324L140.774 45.9627C141.83 45.1797 143.315 45.4146 144.097 46.4325C144.879 47.4504 144.645 48.9772 143.628 49.7603C143.394 49.956 143.159 50.0735 142.924 50.1518Z" fill="#3B9BD8"/>
<path d="M146.208 123.715L126.192 108.799L148.671 119.722C149.844 120.309 150.313 121.719 149.765 122.893C149.179 124.068 147.772 124.538 146.599 123.989C146.482 123.911 146.325 123.833 146.247 123.755L146.208 123.715Z" fill="#3B9BD8"/>
<path d="M95.3478 150.964L92.6504 132.916L99.8826 149.672C100.391 150.886 99.8435 152.256 98.6316 152.804C97.4197 153.313 96.0515 152.765 95.5042 151.551C95.426 151.395 95.3869 151.16 95.3478 150.964Z" fill="#3B9BD8"/>
<path d="M34.4409 146.462L46.4425 128.57L38.5848 148.615C38.1157 149.829 36.7474 150.416 35.5355 149.946C34.3236 149.476 33.7372 148.106 34.2064 146.892C34.2846 146.775 34.3627 146.618 34.4409 146.462Z" fill="#3B9BD8"/>
<path d="M2.15021 89.5762L23.5732 87.8145L3.04935 94.1568C1.79837 94.5483 0.469205 93.8436 0.0782743 92.5908C-0.312656 91.338 0.391018 90.0069 1.642 89.6154C1.83746 89.6154 1.99383 89.5762 2.15021 89.5762Z" fill="#3B9BD8"/>
</g>
<defs>
<clipPath id="clip0">
<rect width="150" height="153" fill="white"/>
</clipPath>
</defs>
</svg>
