<svg width="111" height="151" viewBox="0 0 111 151" fill="none" xmlns="http://www.w3.org/2000/svg">
<g clip-path="url(#clip0)">
<path d="M66.9827 146.364C69.1801 143.498 65.1398 125.096 67.3726 119.717C68.613 116.745 97.0364 100.714 97.0364 71.4481C97.0364 42.1824 71.8736 28.3457 48.5182 28.3457C25.1628 28.3457 0 46.712 0 73.7837C0 100.855 29.0613 118.797 31.3649 122.725C32.1446 124.034 32.4636 147.674 35.5115 149.266C38.5594 150.858 64.7854 149.266 66.9827 146.364Z" fill="#FF775D"/>
<path d="M44.7971 150.823C43.2023 143.675 42.2454 136.42 40.9695 129.237C40.8277 128.352 40.6505 127.432 40.4733 126.547C40.4025 126.122 40.2961 125.662 40.1898 125.238C40.1544 125.025 40.0835 124.813 40.0126 124.671V124.636L39.9417 124.53C39.9063 124.459 39.8354 124.388 39.7645 124.318C39.2329 123.716 38.5241 123.114 37.8507 122.548C37.1774 121.947 36.4686 121.38 35.7597 120.814C32.9245 118.479 30.1247 116.143 27.4312 113.595C24.7377 111.047 22.186 108.393 19.8115 105.527C17.4369 102.66 15.2751 99.6169 13.4322 96.3258C11.5892 93.0701 10.0653 89.5667 9.03752 85.9218C8.00974 82.2768 7.44269 78.4549 7.47813 74.6331C7.51357 67.0247 9.64001 59.4163 13.503 52.8341C17.3661 46.2166 22.8948 40.7315 29.2741 36.5557C35.6534 32.4153 42.8833 29.5843 50.3967 28.4165C54.1534 27.8149 58.0519 27.7441 61.8086 27.9919C65.6007 28.2396 69.322 28.8412 73.0078 29.7966C80.344 31.6722 87.3967 34.9987 93.2799 39.9176C96.2214 42.3593 98.844 45.2258 101.006 48.4107C103.168 51.5956 104.869 55.0636 106.038 58.7085C107.208 62.3535 107.881 66.14 108.094 69.9265C108.307 73.713 108.094 77.5349 107.385 81.2506C106.676 84.9663 105.471 88.6113 103.912 92.0439C102.353 95.4765 100.403 98.7322 98.2061 101.74C96.0088 104.784 93.5279 107.579 90.9408 110.233C88.3182 112.852 85.5184 115.294 82.6477 117.629L80.5212 119.363C79.8124 119.93 79.1036 120.496 78.4657 121.062C78.3239 121.203 78.1467 121.345 78.0404 121.487C77.8986 121.628 77.7923 121.77 77.7569 121.805C77.7569 121.805 77.7569 121.77 77.7569 121.805L77.7214 121.911C77.686 121.982 77.6505 122.088 77.6151 122.159C77.5442 122.336 77.5088 122.513 77.4733 122.725C77.2961 123.504 77.1898 124.388 77.1544 125.238C77.0481 127.007 77.0835 128.776 77.1544 130.581C77.2253 132.386 77.3316 134.191 77.4379 136.031C77.5442 137.871 77.6505 139.676 77.7214 141.516C77.7569 142.436 77.7569 143.356 77.7214 144.312C77.686 145.267 77.6151 146.187 77.367 147.214C77.2961 147.461 77.1898 147.709 77.048 147.992C76.9063 148.24 76.6582 148.558 76.4456 148.735C75.9494 149.089 75.4887 149.301 75.0279 149.443C74.1065 149.761 73.185 149.938 72.2636 150.08C70.4207 150.363 68.5777 150.54 66.7703 150.646C59.3986 151.177 52.0979 151 44.7971 150.823C48.4475 150.717 52.0979 150.611 55.7482 150.434C59.3986 150.257 63.049 150.045 66.664 149.691C68.4714 149.514 70.2789 149.266 72.0509 148.912C72.9369 148.735 73.7875 148.523 74.5672 148.204C74.9571 148.063 75.3469 147.886 75.5595 147.674C75.6659 147.567 75.7367 147.497 75.8076 147.355C75.8785 147.214 75.914 147.037 75.9848 146.86C76.162 146.081 76.1975 145.196 76.1975 144.312C76.1975 143.427 76.162 142.542 76.0912 141.622C75.9494 139.818 75.7722 138.013 75.595 136.208C75.4178 134.403 75.2406 132.563 75.0988 130.723C74.9571 128.883 74.8507 127.042 74.9216 125.132C74.9571 124.176 75.0279 123.221 75.2051 122.23C75.2406 121.982 75.3115 121.734 75.3823 121.451C75.4178 121.31 75.4532 121.203 75.5241 121.062L75.595 120.85C75.6304 120.779 75.7013 120.637 75.7368 120.531C75.9494 120.177 76.1266 120 76.3038 119.788C76.481 119.576 76.6582 119.399 76.8354 119.257C77.5442 118.585 78.253 117.983 78.9264 117.382L81.0174 115.612C83.7818 113.241 86.4044 110.799 88.8852 108.181C91.3661 105.562 93.6697 102.837 95.6898 99.9C97.7099 96.9982 99.482 93.8841 100.9 90.6284C102.282 87.3727 103.31 84.0108 103.912 80.5428C104.515 77.0748 104.656 73.5714 104.408 70.068C104.16 66.5646 103.522 63.0966 102.424 59.8055C101.325 56.5145 99.7655 53.4003 97.7808 50.5339C95.7961 47.7029 93.3862 45.155 90.7281 42.9255C85.3412 38.5021 78.8555 35.4587 72.0155 33.7247C68.6132 32.84 65.1046 32.3092 61.5959 32.0969C58.0519 31.8491 54.5787 31.9553 51.1055 32.5215C44.1946 33.5831 37.4609 36.1311 31.5777 39.953C25.6946 43.7395 20.5912 48.7999 16.9408 54.7805C13.3258 60.7256 11.2703 67.6263 11.1285 74.6331C11.0222 78.1011 11.412 81.6045 12.2981 85.0017C13.1486 88.3989 14.4954 91.69 16.1256 94.8395C16.9408 96.3966 17.8622 97.9537 18.8191 99.4399C19.776 100.926 20.8392 102.413 21.9025 103.828C24.0998 106.694 26.4743 109.384 29.026 111.967C31.5777 114.551 34.2358 117.028 36.9293 119.469C37.6026 120.071 38.276 120.708 38.9494 121.345C39.6228 121.982 40.2961 122.619 40.9341 123.398C41.005 123.504 41.1113 123.61 41.1822 123.716L41.2885 123.893C41.3239 123.928 41.3594 123.999 41.3594 124.035L41.3948 124.141C41.5011 124.424 41.5366 124.671 41.6074 124.884C41.7138 125.344 41.7846 125.804 41.8555 126.264C41.9973 127.184 42.1036 128.069 42.2099 128.989C42.6352 132.634 43.0251 136.243 43.4149 139.888C43.6276 141.693 43.8048 143.533 44.0174 145.338C44.23 147.214 44.4781 149.054 44.7971 150.823Z" fill="#1D4557"/>
<path d="M61.7731 143.498C61.5958 140.03 61.4541 136.562 61.3478 133.129L61.206 127.927L61.1351 122.725C61.0288 115.789 61.0642 108.853 61.206 101.917C61.2769 98.4491 61.4541 94.9811 61.6667 91.4777C61.7731 89.7437 61.9148 88.0097 62.092 86.2403C62.2692 84.4709 62.4819 82.7369 62.8363 80.9321C63.0489 80.012 63.2261 79.1273 63.6514 78.0657C63.7577 77.7826 63.8995 77.4995 64.1476 77.181C64.2185 77.1102 64.2539 77.004 64.3602 76.9333L64.4665 76.7917L64.6083 76.6502L64.6792 76.5794C64.7146 76.544 64.6437 76.5794 64.7855 76.5086C64.8564 76.4732 64.9981 76.3671 64.9981 76.3671L65.1399 76.2963L65.3171 76.1901C65.7424 75.9778 66.1677 75.8008 66.593 75.6239C68.2587 74.9161 69.9598 74.2792 71.7319 73.7837C72.6179 73.536 73.5393 73.3237 74.4962 73.2175C75.4531 73.076 76.4455 73.0052 77.5441 73.1114C78.0757 73.1821 78.6428 73.2883 79.2453 73.4653C79.8123 73.6776 80.4148 73.9607 80.9819 74.4207C81.5135 74.8454 81.9742 75.447 82.2932 76.0486C82.6121 76.6502 82.7893 77.2871 82.8957 77.8887L82.9311 78.0303V78.1718C82.9311 78.8442 82.8602 79.552 82.6476 80.2951C82.4349 81.0382 81.9742 81.8168 81.3363 82.4184C80.6983 83.02 79.9541 83.4092 79.2098 83.6216C78.501 83.8339 77.8277 83.9047 77.1543 83.9401C75.8784 83.9754 74.7089 83.7985 73.6102 83.5508C72.5116 83.3031 71.4483 82.9492 70.4206 82.5599C69.3928 82.1707 68.4004 81.746 67.4081 81.2152C67.16 81.0736 66.9119 80.9675 66.6639 80.8259L66.274 80.6136L65.9196 80.4013C65.4589 80.1182 64.9981 79.8351 64.5374 79.5166C62.7299 78.2426 60.9934 76.7209 59.5757 74.8808C58.8669 73.9607 58.2644 72.9698 57.7683 71.9082C57.6265 71.6605 57.5202 71.3774 57.4139 71.0943C57.3075 70.8112 57.2012 70.5281 57.0949 70.3157L56.5633 68.8294C55.8545 66.8477 55.2165 64.866 54.614 62.8489C54.047 60.8318 53.5154 58.7793 53.161 56.656C52.8066 54.5327 52.5231 52.3387 52.7357 49.9677C52.842 48.7999 53.0901 47.5259 53.728 46.2166C54.047 45.5796 54.5077 44.9426 55.1457 44.4118C55.7481 43.881 56.4924 43.4563 57.2367 43.244C57.9809 42.9963 58.6897 42.9255 59.3985 42.8901C60.0719 42.8901 60.7098 42.9255 61.4186 43.1025C62.1275 43.244 62.8363 43.5271 63.5096 43.9518C64.183 44.3764 64.7501 44.9072 65.2108 45.5088C66.1322 46.7474 66.4867 48.0568 66.6993 49.2953C66.8765 50.5339 66.9119 51.7017 66.8411 52.8341C66.6993 55.099 66.2386 57.2222 65.707 59.3101C65.1399 61.398 64.4665 63.3797 63.7223 65.3614C63.3324 66.3523 62.9072 67.3431 62.4464 68.2986C62.1983 68.7941 61.9857 69.2895 61.7022 69.7849C61.6313 69.9265 61.5604 70.0326 61.4895 70.1742C61.3832 70.3157 61.3123 70.4573 61.2414 70.5634L60.7807 71.2712C59.4694 73.1114 57.8746 74.7746 56.0671 76.1193C54.2596 77.4641 52.3104 78.4903 50.3966 79.4104L50.3257 79.4458H50.2903C49.5106 79.7643 48.7663 79.9766 48.0221 80.1889C47.2778 80.4013 46.5336 80.5782 45.7893 80.7198C44.3008 81.0382 42.7414 81.2506 41.1466 81.3214C40.3315 81.3567 39.5163 81.3214 38.6658 81.2152C37.8152 81.109 36.9292 80.8967 36.0077 80.472C35.547 80.2597 35.1217 79.9766 34.6964 79.5873C34.2711 79.2335 33.9167 78.738 33.6686 78.2426C33.3851 77.7472 33.2434 77.2164 33.137 76.6855C33.0661 76.1547 33.0307 75.6947 33.0661 75.1285C33.1016 74.5977 33.2788 73.9961 33.5623 73.4299C33.8813 72.8637 34.3066 72.3682 34.8027 72.0497C35.7951 71.3774 36.8229 71.2004 37.7089 71.1296C38.5949 71.0589 39.4455 71.1296 40.2606 71.2712C41.0757 71.3774 41.8554 71.5897 42.5997 71.802C44.1236 72.2621 45.5412 72.8637 46.9234 73.6068C47.5968 73.9961 48.2702 74.4207 48.9435 74.9161C49.5815 75.447 50.2194 76.0132 50.7865 76.8271L50.8573 76.9333L50.8928 77.004C51.637 78.7734 52.0623 80.5074 52.4167 82.2414C52.7711 83.9754 53.0192 85.7448 53.1964 87.4788C53.5863 90.9468 53.7635 94.4503 53.8698 97.9183C53.9052 99.6523 53.9407 101.386 53.9407 103.12C53.9407 104.854 53.9052 106.588 53.8698 108.322C53.7989 111.79 53.6217 115.258 53.3382 118.691C53.2319 115.223 53.0901 111.79 52.9129 108.322C52.8066 106.588 52.7003 104.89 52.5939 103.156C52.4876 101.422 52.3458 99.723 52.1686 97.989C52.0269 96.2904 51.8142 94.5564 51.6016 92.8578C51.389 91.1592 51.1763 89.4606 50.8928 87.7619C50.6093 86.0633 50.2903 84.4001 49.865 82.7723C49.4397 81.1444 48.9435 79.552 48.2702 78.1718L48.3765 78.3842C48.093 77.9949 47.6677 77.6056 47.1361 77.2164C46.6399 76.8625 46.0729 76.5086 45.4704 76.1901C44.3008 75.5885 43.025 75.0931 41.7491 74.7746C40.4732 74.4561 39.1265 74.2438 38.0278 74.3853C37.4962 74.4561 37.0001 74.5977 36.8229 74.7746C36.7165 74.8454 36.6811 74.9161 36.6457 74.9869C36.6102 75.0577 36.5748 75.1993 36.5748 75.3762C36.5748 75.5531 36.5748 75.8008 36.6457 75.9778C36.6811 76.1901 36.752 76.3317 36.8229 76.4732C37.0001 76.7209 37.2127 76.9333 37.638 77.1456C38.0278 77.3225 38.5949 77.4641 39.1619 77.5349C39.7644 77.6056 40.4024 77.6056 41.0403 77.5702C42.3516 77.4995 43.6983 77.2871 45.0096 76.9686C45.683 76.8271 46.3209 76.6502 46.9943 76.4378C47.6322 76.2255 48.3056 76.0132 48.8727 75.8008L48.7309 75.8716C52.275 74.1022 55.3229 71.9082 57.3784 68.8294L57.7683 68.2632C57.8391 68.1571 57.91 68.0509 57.9455 68.0155L58.0872 67.7324C58.2999 67.3431 58.5125 66.9185 58.7252 66.4585C59.115 65.5738 59.5048 64.6537 59.8593 63.7336C60.5681 61.8934 61.206 60.0179 61.7022 58.1069C62.1983 56.2314 62.5882 54.3204 62.6945 52.4802C62.7654 51.5602 62.7299 50.6755 62.5882 49.8615C62.4464 49.0476 62.1983 48.3753 61.8794 47.9506C61.5604 47.5259 61.1706 47.2782 60.5681 47.1367C60.2845 47.0659 59.8947 47.0305 59.5403 47.0305C59.1859 47.0305 58.9024 47.0659 58.6543 47.1721C58.1935 47.349 57.91 47.5613 57.6265 48.0922C57.343 48.623 57.1658 49.4015 57.0949 50.2508C56.9531 51.9848 57.1303 53.8958 57.4847 55.8067C57.8037 57.7176 58.2999 59.664 58.8315 61.5749C59.3631 63.4859 60.001 65.3968 60.639 67.3078L61.1351 68.7233L61.3832 69.3603C61.4541 69.5726 61.5604 69.7495 61.6313 69.9618C61.9857 70.7404 62.4819 71.5189 63.0135 72.2267C64.0767 73.6422 65.4589 74.9161 67.0183 75.9778C67.4081 76.2609 67.798 76.5086 68.2232 76.7917L68.5068 76.9686L68.7903 77.1456C69.0029 77.2517 69.1801 77.3579 69.3928 77.4641C70.2079 77.8887 71.0939 78.278 71.98 78.6319C72.866 78.9858 73.752 79.2689 74.6734 79.4812C75.5595 79.6935 76.4455 79.8351 77.2252 79.7997C77.615 79.7997 77.9694 79.7289 78.2175 79.6581C78.501 79.5873 78.6428 79.4812 78.7491 79.375C78.8554 79.2689 78.9618 79.1273 79.0326 78.915C79.1035 78.7027 79.139 78.3488 79.1744 77.9949L79.2098 78.278C79.1744 78.0303 79.1035 77.7826 79.0326 77.641C78.9618 77.4641 78.8554 77.3579 78.7491 77.2518C78.501 77.0394 78.0049 76.8271 77.3669 76.7563C76.729 76.6855 75.9847 76.7209 75.2405 76.7917C74.4962 76.8979 73.7165 77.0394 72.9368 77.2518C71.3775 77.641 69.8181 78.2072 68.2941 78.8442C67.9043 78.9858 67.5144 79.1627 67.1955 79.3396L67.0891 79.4104H67.0537C67.0537 79.4104 67.1955 79.3396 67.2309 79.3042L67.3018 79.2689H67.3372L67.3727 79.2335C67.3372 79.2689 67.3018 79.375 67.2309 79.4812C66.9828 80.012 66.7702 80.8259 66.593 81.6045C66.2386 83.1969 65.955 84.8601 65.7424 86.5588C65.4943 88.2574 65.3171 89.956 65.1399 91.6546C64.7855 95.0872 64.5374 98.5199 64.2893 101.952C63.7932 108.818 63.4388 115.754 63.0844 122.654L61.7731 143.498Z" fill="#1D4557"/>
<path d="M10.4551 21.3036L19.6342 29.9736L8.11602 24.8423C7.01736 24.3469 6.52119 23.073 7.01736 22.0113C7.51353 20.9143 8.78939 20.4189 9.85261 20.9143C10.0653 20.9851 10.2779 21.1266 10.4551 21.3036Z" fill="#3B9BD8"/>
<path d="M59.93 2.40649L57.8036 19.3573L55.6771 2.40649C55.5354 1.23869 56.3505 0.177052 57.5201 0.000112286C58.6896 -0.141439 59.7528 0.672482 59.93 1.84028C59.9655 2.05261 59.9655 2.22955 59.93 2.40649Z" fill="#3B9BD8"/>
<path d="M109.795 24.807L97.0718 31.106L107.35 21.339C108.2 20.525 109.582 20.5604 110.397 21.4097C111.213 22.259 111.177 23.6392 110.327 24.4531C110.149 24.5946 109.972 24.7008 109.795 24.807Z" fill="#3B9BD8"/>
<path d="M31.1875 137.341C32.109 137.057 33.0659 136.774 34.0227 136.562C34.9796 136.35 35.9365 136.137 36.8934 135.96C37.8503 135.783 38.8072 135.642 39.7641 135.5C40.721 135.359 41.6779 135.253 42.6703 135.146C46.5333 134.757 50.3963 134.545 54.2593 134.509C58.1224 134.474 61.9854 134.58 65.8484 134.863C69.7114 135.146 73.5745 135.571 77.4021 136.385C73.539 137.057 69.676 137.411 65.8484 137.659C61.9854 137.907 58.1578 138.013 54.3302 138.048C50.5026 138.084 46.6396 138.048 42.812 137.907C38.9136 137.836 35.086 137.659 31.1875 137.341Z" fill="#3B9BD8"/>
</g>
<defs>
<clipPath id="clip0">
<rect width="111" height="151" fill="white"/>
</clipPath>
</defs>
</svg>
