<svg width="133" height="120" viewBox="0 0 133 120" fill="none" xmlns="http://www.w3.org/2000/svg">
<g clip-path="url(#clip0)">
<path d="M10.1762 116.736C13.5781 119.853 121.286 117.706 126.374 113.707C132.497 108.885 126.226 30.0514 122.587 26.2876C120.457 24.0529 11.8032 21.083 6.24179 25.876C0.680402 30.6689 4.82186 111.826 10.1762 116.736Z" fill="#FF775D"/>
<path d="M2.10031 27.4051C1.627 30.2279 1.41993 33.0507 1.24244 35.903C1.06495 38.7552 0.976201 41.6075 0.917037 44.4303C0.79871 50.1348 0.857874 55.8099 1.00578 61.5144C1.18327 67.2188 1.41993 72.8939 1.80449 78.569C2.18906 84.2441 2.69195 89.9192 3.4315 95.5354C3.81606 98.3289 4.23021 101.152 4.85142 103.886C5.17682 105.239 5.53181 106.592 6.00512 107.827C6.12344 108.121 6.27135 108.415 6.41926 108.679C6.56717 108.944 6.74466 109.179 6.86299 109.297C6.74466 109.209 6.83341 109.267 6.95174 109.297C7.07006 109.326 7.21797 109.385 7.36588 109.414C7.6617 109.473 8.01668 109.532 8.34208 109.591C9.70285 109.767 11.1228 109.885 12.5427 109.944C13.9626 110.032 15.3826 110.091 16.8025 110.12C19.6424 110.208 22.5118 110.238 25.3812 110.267C36.8294 110.355 48.2776 110.179 59.7553 109.885C71.2035 109.561 82.6517 109.179 94.0999 108.532C99.8092 108.209 105.518 107.856 111.198 107.297C112.618 107.15 114.038 107.003 115.428 106.827C116.819 106.65 118.209 106.445 119.54 106.18C119.866 106.121 120.191 106.033 120.487 105.945C120.783 105.856 121.079 105.768 121.256 105.68C121.345 105.651 121.404 105.592 121.315 105.651C121.315 105.651 121.345 105.621 121.374 105.592C121.463 105.474 121.581 105.239 121.67 104.974C121.877 104.445 122.025 103.828 122.173 103.181C122.321 102.534 122.41 101.857 122.528 101.181C122.913 98.4759 123.061 95.6531 123.149 92.8302C123.238 90.0074 123.268 87.1845 123.238 84.3617C123.179 78.6866 122.972 73.0115 122.676 67.3365C122.38 61.6614 121.966 55.9863 121.493 50.3406C120.99 44.6949 120.457 39.0199 119.747 33.4036C119.392 30.6102 118.978 27.7873 118.475 25.0527C118.357 24.3764 118.209 23.7001 118.061 23.0238C117.913 22.3769 117.736 21.7006 117.529 21.1419C117.47 20.9949 117.44 20.8773 117.381 20.7596C117.351 20.6714 117.292 20.5832 117.292 20.6126C117.292 20.642 117.322 20.6714 117.351 20.6714C117.529 20.8479 117.677 20.9361 117.736 20.9655C117.854 21.0243 117.825 20.9949 117.795 20.9949C117.736 20.9655 117.588 20.9361 117.44 20.9361C116.848 20.8478 116.138 20.789 115.458 20.7302C112.677 20.5538 109.808 20.495 106.968 20.4656C104.128 20.4362 101.259 20.4362 98.3892 20.4362C92.6799 20.4656 86.9411 20.5538 81.2022 20.642C75.4633 20.7302 69.754 20.8479 64.0151 20.9949C52.567 21.2889 41.0892 21.6712 29.6706 22.2005C26.8012 22.3475 23.9613 22.4945 21.1214 22.6709C19.7015 22.7591 18.2816 22.8768 16.8912 23.0238C16.5363 23.0532 16.2109 23.112 15.8855 23.1414C15.708 23.1708 15.5601 23.2002 15.4121 23.2296C15.2642 23.259 15.1163 23.2884 15.0572 23.3178C15.0572 23.3178 15.0572 23.3178 15.1163 23.2884C15.1755 23.2884 15.4417 23.0826 15.4417 23.0532C15.5305 22.965 15.5009 22.965 15.5009 22.9944C15.4713 23.0532 15.4121 23.1708 15.3826 23.2884C15.2938 23.5531 15.2051 23.8765 15.1163 24.2C14.8205 25.4938 14.5839 26.8758 14.4064 28.2872C14.2289 29.6692 14.0514 31.0806 13.9331 32.4921C13.6668 35.2855 13.5189 38.1083 13.4597 40.9312C13.4006 43.754 13.4597 46.5768 13.7556 49.3115C13.9035 50.6641 14.1401 52.0461 14.5543 53.2223C14.6726 53.5163 14.7909 53.781 14.9093 54.0162C15.0276 54.2514 15.1755 54.4279 15.2938 54.5161C15.353 54.5749 15.3826 54.5749 15.4417 54.6043C15.5009 54.6337 15.6488 54.6631 15.7967 54.6925C16.0925 54.7513 16.4179 54.8101 16.7729 54.8689C18.1337 55.0454 19.5536 55.163 20.9735 55.2806C22.3935 55.3688 23.8134 55.457 25.2333 55.5452C28.0732 55.6923 30.9426 55.7805 33.8121 55.8687C45.2602 56.1921 56.738 56.2803 68.1862 56.2215C73.925 56.1921 79.6344 56.1039 85.3732 55.9569C88.2427 55.8981 91.0825 55.7805 93.952 55.6629C96.8214 55.5452 99.6613 55.3688 102.501 55.1336C103.921 54.9865 105.341 54.8395 106.672 54.5749C106.998 54.5161 107.323 54.4279 107.56 54.3102C107.767 54.222 108.003 54.0456 108.21 53.8692C108.654 53.4575 109.009 52.9282 109.335 52.3401C109.956 51.164 110.429 49.8113 110.784 48.4881C111.139 47.1355 111.464 45.7535 111.701 44.3715C112.204 41.5781 112.559 38.7552 112.825 35.9324C113.091 33.1096 113.298 30.2573 113.387 27.4051C113.535 33.1096 113.417 38.814 112.707 44.5185C112.529 45.9299 112.293 47.3708 111.967 48.7822C111.642 50.1936 111.228 51.605 110.577 52.987C110.252 53.6633 109.837 54.3396 109.246 54.9571C108.95 55.2512 108.595 55.5158 108.151 55.7511C107.737 55.9275 107.353 56.0157 106.998 56.1039C105.518 56.4274 104.099 56.5744 102.649 56.7508C99.7796 57.0449 96.9101 57.2213 94.0407 57.3683C91.1713 57.5153 88.3018 57.633 85.4324 57.7506C79.6935 57.9564 73.9546 58.074 68.2158 58.1328C56.738 58.2799 45.2602 58.2799 33.7825 58.0446C30.913 57.9858 28.0436 57.8976 25.1742 57.78C23.7246 57.7212 22.3047 57.6624 20.8552 57.5447C19.4057 57.4565 17.9858 57.3389 16.4771 57.1625C16.0925 57.1037 15.7375 57.0449 15.3234 56.9567C15.1163 56.9272 14.9093 56.8684 14.643 56.7802C14.3472 56.692 14.081 56.5156 13.8739 56.3392C13.4302 55.9863 13.1343 55.5746 12.9273 55.2218C12.6906 54.8395 12.5131 54.4573 12.3948 54.075C11.8327 52.5754 11.5961 51.1051 11.389 49.6349C11.0044 46.7239 10.9453 43.8128 10.9453 40.9312C10.9749 38.0495 11.0932 35.1679 11.3299 32.2862C11.4482 30.8454 11.5961 29.4046 11.7736 27.9638C11.9511 26.5229 12.1581 25.0821 12.4835 23.6119C12.5723 23.2296 12.661 22.8768 12.8089 22.4651C12.8681 22.2593 12.9569 22.0534 13.0752 21.7888C13.1639 21.6418 13.2231 21.4948 13.4302 21.2889C13.4893 21.2007 13.8147 20.9361 13.9626 20.8773C14.081 20.8184 14.1993 20.789 14.2585 20.7596C14.5543 20.6714 14.7613 20.6126 14.9684 20.5832C15.1755 20.5538 15.353 20.5244 15.5601 20.495C15.9446 20.4362 16.2996 20.3774 16.6842 20.348C18.1337 20.1715 19.5832 20.0539 21.0327 19.9363C23.9021 19.7011 26.7716 19.5246 29.641 19.3482C41.1188 18.7013 52.5965 18.2602 64.0447 17.8486C75.5225 17.4663 87.0002 17.1723 98.478 17.0841C101.347 17.0547 104.217 17.0547 107.116 17.0841C110.015 17.1135 112.884 17.1429 115.813 17.3487C116.553 17.4075 117.292 17.4663 118.12 17.5839C118.327 17.6133 118.534 17.6428 118.83 17.731C118.978 17.7604 119.126 17.8192 119.392 17.9368C119.511 17.9956 119.747 18.1132 119.984 18.3779C120.073 18.4661 120.132 18.5543 120.221 18.6425C120.457 18.966 120.546 19.2012 120.664 19.4364C120.753 19.6423 120.842 19.8775 120.901 20.0539C121.197 20.8478 121.374 21.583 121.552 22.2887C121.729 23.0238 121.877 23.7295 122.025 24.4646C122.558 27.3169 122.972 30.1691 123.356 33.0213C124.096 38.7258 124.688 44.4009 125.131 50.1054C125.605 55.8099 125.989 61.5144 126.285 67.2188C126.581 72.9233 126.788 78.6572 126.817 84.3911C126.847 87.2728 126.817 90.125 126.699 93.0066C126.581 95.8883 126.433 98.7699 126.019 101.71C125.9 102.446 125.782 103.181 125.634 103.945C125.457 104.71 125.279 105.445 124.954 106.268C124.776 106.68 124.599 107.091 124.273 107.562C124.185 107.68 124.096 107.797 123.978 107.915C123.889 108.032 123.741 108.15 123.593 108.297C123.238 108.591 122.942 108.709 122.706 108.797C122.232 109.003 121.848 109.091 121.434 109.209C121.049 109.297 120.664 109.385 120.28 109.473C118.801 109.767 117.351 109.944 115.902 110.12C114.452 110.297 113.003 110.444 111.583 110.561C105.814 111.061 100.075 111.384 94.3365 111.679C82.8588 112.208 71.381 112.561 59.9033 112.708C48.4255 112.855 36.9477 112.914 25.4404 112.649C22.571 112.59 19.7015 112.472 16.8025 112.355C15.353 112.296 13.9331 112.208 12.4835 112.09C11.034 111.973 9.58452 111.855 8.13501 111.62C7.75045 111.561 7.39546 111.502 7.0109 111.414C6.80383 111.355 6.62634 111.326 6.38968 111.237C6.27135 111.208 6.15303 111.149 6.0347 111.09C5.97553 111.061 5.88679 111.032 5.79804 110.973C5.73888 110.943 5.59097 110.826 5.53181 110.767C5.14724 110.385 4.91059 110.002 4.70351 109.65C4.49644 109.297 4.34853 108.915 4.20062 108.562C3.63857 107.121 3.31317 105.709 3.01735 104.298C2.42571 101.446 2.04115 98.6229 1.71575 95.7707C1.06495 90.0662 0.709964 84.3617 0.443728 78.6572C0.147909 72.9527 0 67.2483 0 61.5438C0 55.8393 0.0887456 50.1348 0.354982 44.4303C0.502892 41.5781 0.680383 38.7258 0.946619 35.903C1.24244 33.0507 1.56784 30.1985 2.10031 27.4051Z" fill="#1D4557"/>
<path d="M44.4615 27.3167C44.1953 26.5228 44.0178 25.7289 43.8699 24.9055C43.7219 24.0822 43.574 23.2883 43.4557 22.465C43.2191 20.8183 43.0416 19.201 42.8937 17.5544C42.7457 15.9077 42.6274 14.2611 42.5387 12.6144C42.5091 12.2028 42.5091 11.7911 42.4795 11.35C42.4795 11.1442 42.4795 10.9384 42.4795 10.6443V10.5267V10.4973V10.5267V10.5561V10.5267L42.4203 10.2621C42.3908 10.1444 42.3908 10.0268 42.3612 9.8504C42.3612 9.67397 42.3316 9.49754 42.4203 9.17409C42.4499 9.08588 42.4499 8.99766 42.5091 8.88005C42.5387 8.82124 42.5683 8.76243 42.5978 8.70362C42.6274 8.64481 42.6866 8.5566 42.7162 8.49779L42.8049 8.40957C42.7753 8.40957 42.9528 8.23315 43.1007 8.14493C43.3078 8.02731 43.3374 8.02731 43.367 7.99791C43.3965 7.96851 43.4557 7.96851 43.4853 7.9391C43.574 7.9097 43.6628 7.88029 43.6924 7.88029C43.8699 7.82148 43.9882 7.82148 44.1065 7.79208C44.5502 7.70386 44.9644 7.61565 45.4081 7.55684C46.2364 7.40982 47.0647 7.3216 47.893 7.20399C48.7213 7.08637 49.5496 6.99815 50.3779 6.90994L52.8627 6.6453L55.3476 6.41006C57.0042 6.26304 58.6608 6.14542 60.2878 6.0278C61.9444 5.93959 63.601 5.85138 65.2575 5.79257C66.9141 5.73376 68.5707 5.67495 70.2273 5.70435H72.7122C73.5405 5.70435 74.3687 5.73376 75.2266 5.76316C76.8832 5.82197 78.5694 5.91019 80.2555 6.08661C81.1134 6.17483 81.9417 6.29245 82.7996 6.41006C83.2433 6.46887 83.6574 6.55709 84.1012 6.6747C84.5449 6.76292 84.9886 6.88054 85.4619 7.05696C85.6986 7.14518 85.9648 7.23339 86.2607 7.40982C86.4086 7.49803 86.5565 7.58625 86.734 7.73327C86.9115 7.88029 87.1185 8.05672 87.296 8.40957C87.3256 8.49779 87.3848 8.586 87.4143 8.67421L87.4439 8.73302V8.76243V8.79183L87.4735 8.96826L87.5622 9.29171C87.6214 9.52695 87.651 9.73278 87.6806 9.93861C87.8285 10.7913 87.9468 11.6147 88.0356 12.438C88.2131 14.0847 88.361 15.7313 88.4497 17.378C88.5385 19.0246 88.5976 20.6713 88.6272 22.3179C88.6272 23.9646 88.6272 25.6406 88.4201 27.2579C88.2426 25.6112 87.9468 24.0234 87.651 22.4061C87.3552 20.7889 87.0594 19.201 86.734 17.5838C86.5861 16.7899 86.4086 15.9959 86.2311 15.202C86.0536 14.4081 85.8761 13.6142 85.6986 12.8203C85.4915 12.0263 85.314 11.2618 85.107 10.4973C85.0478 10.3209 84.9886 10.115 84.9295 9.93861L84.8407 9.67397L84.8111 9.55635V9.52695V9.49754V9.52695C84.8111 9.58576 84.8407 9.61516 84.8703 9.67397C84.959 9.82099 85.0182 9.8798 85.0182 9.8798C85.0478 9.90921 84.9886 9.8798 84.959 9.8798C84.8703 9.8504 84.752 9.82099 84.6041 9.79159C83.9828 9.64456 83.1841 9.58576 82.415 9.55635C81.6459 9.49754 80.8472 9.49754 80.0485 9.49754C78.451 9.46814 76.824 9.52695 75.197 9.55635C71.943 9.64456 68.6594 9.76218 65.4054 9.8798L45.7631 10.6149C45.3785 10.6443 44.9644 10.6443 44.6094 10.6737C44.5207 10.6737 44.4319 10.7031 44.4023 10.7031C44.4023 10.7031 44.4023 10.7031 44.4615 10.6737C44.4911 10.6737 44.5207 10.6443 44.5502 10.6443C44.5798 10.6443 44.5798 10.6443 44.7869 10.5267C44.9348 10.4385 45.0827 10.2621 45.0531 10.2915C45.0827 10.2621 45.0827 10.2621 45.1123 10.2327C45.1419 10.1738 45.1715 10.1444 45.201 10.0856C45.2306 10.0562 45.2306 10.0268 45.2602 9.99742C45.2898 9.90921 45.2898 9.90921 45.2898 9.8504C45.3194 9.73278 45.2898 9.73278 45.2898 9.79159C45.2898 9.82099 45.2898 9.90921 45.2898 9.99742V10.3503V10.4679V10.6443V10.7619V10.8502V10.8796C45.2602 10.9972 45.2602 11.203 45.2306 11.4088C45.201 11.7911 45.1715 12.2028 45.1419 12.6144C45.0235 14.2317 44.9348 15.8783 44.8461 17.4956C44.7573 19.1422 44.6686 20.7595 44.6094 22.4061C44.5798 23.2295 44.5502 24.0528 44.5207 24.8467C44.4023 25.67 44.4023 26.4934 44.4615 27.3167Z" fill="#3B9BD8"/>
<path d="M43.0713 5.17516C43.2784 4.7341 43.6925 4.41065 44.0771 4.146C44.4912 3.88136 44.9054 3.64613 45.3491 3.41089C46.207 2.96982 47.124 2.64637 48.041 2.35233C49.8751 1.76424 51.7388 1.35257 53.6024 1.02912C57.3593 0.382221 61.1458 0.0587712 64.9323 -3.78853e-05C68.7188 -0.058847 72.5052 0.11758 76.2917 0.705672C78.1849 0.999717 80.0486 1.38198 81.8827 1.97007C82.7997 2.26411 83.7167 2.61697 84.5746 3.11685C84.9888 3.35208 85.4029 3.61672 85.7875 3.96958C86.1425 4.29303 86.4679 4.70469 86.5862 5.17516C86.32 4.7635 85.9354 4.52826 85.5508 4.32243C85.1367 4.1166 84.7225 3.96958 84.2788 3.88136C83.3913 3.64613 82.5039 3.4991 81.5868 3.41089C79.7824 3.20506 77.9187 3.08744 76.0846 3.02863C72.3869 2.91101 68.6892 2.91101 64.9914 2.96982C61.2937 3.02863 57.596 3.14625 53.8982 3.35208C52.0642 3.4403 50.2005 3.58732 48.3664 3.79315C47.4494 3.88136 46.5324 4.02839 45.6449 4.20481C45.2012 4.29303 44.7575 4.41065 44.3137 4.55767C43.8404 4.67529 43.4263 4.85171 43.0713 5.17516Z" fill="white"/>
<path d="M65.7606 82.2739C63.9561 79.157 42.8938 50.664 59.0455 48.1352C65.2281 47.5177 66.2931 56.0156 66.6185 59.4266C67.4172 56.4567 71.1149 50.0171 74.6943 49.6054C78.3033 49.1938 79.9895 52.987 78.7766 57.9857C77.8892 64.0137 67.4763 79.4511 65.7606 82.2739Z" fill="#3B9BD8"/>
<path d="M65.7603 78.3336C65.0799 77.4221 64.3404 76.5105 63.6304 75.599C62.9205 74.6874 62.2401 73.7465 61.5597 72.8349C60.1989 70.9531 58.9269 69.0418 57.6845 67.0717C56.4716 65.1015 55.3179 63.0432 54.3417 60.9261C53.8388 59.8675 53.3951 58.7796 52.981 57.6328C52.5668 56.5154 52.2118 55.3392 51.9752 54.1336C51.7385 52.9281 51.5906 51.6637 51.6794 50.3405C51.7385 49.6641 51.8568 48.9878 52.0639 48.3115C52.271 47.6352 52.5964 46.9589 53.0105 46.3414C53.4247 45.7239 53.9572 45.1652 54.5488 44.7242C55.1404 44.2831 55.7616 43.9303 56.4124 43.6656C56.7378 43.5186 57.0632 43.4304 57.3886 43.3128C57.714 43.2245 58.0395 43.1363 58.3649 43.0775L58.8677 42.9893C59.0452 42.9599 59.2523 42.9599 59.4298 42.9305C59.6369 42.9011 59.8144 42.9011 59.9919 42.9305C60.1693 42.9305 60.3764 42.9305 60.5539 42.9599C61.323 43.0481 62.0922 43.254 62.8021 43.6068C63.5121 43.9597 64.1333 44.4301 64.6362 44.9594C65.6716 46.018 66.3224 47.2236 66.8253 48.4292C67.2986 49.6347 67.624 50.8403 67.8606 52.0459C68.0973 53.2515 68.2452 54.4571 68.3635 55.6333L64.9024 55.3392C65.2278 54.163 65.6716 53.2221 66.1745 52.2517C66.6478 51.2814 67.2098 50.3699 67.831 49.4877C68.4523 48.6056 69.1326 47.7529 69.9313 46.9295C70.7301 46.1356 71.6767 45.3711 72.9191 44.8418C73.067 44.783 73.2445 44.7242 73.422 44.6654C73.5995 44.6066 73.777 44.5772 73.9545 44.5478C74.132 44.5183 74.339 44.4889 74.487 44.4889L74.9898 44.4595H75.2561L75.5223 44.4889C75.6998 44.5183 75.8773 44.5183 76.0548 44.5478C76.2323 44.5772 76.4098 44.636 76.5873 44.6948C76.7648 44.7536 76.9422 44.783 77.1197 44.8712C77.2972 44.9594 77.4451 45.0476 77.6226 45.1064C77.7705 45.1947 77.9184 45.3123 78.0959 45.4299C78.2438 45.5475 78.3918 45.6357 78.5101 45.7827C78.6284 45.9004 78.7763 46.0474 78.8947 46.165C79.3384 46.7237 79.6934 47.3118 79.93 47.8999C80.4033 49.1055 80.5217 50.2816 80.4921 51.4284C80.4625 52.5752 80.2554 53.6632 79.9892 54.7217L80.0188 54.6041C79.7525 55.9273 79.3088 57.0447 78.8355 58.1327C78.3622 59.2206 77.8297 60.2498 77.2676 61.279C76.7056 62.3081 76.1435 63.3079 75.5519 64.2782C74.9603 65.2486 74.339 66.2189 73.7178 67.1893C72.4458 69.1006 71.1738 70.9825 69.8426 72.8349L67.831 75.599L65.7603 78.3336ZM65.7603 78.3336C66.2632 77.3044 66.8253 76.3047 67.3577 75.3049L68.9847 72.3057C70.0793 70.3062 71.1442 68.3066 72.1796 66.2777C73.2149 64.2782 74.2207 62.2493 75.1378 60.191C75.5815 59.1618 76.0252 58.1621 76.4098 57.1329C76.7648 56.1038 77.0902 55.0746 77.2085 54.163L77.2381 54.0454C77.4156 53.1633 77.5043 52.2518 77.4747 51.399C77.4451 50.5463 77.2972 49.723 77.031 49.0761C76.8831 48.7526 76.7056 48.488 76.4985 48.2527C76.3802 48.1645 76.2914 48.0469 76.1731 47.9881C76.114 47.9587 76.0844 47.8999 76.0252 47.8705C75.966 47.8411 75.9069 47.8117 75.8477 47.8117C75.7886 47.7823 75.7294 47.7823 75.6702 47.7528C75.6111 47.7528 75.5519 47.7234 75.4927 47.694C75.4336 47.694 75.3448 47.694 75.2857 47.694H75.1673H75.049C74.9603 47.694 74.9011 47.694 74.8124 47.7234C74.7236 47.7234 74.694 47.7528 74.6053 47.7528C74.5461 47.7528 74.487 47.7823 74.3982 47.8117L74.1911 47.8999C73.5995 48.1645 72.9487 48.6938 72.3571 49.3113C71.7654 49.9288 71.2034 50.6639 70.7005 51.399C70.1976 52.1635 69.7243 52.9575 69.3101 53.7808C68.896 54.6041 68.541 55.4568 68.3339 56.2214L65.8195 65.3368L64.8729 55.9273C64.7545 54.8099 64.6362 53.7514 64.4291 52.6928C64.2221 51.6343 63.9558 50.6345 63.6008 49.6936C63.2459 48.7526 62.7725 47.9293 62.2105 47.3412C61.6484 46.7531 60.9976 46.4002 60.2285 46.312C60.1398 46.2826 60.0214 46.2826 59.9327 46.2826C59.8439 46.2826 59.7256 46.2532 59.6369 46.2826C59.5481 46.2826 59.4594 46.2826 59.3411 46.2826L59.0156 46.3414C58.8086 46.3708 58.5423 46.4296 58.3353 46.4885C58.0986 46.5473 57.8915 46.6061 57.6845 46.6943C56.8266 47.0177 56.1462 47.4882 55.6729 48.1351C55.17 48.782 54.9038 49.6347 54.7854 50.5757C54.6671 51.546 54.7263 52.5752 54.8742 53.6338C55.17 55.7509 55.8504 57.868 56.6195 59.9557C57.0041 61.0143 57.4478 62.0435 57.8915 63.0726C58.3353 64.1018 58.8382 65.131 59.3411 66.1601C60.3173 68.2184 61.4118 70.2179 62.5063 72.2469C63.5417 74.3346 64.7249 76.3047 65.7603 78.3336Z" fill="#1D4557"/>
<path d="M106.199 119.294C109.482 118.765 112.736 118.383 115.961 117.971C117.588 117.765 119.185 117.53 120.783 117.295C122.38 117.03 123.948 116.765 125.457 116.413C125.841 116.324 126.196 116.207 126.551 116.119L127.084 115.942L127.35 115.854L127.468 115.795L127.557 115.766C128.089 115.53 128.563 115.178 128.977 114.678C129.391 114.178 129.716 113.56 130.012 112.884C130.308 112.208 130.515 111.473 130.692 110.737C131.077 109.238 131.284 107.65 131.491 106.033L131.787 103.592C131.876 102.769 131.994 101.946 132.142 101.152C132.438 102.769 132.704 104.416 132.822 106.062C132.941 107.709 132.97 109.385 132.763 111.12C132.674 111.972 132.497 112.825 132.201 113.707C131.935 114.56 131.55 115.442 130.959 116.236C130.367 117.03 129.568 117.765 128.592 118.177C128.119 118.383 127.734 118.5 127.291 118.647C126.876 118.794 126.433 118.883 126.019 119C124.332 119.412 122.676 119.618 121.019 119.794C119.363 119.941 117.706 120.029 116.049 120.029C112.795 120 109.482 119.823 106.199 119.294Z" fill="white"/>
</g>
<defs>
<clipPath id="clip0">
<rect width="133" height="120" fill="white"/>
</clipPath>
</defs>
</svg>
