<svg width="154" height="156" viewBox="0 0 154 156" fill="none" xmlns="http://www.w3.org/2000/svg">
<path d="M64.5162 3.63359C66.5527 -0.489939 94.3713 -0.775728 99.2996 1.18397C106.59 4.04186 101.906 47.5634 107.405 49.5231C112.903 51.4828 145.243 51.3195 150.701 56.0963C156.159 60.8731 154.081 90.3502 149.52 93.7388C146.18 96.2292 110.623 93.4122 107.446 98.5156C104.676 103.007 110.623 140.404 105.205 144.609C100.359 148.365 70.2999 144.895 69.2002 140.282C66.7971 130.075 66.1861 107.906 62.1539 99.0871C58.4474 90.9626 26.1486 94.2695 21.0166 91.085C17.1473 88.5946 14.2554 57.0761 24.3565 55.933C38.612 54.2999 51.2382 56.2596 65.005 54.8715C65.005 54.8715 62.439 7.83877 64.5162 3.63359Z" fill="#3B9BD8"/>
<path d="M54.7412 57.0353L39.4675 57.2803C34.3762 57.3619 29.285 57.4436 24.2345 57.6885C19.1432 57.9335 14.0927 58.2601 9.08292 58.8317L8.14613 58.9542L7.6981 58.995C7.57591 58.995 7.45372 59.0358 7.33153 59.0766C6.84277 59.1991 6.39474 59.4441 5.98744 59.7707C5.17285 60.4239 4.5619 61.4038 4.11387 62.5061C3.21781 64.6699 2.81051 67.1604 2.56613 69.6508C2.36248 72.1413 2.36248 74.6317 2.48467 77.163C2.60686 79.6535 2.81051 82.1847 3.17708 84.6752C3.54365 87.1656 3.99168 89.6152 4.60263 92.024C4.92847 93.208 5.25431 94.392 5.70233 95.4943C5.90598 96.0251 6.15036 96.5558 6.43547 96.9641C6.55766 97.1682 6.72058 97.3315 6.76131 97.4132L6.80204 97.454C6.76131 97.454 6.84277 97.454 6.84277 97.4949C6.92423 97.5357 7.00569 97.5765 7.12788 97.6173C7.57591 97.7806 8.14613 97.9031 8.71635 98.0256C9.28657 98.1481 9.89752 98.1889 10.5085 98.2706C11.7304 98.393 12.993 98.4747 14.2149 98.5563C16.7402 98.6788 19.2654 98.7605 21.7907 98.8421C26.8819 99.0054 31.9732 99.1279 37.1459 99.577C39.7118 99.7812 42.2778 100.067 44.8846 100.516C46.1879 100.761 47.4913 101.047 48.7946 101.414C50.098 101.823 51.4421 102.272 52.7454 103.088C53.3971 103.496 54.0895 104.027 54.6597 104.721C54.8227 104.885 54.9449 105.089 55.067 105.293C55.1485 105.415 55.1892 105.497 55.2707 105.619C55.3114 105.742 55.3929 105.864 55.4336 105.905C55.5965 106.232 55.7595 106.599 55.8816 106.926C56.4111 108.273 56.737 109.58 57.0628 110.886C57.6738 113.499 58.0403 116.071 58.3662 118.602C59.0179 123.747 59.4252 128.85 59.8325 133.913C60.0361 136.444 60.2398 138.975 60.5249 141.506C60.6471 142.772 60.81 143.997 60.9729 145.222C61.0544 145.834 61.1765 146.406 61.2987 146.977C61.3395 147.263 61.4209 147.508 61.5024 147.753C61.5838 147.998 61.6653 148.202 61.706 148.284C61.706 148.324 61.7468 148.324 61.6246 148.202C61.6246 148.161 61.5431 148.12 61.5024 148.079C61.4617 148.039 61.4617 148.039 61.4209 147.998C61.3802 147.957 61.3802 147.957 61.3802 147.957C61.4617 147.998 61.706 148.079 61.9097 148.161C62.3984 148.324 62.9687 148.488 63.5389 148.61C64.72 148.896 65.9012 149.141 67.1231 149.345C69.5669 149.753 72.0514 150.121 74.536 150.407C77.0205 150.692 79.5458 150.937 82.0303 151.101C84.5148 151.264 87.0401 151.386 89.4839 151.346C90.7058 151.346 91.9277 151.305 93.1088 151.223C94.29 151.142 95.4712 150.978 96.4487 150.733C96.6931 150.652 96.8967 150.611 97.1004 150.529C97.2226 150.488 97.2633 150.447 97.3447 150.407C97.3855 150.366 97.4669 150.325 97.5077 150.325C97.5484 150.284 97.5077 150.325 97.5484 150.284C97.5484 150.284 97.5891 150.243 97.6299 150.202C97.7113 150.121 97.7928 149.958 97.8742 149.794C98.0372 149.427 98.2001 148.937 98.3223 148.447C98.4445 147.916 98.5666 147.385 98.6481 146.814C98.9739 144.487 99.0554 141.996 99.0554 139.506C99.0554 137.015 98.9739 134.484 98.8925 131.953C98.6888 126.89 98.3223 121.828 98.1593 116.643C98.1186 115.336 98.0779 114.071 98.0779 112.723C98.0779 111.417 98.1186 110.07 98.2408 108.681C98.3223 107.987 98.4037 107.253 98.6074 106.395C98.6481 106.191 98.7296 105.946 98.8518 105.701C98.9332 105.456 99.0554 105.17 99.2591 104.844C99.4627 104.517 99.7071 104.231 99.9107 104.027C100.155 103.823 100.359 103.619 100.562 103.496C101.418 102.884 102.192 102.639 102.925 102.353C103.658 102.108 104.35 101.945 105.043 101.782C107.772 101.21 110.338 100.965 112.944 100.761C115.551 100.557 118.117 100.475 120.683 100.394C125.815 100.23 130.906 100.23 135.957 100.067C137.219 100.026 138.482 99.9853 139.704 99.9036C140.926 99.822 142.188 99.7403 143.288 99.577C143.573 99.5362 143.818 99.4954 144.021 99.4137C144.225 99.3729 144.429 99.2912 144.429 99.2912H144.388C144.347 99.2912 144.347 99.3321 144.306 99.3321C144.347 99.2912 144.347 99.2912 144.429 99.2096C144.51 99.1279 144.632 98.9238 144.754 98.7605C145.202 97.9848 145.65 96.8824 145.976 95.7801C146.628 93.5346 147.117 91.085 147.443 88.6762C147.768 86.2266 147.972 83.7362 148.054 81.2865C148.135 78.7961 148.094 76.3465 147.891 73.8968C147.768 72.672 147.646 71.488 147.443 70.3041C147.239 69.1609 146.954 68.0177 146.547 67.0379C146.343 66.548 146.139 66.0989 145.895 65.7723C145.854 65.6906 145.773 65.609 145.732 65.5273C145.691 65.4865 145.61 65.4048 145.569 65.364C145.488 65.2823 145.365 65.1599 145.162 65.0782C144.795 64.8741 144.347 64.6291 143.818 64.425C143.288 64.2208 142.759 64.0575 142.188 63.8942C139.908 63.2818 137.464 62.8327 134.979 62.5061C130.01 61.812 124.96 61.4038 119.909 60.9955L112.293 60.3831C109.727 60.179 107.201 59.934 104.595 59.6074C103.943 59.5257 103.291 59.4441 102.599 59.3216C102.273 59.2399 101.907 59.1991 101.581 59.1175C101.418 59.0766 101.214 59.0358 101.051 58.995L100.766 58.9133L100.603 58.8725C100.522 58.8317 100.44 58.7908 100.318 58.75C99.9922 58.5867 99.7071 58.3826 99.4627 58.1784C99.2183 57.9743 99.0554 57.7702 98.8925 57.566C98.5667 57.1578 98.363 56.7495 98.2001 56.3821C97.8742 55.6472 97.6706 54.9123 97.5077 54.259C97.1818 52.8709 96.9782 51.5645 96.856 50.258C96.6931 48.9515 96.6116 47.6451 96.5302 46.3386C96.2043 41.1536 96.1228 36.091 95.9599 30.9877C95.8785 28.4564 95.797 25.9251 95.6341 23.3938C95.4712 20.8626 95.2268 18.3721 94.8195 15.9633C94.6158 14.7793 94.3307 13.5545 93.9642 12.493C93.7605 11.9623 93.5569 11.4315 93.2718 11.0233C93.0274 10.5742 92.7015 10.2475 92.4572 10.1251L92.3757 10.0842C92.335 10.0842 92.335 10.0434 92.2535 10.0434C92.1313 10.0026 92.0091 9.96176 91.8869 9.92093C91.6018 9.83927 91.3574 9.75762 91.0316 9.67597C90.4614 9.55349 89.8504 9.431 89.2395 9.30852C88.0176 9.10439 86.755 8.90025 85.5331 8.73695C80.5233 8.08371 75.4728 7.71627 70.4222 7.55296C67.897 7.47131 65.3717 7.43048 62.8057 7.55296C61.5431 7.59379 60.2805 7.67544 59.0179 7.83875C57.7552 8.00206 56.4926 8.20619 55.3114 8.69612C56.4111 8.08371 57.7145 7.7571 58.9364 7.47131C60.199 7.18552 61.4617 6.98139 62.7243 6.81808C65.2495 6.49146 67.8155 6.32815 70.3815 6.20567C72.9475 6.08319 75.5135 6.08319 78.0387 6.08319C80.6047 6.12402 83.1707 6.20567 85.7367 6.36898C87.0401 6.45063 88.3027 6.57312 89.6061 6.73642C90.2577 6.81808 90.9094 6.89973 91.5611 7.02221C91.8869 7.10387 92.2128 7.14469 92.5793 7.26717C92.7423 7.308 92.9459 7.34883 93.1088 7.43048C93.1903 7.47131 93.3125 7.51214 93.4347 7.55296C93.5569 7.59379 93.6383 7.67544 93.7605 7.71627C94.6158 8.20619 95.1453 8.90025 95.5526 9.51266C95.9599 10.1659 96.2858 10.8191 96.5302 11.4724C97.0189 12.7788 97.3447 14.0853 97.6299 15.3917C98.1593 18.0047 98.4445 20.5768 98.6888 23.1489C98.9332 25.721 99.0961 28.2931 99.2183 30.8244C99.5034 35.9277 99.6664 41.0311 100.074 46.0528C100.196 47.3185 100.318 48.5433 100.481 49.7681C100.644 50.9929 100.848 52.1769 101.133 53.2792C101.296 53.81 101.458 54.3407 101.662 54.749C101.744 54.9531 101.866 55.1164 101.947 55.1981C101.988 55.2389 102.029 55.2797 102.029 55.2797C102.029 55.2797 102.029 55.2389 101.947 55.2389H101.907H101.988L102.151 55.2797C102.273 55.3205 102.395 55.3614 102.517 55.3614C102.762 55.4022 103.047 55.4839 103.373 55.5247C103.943 55.6063 104.554 55.688 105.165 55.7697C107.609 56.0554 110.134 56.2188 112.659 56.3821L120.276 56.872C125.367 57.2394 130.458 57.6069 135.631 58.2601C138.197 58.5867 140.763 58.995 143.41 59.689C144.062 59.8524 144.754 60.0565 145.406 60.3014C146.099 60.5464 146.791 60.8322 147.524 61.2813C147.891 61.5263 148.298 61.7712 148.665 62.1387C148.868 62.302 148.99 62.4653 149.153 62.6694C149.275 62.8327 149.438 63.0369 149.561 63.2002C150.049 63.8942 150.416 64.6291 150.701 65.3232C151.271 66.7113 151.597 68.0586 151.882 69.4059C152.127 70.7532 152.33 72.1005 152.452 73.4069C152.697 76.0607 152.737 78.7144 152.697 81.3274C152.615 83.9403 152.452 86.5532 152.127 89.1661C151.801 91.7791 151.353 94.392 150.579 97.0457C150.172 98.393 149.723 99.6995 148.909 101.128C148.665 101.496 148.461 101.863 148.094 102.231C147.931 102.435 147.728 102.598 147.524 102.802C147.402 102.884 147.28 103.006 147.157 103.088C147.076 103.129 146.995 103.211 146.913 103.251L146.669 103.374C146.058 103.66 145.65 103.782 145.243 103.864C144.836 103.946 144.469 104.027 144.143 104.068C142.718 104.272 141.415 104.395 140.111 104.476C138.808 104.558 137.504 104.599 136.242 104.64C131.11 104.803 126.019 104.844 120.968 105.007C118.443 105.089 115.918 105.211 113.433 105.374C110.949 105.579 108.464 105.824 106.224 106.313C105.654 106.436 105.124 106.599 104.635 106.763C104.147 106.926 103.739 107.13 103.536 107.253C103.495 107.293 103.454 107.293 103.454 107.293C103.454 107.293 103.495 107.253 103.536 107.212C103.576 107.171 103.536 107.171 103.536 107.212C103.536 107.253 103.495 107.334 103.454 107.416C103.373 107.783 103.291 108.355 103.21 108.886C103.088 110.029 103.088 111.254 103.088 112.478C103.088 113.703 103.128 114.969 103.169 116.234C103.332 121.256 103.658 126.36 103.862 131.504C103.943 134.076 104.024 136.648 104.024 139.261C103.984 141.874 103.943 144.487 103.536 147.222C103.414 147.916 103.291 148.61 103.128 149.304C102.965 150.039 102.721 150.774 102.355 151.55C102.151 151.958 101.947 152.366 101.621 152.775C101.458 152.979 101.255 153.183 101.051 153.428C100.848 153.632 100.562 153.836 100.359 153.999C100.114 154.163 99.9107 154.285 99.6664 154.408C99.4627 154.489 99.2591 154.612 99.0554 154.693C98.6481 154.857 98.2815 154.979 97.915 155.061C96.4487 155.428 95.0639 155.592 93.7198 155.714C92.3757 155.837 91.0316 155.837 89.7282 155.877C84.4741 155.877 79.3421 155.428 74.2101 154.816C71.6441 154.489 69.0782 154.122 66.5122 153.632C65.2495 153.387 63.9462 153.142 62.6428 152.815C61.9911 152.652 61.3395 152.489 60.6063 152.244C60.2398 152.121 59.8732 151.999 59.3844 151.713L59.1808 151.591C59.0993 151.55 59.0586 151.509 58.9364 151.427C58.8549 151.346 58.7327 151.264 58.6513 151.182C58.5291 151.101 58.4476 150.978 58.3662 150.897C58.0403 150.529 57.9181 150.243 57.796 149.998C57.5923 149.508 57.4701 149.141 57.3479 148.733C57.2665 148.365 57.185 147.998 57.1035 147.671C56.9814 146.977 56.8592 146.324 56.7777 145.671C56.6148 144.364 56.4519 143.058 56.3297 141.751C56.0853 139.179 55.9224 136.607 55.7187 134.076C55.3522 128.972 54.9856 123.91 54.4154 118.929C54.1303 116.439 53.8044 113.948 53.2749 111.58C53.0306 110.396 52.7047 109.212 52.3381 108.192C52.2567 107.947 52.1345 107.661 52.0123 107.457L51.9716 107.334C51.9716 107.293 51.9308 107.253 51.9308 107.253C51.8901 107.171 51.8494 107.13 51.8086 107.048C51.605 106.763 51.2384 106.477 50.8311 106.232C50.0165 105.701 48.9168 105.252 47.8171 104.885C46.6767 104.517 45.4955 104.231 44.3143 104.027C41.9113 103.537 39.4267 103.251 36.9422 102.966C31.9324 102.476 26.8819 102.231 21.7907 101.986C19.2654 101.863 16.6994 101.7 14.1334 101.496C12.8301 101.373 11.5674 101.292 10.2641 101.088C9.61241 101.006 8.96073 100.883 8.26832 100.761C7.57591 100.639 6.92423 100.475 6.19109 100.189C5.98744 100.108 5.82452 100.026 5.62087 99.9036C5.49869 99.8628 5.41722 99.7812 5.25431 99.6995C5.13212 99.6179 5.00993 99.4954 4.92847 99.4137C4.52117 99.0463 4.31752 98.6788 4.11387 98.3522C3.70657 97.6581 3.42146 97.0458 3.17708 96.3925C2.68832 95.1269 2.36248 93.8204 2.03664 92.5548C1.42569 89.9827 1.01839 87.4514 0.73328 84.8793C0.16306 79.7351 -0.0405897 74.5501 0.52963 69.3242C0.69255 68.0178 0.896199 66.7113 1.18131 65.4457C1.46642 64.1392 1.87372 62.8735 2.44394 61.6079C3.01416 60.3831 3.78803 59.1175 5.00993 58.2193C5.62087 57.7702 6.31328 57.4027 7.08715 57.2394C7.2908 57.1986 7.45372 57.1578 7.65737 57.1578C7.86102 57.1169 7.98321 57.1169 8.14613 57.1169L9.08292 57.0353C11.6489 56.8312 14.1742 56.6678 16.7402 56.5862C19.3061 56.5045 21.8314 56.4229 24.3974 56.4229C29.4886 56.3821 34.5799 56.4637 39.6711 56.5862L54.7412 57.0353Z" fill="#1D4557"/>
<path d="M78.2422 82.2256C78.2014 82.2256 78.12 82.2256 78.0792 82.3072C78.0385 82.3481 78.0385 82.4297 78.0385 82.3889V82.3072V82.1848L78.0792 81.9398L78.1607 81.4499L78.3236 80.4292C78.4458 79.776 78.6087 79.0819 78.7716 78.4287C79.0975 77.0814 79.4641 75.7749 79.9528 74.4685C80.4416 73.162 81.0118 71.8964 81.7042 70.6715C82.3966 69.4467 83.2927 68.3036 84.4738 67.3646C85.655 66.4664 87.2027 65.8131 88.7505 65.8948C88.9541 65.8948 89.1578 65.8948 89.3207 65.9356L89.8909 66.0173L90.176 66.0581C90.2575 66.0989 90.3797 66.0989 90.5019 66.1397C90.7055 66.1806 90.9092 66.3031 91.1128 66.3847C91.9274 66.7521 92.5791 67.5279 92.9457 68.3036C93.3122 69.0793 93.4344 69.855 93.5159 70.6307C93.5974 71.4064 93.5566 72.1413 93.5159 72.8354C93.3937 74.2643 93.1086 75.6933 92.7827 77.0406C92.0903 79.776 91.1536 82.3889 90.1353 84.961C89.1171 87.5331 87.9766 90.0235 86.7547 92.514C85.5328 94.9636 84.2295 97.4132 82.8039 99.822C82.4373 100.434 82.0708 101.006 81.7042 101.618C81.2969 102.231 80.9303 102.802 80.4416 103.456L80.2379 103.701C80.1565 103.782 80.075 103.864 79.9935 103.986C79.8713 104.109 79.7899 104.191 79.5455 104.354L79.4641 104.395C79.4233 104.435 79.4233 104.435 79.3419 104.476C79.1789 104.558 79.016 104.64 78.8531 104.68C78.7716 104.721 78.6902 104.721 78.6087 104.721C78.4865 104.721 78.3643 104.762 78.2422 104.721C78.12 104.721 77.9978 104.721 77.8756 104.68C77.7941 104.68 77.5905 104.599 77.5905 104.599C77.4276 104.558 77.2646 104.476 77.1017 104.395C77.0203 104.354 76.9388 104.313 76.8573 104.231L76.7351 104.15L76.6537 104.068L76.4908 103.946C76.2871 103.782 76.1649 103.619 76.002 103.496C75.4318 102.925 74.9838 102.394 74.495 101.863C73.5989 100.761 72.7029 99.6996 71.8883 98.5972C71.0329 97.4949 70.2183 96.3926 69.4037 95.2494C67.7746 93.0039 66.2268 90.7176 64.7605 88.3905C63.2943 86.0225 61.9094 83.6137 60.6468 81.1233C59.4249 78.592 58.2845 75.9791 57.5513 73.0395C57.3884 72.3046 57.2255 71.5289 57.144 70.7124C57.0626 69.8958 57.0218 69.0385 57.1848 68.0586C57.2255 67.8136 57.2662 67.5687 57.3477 67.2829C57.4291 66.9971 57.5106 66.7521 57.6328 66.4664C57.7143 66.3439 57.755 66.1806 57.8364 66.0581C57.9179 65.9356 57.9994 65.7723 58.0808 65.6498C58.2437 65.4049 58.4881 65.1599 58.7325 64.9149C58.9769 64.7108 59.262 64.4658 59.5064 64.3434C59.6286 64.2617 59.7915 64.18 59.9137 64.0984C60.0359 64.0576 60.1988 63.9759 60.321 63.9351C60.6468 63.8126 60.8097 63.8126 61.0541 63.7309C61.2985 63.6901 61.5021 63.6493 61.7465 63.6085C62.6833 63.5268 63.6201 63.5268 64.4754 63.7718C65.3715 63.9351 66.1454 64.3025 66.8785 64.67C68.304 65.4865 69.4852 66.5072 70.5035 67.5687C72.4992 69.7325 73.9655 72.1821 75.2281 74.6726C75.8391 75.9382 76.4093 77.2039 76.9388 78.4695C77.1832 79.1227 77.4276 79.776 77.6719 80.4292L77.9978 81.409L78.1607 81.899L78.2422 82.1439L78.2829 82.2664V82.3481C78.2829 82.3481 78.2422 82.2664 78.2014 82.2664C78.3643 82.2256 78.2829 82.2256 78.2422 82.2256ZM78.3236 82.7155C78.2829 82.7155 78.2014 82.7155 78.1607 82.6339C78.12 82.593 78.0385 82.5114 78.0385 82.5114L77.9978 82.4705L77.9163 82.3481L77.7941 82.1439L77.509 81.6948L76.9795 80.8375C76.613 80.2659 76.2464 79.6943 75.8798 79.1227C75.1059 78.0204 74.3728 76.8772 73.5582 75.8157C71.9697 73.6927 70.2184 71.6514 68.3448 70.0591C67.408 69.2834 66.3897 68.5894 65.4122 68.1811C64.394 67.7728 63.4979 67.6912 62.6833 67.8545L62.3982 67.9361C62.3167 67.977 62.1538 67.977 62.1538 68.0178C62.1538 68.0178 62.1131 68.0178 62.1131 68.0586V68.0994C62.0724 68.0994 62.1131 68.1403 62.1131 68.1403C62.1131 68.1811 62.1131 68.1403 62.1131 68.1811V68.2219C62.1131 68.2627 62.1131 68.2627 62.1131 68.2627C62.1131 68.3036 62.1131 68.3852 62.0724 68.4261L62.0316 68.671C61.9909 69.0385 62.0316 69.5284 62.1131 70.0591C62.1945 70.5899 62.3575 71.1615 62.5204 71.733C62.8462 72.8762 63.2943 74.101 63.8237 75.2442C64.3125 76.4282 64.8827 77.6121 65.4529 78.7961C66.0232 79.9801 66.6341 81.1641 67.2451 82.3481C67.856 83.532 68.5077 84.716 69.1594 85.8592C70.4627 88.1863 71.8068 90.5135 73.2324 92.759C74.6579 95.0044 76.1649 97.2499 77.7534 99.3321C78.1607 99.822 78.568 100.353 78.9346 100.761C79.016 100.884 79.1382 100.965 79.1789 101.006L79.2197 101.047C79.2197 101.047 79.2197 101.047 79.1789 101.047C79.0975 101.006 79.016 100.965 78.9346 100.924C78.9346 100.924 78.7716 100.884 78.6902 100.843C78.6087 100.843 78.4865 100.802 78.4051 100.802C78.3236 100.802 78.2014 100.802 78.12 100.843C78.0385 100.843 77.9978 100.884 77.9163 100.884C77.7941 100.924 77.6719 100.965 77.5497 101.047L77.4683 101.088C77.3461 101.169 77.4276 101.128 77.4276 101.128L77.509 101.047L77.6312 100.924C77.9978 100.516 78.3643 99.9853 78.7716 99.4546C79.1382 98.9238 79.5048 98.3523 79.8714 97.8215C81.2969 95.576 82.6817 93.2489 83.9851 90.9217C85.2884 88.5538 86.5103 86.1858 87.6508 83.7362C88.7505 81.2866 89.8095 78.8369 90.5833 76.3057C90.9906 75.04 91.3165 73.7744 91.4794 72.5088C91.5609 71.8964 91.6016 71.2431 91.6016 70.6715C91.6016 70.0591 91.5201 69.4876 91.3165 69.0385C91.1128 68.5894 90.8684 68.2219 90.4611 67.977C90.339 67.9361 90.2575 67.8545 90.1353 67.8137C90.0946 67.7728 90.0131 67.7728 89.9724 67.732L89.7687 67.6912L89.3207 67.6095C89.1578 67.5687 89.0356 67.5687 88.8727 67.5687C87.7322 67.4462 86.5918 67.8137 85.5735 68.5077C84.596 69.2426 83.7 70.1816 83.0076 71.2839C82.2744 72.3863 81.6635 73.5703 81.134 74.7951C80.6045 76.0199 80.1157 77.2855 79.7492 78.592C79.5455 79.2452 79.3419 79.8984 79.1789 80.5517L78.9346 81.5315L78.8124 82.0214L78.7716 82.2664L78.7309 82.3889V82.4705C78.7309 82.4705 78.7309 82.5522 78.6902 82.593C78.4458 82.6747 78.3643 82.7155 78.3236 82.7155Z" fill="white"/>
<path d="M54.7411 15.6367C55.4743 20.4543 55.9223 25.3127 56.1667 30.1711C56.2889 32.6208 56.3703 35.0296 56.3703 37.4792C56.3703 38.704 56.3703 39.9288 56.2889 41.1536C56.2481 42.3784 56.1667 43.6032 55.963 44.9505C55.9223 45.1138 55.8816 45.318 55.8408 45.4813C55.8001 45.6854 55.7594 45.8895 55.6372 46.1753C55.5557 46.3386 55.515 46.5019 55.3113 46.7469C55.2706 46.8286 55.1891 46.8694 55.1077 46.951C55.067 46.9919 55.0262 47.0327 54.9855 47.0735L54.904 47.1552C54.7818 47.2368 54.6597 47.3185 54.5782 47.3593C54.4967 47.4001 54.4153 47.441 54.3745 47.441L54.2116 47.5226C54.0894 47.5634 54.008 47.6043 53.8858 47.6043C53.1527 47.8084 52.5417 47.8901 51.9307 48.0125C50.7089 48.2167 49.487 48.3391 48.2651 48.4616C45.8213 48.7066 43.4182 48.8291 40.9744 48.9107C38.5306 48.9924 36.1275 49.0332 33.6837 48.9924C31.2399 48.9516 28.8369 48.8699 26.3931 48.6249C31.1585 47.6043 35.9646 46.9102 40.73 46.257L47.8985 45.318C49.0797 45.1546 50.2608 44.9913 51.4013 44.7872C51.9715 44.7055 52.5417 44.5831 52.9897 44.4606C53.0305 44.4606 53.1119 44.4198 53.1119 44.4198H53.1526C53.1526 44.4198 53.0712 44.4606 53.0305 44.5014L52.9897 44.5422C52.949 44.5422 52.9083 44.5831 52.9083 44.6239C52.8268 44.7055 52.8268 44.7056 52.7861 44.7464C52.6639 44.8689 52.7046 44.9097 52.6639 44.9097C52.6639 44.9097 52.7046 44.828 52.7046 44.7055C52.7453 44.6239 52.7454 44.5014 52.7861 44.3789C52.8675 43.889 52.949 43.2766 52.9897 42.705C53.0305 42.1334 53.1119 41.521 53.1526 40.9495C53.2341 39.7655 53.3156 38.5815 53.3563 37.3567L53.7229 30.1303C53.9265 25.3535 54.2116 20.4951 54.7411 15.6367Z" fill="white"/>
<path d="M110.582 138.404C109.849 134.28 109.442 130.116 109.197 125.951C109.075 123.869 108.994 121.787 108.994 119.705C108.994 118.643 108.994 117.623 109.034 116.561C109.075 115.5 109.116 114.438 109.319 113.254C109.36 113.091 109.36 112.927 109.401 112.764C109.442 112.601 109.482 112.397 109.605 112.152C109.645 112.029 109.727 111.866 109.93 111.621C109.971 111.539 110.012 111.499 110.134 111.417C110.175 111.376 110.216 111.335 110.256 111.294L110.338 111.254C110.46 111.172 110.582 111.09 110.623 111.09C110.704 111.049 110.786 111.009 110.827 111.009L110.989 110.968C111.112 110.927 111.152 110.927 111.275 110.886C111.926 110.723 112.456 110.641 112.985 110.56C114.044 110.396 115.103 110.274 116.162 110.192C118.239 109.988 120.317 109.906 122.394 109.825C124.471 109.784 126.548 109.784 128.625 109.825C130.703 109.906 132.78 109.988 134.898 110.233C130.825 111.213 126.711 111.866 122.638 112.478C120.602 112.764 118.565 113.05 116.529 113.336C115.51 113.458 114.492 113.622 113.515 113.785C113.026 113.867 112.537 113.948 112.171 114.071L112.089 114.111H112.048H112.089C112.089 114.111 112.171 114.071 112.211 114.03L112.252 113.989C112.293 113.948 112.334 113.948 112.334 113.907C112.415 113.826 112.415 113.785 112.456 113.744C112.578 113.581 112.578 113.54 112.578 113.54C112.578 113.54 112.578 113.581 112.537 113.662C112.496 113.744 112.496 113.826 112.496 113.948C112.415 114.356 112.374 114.846 112.334 115.336C112.293 115.826 112.252 116.316 112.211 116.847L112.008 119.909L111.682 126.074C111.397 130.116 111.112 134.239 110.582 138.404Z" fill="white"/>
</svg>
