<svg width="158" height="150" viewBox="0 0 158 150" fill="none" xmlns="http://www.w3.org/2000/svg">
<g clip-path="url(#clip0)">
<path d="M49.8447 121.391C49.8447 141.339 66.7782 148.363 78.7613 148.363C90.7445 148.363 105.527 136.701 105.527 120.402C105.527 104.103 89.6179 91.0093 77.0202 91.0093C64.4225 91.0093 49.8447 101.409 49.8447 121.391Z" fill="#3B9BD8"/>
<path d="M30.7944 137.622C30.4871 133.258 29.9409 128.927 29.0874 124.665C28.6436 122.551 28.1315 120.402 27.4145 118.391C27.0731 117.368 26.6293 116.379 26.1513 115.424L24.6833 112.492C20.8255 104.649 17.1042 96.7379 13.5878 88.6907C11.8467 84.667 10.1397 80.6434 8.56922 76.5515C6.99878 72.4597 5.49662 68.3338 4.16516 64.1396C2.8337 59.9455 1.6388 55.6832 0.853575 51.2844C0.443895 49.1021 0.170775 46.8516 0.0683547 44.6011C-0.0340654 42.3165 0.0342147 39.9978 0.648735 37.645C0.955995 36.4856 1.39982 35.2922 2.08262 34.201C2.76542 33.1099 3.72134 32.0869 4.84796 31.3708C5.42834 30.9957 6.14528 30.6889 6.86222 30.5184C7.57916 30.3479 8.36438 30.3138 9.08132 30.4161C10.5152 30.5866 11.7442 31.1662 12.8026 31.8141C14.9193 33.1099 16.558 34.7807 18.0943 36.4515C19.5964 38.1565 20.9962 39.8955 22.2935 41.7027C24.9223 45.2831 27.3121 48.9998 29.6678 52.6825C32.0234 56.3992 34.2767 60.116 36.564 63.8327C41.1388 71.2663 45.6794 78.6998 50.8004 85.6218C51.0394 85.9287 51.3125 86.2356 51.6539 86.5424C51.9953 86.8493 52.3367 87.1221 52.7464 87.3949C53.5316 87.9405 54.3851 88.4179 55.3069 88.8271C57.1505 89.6795 59.1306 90.3274 61.1449 90.873C65.2075 91.9641 69.4409 92.5779 73.7084 92.953C77.9759 93.294 82.2434 93.3281 86.4767 92.953C88.5934 92.7484 90.676 92.4415 92.6561 91.9641C93.6461 91.7254 94.6362 91.4527 95.558 91.1117C96.4798 90.7707 97.3674 90.3615 98.1526 89.8841C98.3575 89.7818 98.5282 89.6454 98.6989 89.509C98.8013 89.4408 98.8696 89.3726 98.972 89.3044L99.1086 89.2021L99.2451 89.0658L100.474 88.0428C101.294 87.3267 102.113 86.6447 102.898 85.9287C104.503 84.4965 106.107 83.0303 107.712 81.5299L117.237 72.5279C120.412 69.5272 123.621 66.5265 126.933 63.6282C130.244 60.7298 133.624 57.8655 137.243 55.2399C139.052 53.9441 140.964 52.6825 142.978 51.6254C144.003 51.0798 145.061 50.6025 146.188 50.1592C147.314 49.75 148.509 49.409 149.806 49.3067C151.104 49.1703 152.538 49.3067 153.869 49.9205C154.552 50.2274 155.132 50.6366 155.679 51.1139C156.225 51.6254 156.669 52.2051 157.01 52.853C157.693 54.1146 157.932 55.4786 158 56.7061C158.068 57.9678 157.932 59.1612 157.761 60.3206C157.351 62.6393 156.669 64.7875 155.883 66.9016C155.098 69.0157 154.176 71.0276 153.22 73.0394C151.275 77.0289 149.158 80.8821 146.87 84.667C142.33 92.2028 137.38 99.4317 132.293 106.558C129.732 110.105 127.138 113.617 124.475 117.129C121.846 120.607 119.149 124.085 116.452 127.495C115.769 128.347 115.086 129.2 114.437 130.086C114.096 130.53 113.789 130.939 113.447 131.382L112.491 132.712C111.262 134.519 110.102 136.326 109.009 138.236C107.917 140.111 106.927 142.055 106.005 144.033C105.083 146.01 104.23 148.022 103.547 150.102C106.107 141.748 110.238 133.837 115.564 126.881C120.685 119.789 125.738 112.696 130.62 105.433C135.502 98.2042 140.213 90.873 144.515 83.3031C146.631 79.5181 148.714 75.6991 150.489 71.7777C151.377 69.8341 152.196 67.8564 152.913 65.8446C153.63 63.8327 154.211 61.8209 154.518 59.8091C154.654 58.8202 154.723 57.8314 154.689 56.8766C154.62 55.956 154.415 55.1035 154.04 54.4556C153.835 54.1487 153.63 53.8418 153.357 53.6031C153.084 53.3645 152.777 53.1599 152.435 53.0235C151.787 52.7507 150.967 52.6484 150.08 52.7507C149.192 52.853 148.27 53.0917 147.348 53.4327C146.427 53.7736 145.505 54.2169 144.583 54.7284C142.774 55.7173 140.998 56.9107 139.291 58.1383C135.843 60.6616 132.566 63.4918 129.357 66.3901C126.147 69.2885 122.972 72.2892 119.832 75.324C116.691 78.3588 113.55 81.3936 110.341 84.3942C108.736 85.8946 107.131 87.3949 105.493 88.8612C104.673 89.6113 103.854 90.3274 103.001 91.0435L101.737 92.1346L101.567 92.271L101.362 92.4415C101.225 92.5438 101.089 92.6461 100.952 92.7484C100.679 92.9189 100.406 93.1235 100.133 93.294C99.0403 93.976 97.9478 94.4533 96.8212 94.8625C95.6945 95.2717 94.5679 95.6127 93.4413 95.8855C91.1881 96.4311 88.9348 96.772 86.6816 96.9766C82.1751 97.3858 77.7028 97.3858 73.2304 97.0448C68.7581 96.7038 64.3199 96.0219 59.95 94.8284C57.765 94.2146 55.58 93.4986 53.4633 92.5097C52.405 91.9982 51.3467 91.4527 50.3225 90.7366C49.8104 90.3956 49.2983 89.9864 48.8203 89.5431C48.3423 89.0998 47.8644 88.5884 47.4547 88.0428C42.2313 80.8821 37.6565 73.3804 33.1159 65.8787C30.8627 62.1278 28.6436 58.377 26.3562 54.6602C24.0688 50.9435 21.7473 47.2949 19.255 43.7827C17.9919 42.0437 16.6945 40.3388 15.3289 38.7702C13.9633 37.2017 12.4612 35.7355 10.8566 34.6784C10.0714 34.1669 9.25202 33.7918 8.50094 33.6895C7.74986 33.5872 7.1012 33.7236 6.45254 34.0987C5.7356 34.542 5.12108 35.1217 4.64312 35.8718C4.16516 36.622 3.78962 37.4745 3.55064 38.4292C3.03854 40.3047 2.90198 42.3847 2.97026 44.4647C3.03854 46.5447 3.27752 48.6588 3.61892 50.773C3.96032 52.8871 4.40414 55.0012 4.91624 57.0812C5.42834 59.1953 5.97458 61.2753 6.5891 63.3554C9.01304 71.6754 12.0856 79.8591 15.2948 87.9405C18.504 96.056 21.9862 104.035 25.5368 112.048L26.8683 115.049C27.3121 116.038 27.7559 117.095 28.0632 118.152C28.746 120.266 29.1898 122.414 29.5312 124.562C30.2823 128.893 30.6578 133.258 30.7944 137.622Z" fill="#1D4557"/>
<path d="M53.395 61.9232C53.395 80.882 69.475 87.5313 80.8777 87.5313C92.2805 87.5313 106.312 76.4492 106.312 60.9684C106.312 45.4876 91.188 33.0416 79.239 33.0416C67.29 33.0416 53.395 42.9643 53.395 61.9232Z" fill="#FF775D"/>
<path d="M76.5421 28.6429C74.6985 28.7793 72.855 28.9839 71.0456 29.3931C69.2361 29.7682 67.495 30.3137 65.8221 31.0298C64.1493 31.7459 62.5447 32.5984 61.0767 33.6213C59.6087 34.6443 58.2431 35.8377 57.0482 37.1335C54.6242 39.725 52.7465 42.828 51.5516 46.1355C50.3226 49.4431 49.7763 52.9894 49.8105 56.4674C49.8788 59.9114 50.8347 63.2871 52.4051 66.3219C54.0097 69.3567 56.2288 72.0846 58.9259 74.2669C61.5888 76.4492 64.6614 78.1201 67.973 79.143C69.6117 79.6545 71.3187 79.9955 73.0257 80.166C73.4695 80.2001 73.8792 80.2342 74.323 80.2683C74.7668 80.3024 75.1765 80.3024 75.6203 80.3024C76.4738 80.3024 77.3273 80.2683 78.1467 80.2001C81.5266 79.8591 84.804 78.6997 87.8083 76.9948C90.8126 75.2899 93.5097 73.0053 95.7629 70.3456C98.0162 67.6859 99.8597 64.6511 101.021 61.4117C101.601 59.775 102.011 58.1042 102.147 56.4333C102.181 56.0241 102.215 55.615 102.215 55.1717C102.215 54.7284 102.215 54.2851 102.215 53.8418C102.181 53.3985 102.181 52.9553 102.147 52.5461C102.113 52.1028 102.079 51.6595 102.011 51.2503C101.567 47.7723 100.44 44.3624 98.699 41.2594C96.9578 38.1564 94.6022 35.3944 91.8368 33.1439C89.0374 30.8934 85.8282 29.1203 82.3801 27.9268C80.6389 27.3131 78.8636 26.8698 77.0542 26.5288C75.2448 26.1878 73.4012 25.9832 71.5577 25.8809C73.4012 25.7786 75.2789 25.8468 77.1225 25.9832C78.966 26.1537 80.8438 26.4947 82.6532 26.9721C86.3062 27.8927 89.7884 29.5295 92.9293 31.7118C99.1769 36.1105 103.683 43.1007 104.947 50.807C105.015 51.2844 105.083 51.7618 105.151 52.2392C105.22 52.7166 105.254 53.1939 105.288 53.7054C105.322 54.1828 105.322 54.6943 105.356 55.1717C105.39 55.649 105.356 56.1605 105.356 56.672C105.254 58.6838 104.878 60.6615 104.298 62.537C103.718 64.4124 102.898 66.2196 101.976 67.9587C101.021 69.6636 99.928 71.3003 98.699 72.8348C96.2409 75.8696 93.2707 78.5292 89.8567 80.5411C86.4769 82.5529 82.619 83.9168 78.5905 84.3601C77.6005 84.4624 76.5763 84.5306 75.5862 84.4965C75.0741 84.4624 74.5961 84.4965 74.084 84.4283C73.6061 84.3942 73.094 84.3601 72.616 84.2919C70.6359 84.0873 68.6899 83.6781 66.7781 83.0644C62.9885 81.8709 59.4721 79.8932 56.4336 77.3358C53.4293 74.7443 50.903 71.6072 49.196 68.0269C48.3425 66.2537 47.6597 64.3783 47.2158 62.4347C46.772 60.4911 46.5672 58.5133 46.6013 56.5356C46.6696 52.6143 47.5231 48.7611 49.0594 45.1808C50.5957 41.6345 52.8148 38.361 55.6143 35.7354C58.4479 33.1098 61.8278 31.1321 65.4125 29.9728C67.2219 29.3931 69.0654 29.018 70.9431 28.7793C72.8209 28.5406 74.6985 28.5065 76.5421 28.6429Z" fill="#1D4557"/>
<path d="M62.2031 60.9684C65.0367 61.3435 67.6655 61.514 70.2943 61.4799C72.889 61.4458 75.4836 61.2071 78.01 60.7979C80.5705 60.3888 83.0968 59.8091 85.589 59.0589C88.1154 58.3087 90.5735 57.3881 93.2364 56.2628C92.8267 56.8425 92.417 57.4563 91.9391 58.0019C91.4611 58.5133 90.949 59.0589 90.4028 59.5363C89.8565 59.9796 89.2762 60.457 88.6958 60.8661C88.3885 61.0707 88.0813 61.2753 87.774 61.4458C87.4667 61.6504 87.1595 61.855 86.8522 62.0255C84.3259 63.4235 81.5264 64.3783 78.6586 64.8557C75.7909 65.299 72.8207 65.2649 69.9529 64.6852C69.6115 64.617 69.236 64.5147 68.8946 64.4124C68.5532 64.3101 68.1776 64.2078 67.8362 64.1055C67.1534 63.8668 66.4706 63.594 65.822 63.3212C65.1733 63.0144 64.5246 62.6393 63.9101 62.2983C63.2956 61.8891 62.7494 61.4117 62.2031 60.9684Z" fill="#1D4557"/>
<path d="M41.2753 18.6519L46.9084 27.9609L38.2368 21.3798C37.315 20.6979 37.1443 19.368 37.8271 18.4474C38.5099 17.5267 39.8414 17.3562 40.7632 18.0382C40.968 18.2428 41.1387 18.4474 41.2753 18.6519Z" fill="#FF775D"/>
<path d="M75.825 1.90953C75.9274 3.34167 76.0298 4.77381 76.0981 6.20596C76.1664 7.6381 76.2346 9.07024 76.2688 10.5024C76.3029 11.9345 76.3371 13.3667 76.3029 14.7988C76.2688 16.231 76.2346 17.6631 76.0298 19.0612C75.8932 17.6631 75.586 16.2651 75.2787 14.9011C74.9715 13.5372 74.6301 12.1732 74.2545 10.8093C73.879 9.44533 73.5034 8.11548 73.0938 6.75153C72.6841 5.42169 72.2744 4.05774 71.8306 2.76199C71.455 1.67084 72.0354 0.511481 73.1279 0.170495C74.2204 -0.170492 75.3811 0.409185 75.7225 1.46624C75.7908 1.56854 75.825 1.73903 75.825 1.90953Z" fill="#FF775D"/>
<path d="M112.833 18.4473C111.945 18.7883 111.058 19.1975 110.204 19.709C109.351 20.1864 108.497 20.732 107.678 21.3457C106.859 21.9595 106.073 22.6074 105.322 23.3235C104.571 24.0395 103.82 24.7897 103.171 25.574C103.547 24.5851 104.025 23.6303 104.503 22.7097C105.015 21.7549 105.561 20.8683 106.21 19.9477C106.824 19.0611 107.507 18.1746 108.258 17.3562C108.975 16.5037 109.829 15.7535 110.716 14.9693C111.57 14.2191 112.901 14.3214 113.652 15.1739C114.403 16.0263 114.301 17.3562 113.448 18.1064C113.277 18.2428 113.072 18.345 112.833 18.4473Z" fill="#FF775D"/>
</g>
<defs>
<clipPath id="clip0">
<rect width="158" height="150" fill="white"/>
</clipPath>
</defs>
</svg>
