<svg width="119" height="155" viewBox="0 0 119 155" fill="none" xmlns="http://www.w3.org/2000/svg">
<path d="M94.3415 0C94.3415 0 25.4579 23.6497 54.198 77.5628C64.297 91.3759 88.5767 64.838 92.3638 56.8012C100.78 39.0116 94.3415 0 94.3415 0Z" fill="#3B9BD8"/>
<path d="M55.1236 155C54.787 147.633 54.9132 140.224 55.2499 132.857C55.4182 129.174 55.6286 125.49 55.8811 121.807L56.5964 110.756C56.8068 107.073 57.0172 103.431 57.1434 99.7475C57.2276 97.9058 57.2697 96.064 57.3538 94.2642C57.3959 92.4224 57.438 90.6225 57.438 88.7808C57.3959 86.939 57.438 85.0973 57.3538 83.3392C57.2697 81.5393 57.1434 79.7394 56.9751 77.8977C56.6806 74.2561 56.2598 70.6144 55.8811 66.9309C55.5024 63.2474 55.1657 59.5639 54.9553 55.7967C54.7449 52.0295 54.7449 48.2623 55.0816 44.4113C55.4182 40.6022 56.0915 36.7513 57.438 33.026C58.1113 31.1842 58.9108 29.3425 59.9207 27.5844C60.8885 25.8682 61.9825 24.2358 63.2028 22.687C65.6014 19.5477 68.5469 16.8269 71.8291 14.6085C75.1113 12.39 78.688 10.6738 82.3489 9.41807C86.0098 8.16233 89.7969 7.32517 93.584 6.73916C97.3712 6.15315 101.116 5.86014 104.861 5.65085L106.629 5.56714L107.176 7.1996C108.522 11.1761 109.49 15.32 110.037 19.5058C110.289 21.5987 110.416 23.7335 110.458 25.8264C110.458 27.9611 110.332 30.054 110.079 32.1888C109.069 40.6022 105.829 48.7646 100.78 55.5037C99.5593 57.2199 98.1707 58.8105 96.7821 60.3592C95.3514 61.9079 93.9207 63.3311 92.4058 64.7543C89.3761 67.6006 86.1781 70.2377 82.6014 72.4562C80.834 73.5445 78.9826 74.5072 77.0469 75.3025C75.1113 76.0978 73.0915 76.6838 71.0717 77.1024C66.99 77.9395 62.8662 78.0233 58.7845 77.9814C60.8464 77.814 62.8662 77.6047 64.886 77.3117C66.9058 77.0187 68.8835 76.6419 70.8192 76.0559C74.6905 74.9676 78.3093 73.1677 81.5915 70.8656C84.8736 68.5634 87.7771 65.8007 90.5964 62.9125C91.985 61.4475 93.3736 59.9406 94.636 58.4337C95.8984 56.9269 97.1187 55.3363 98.2127 53.7038C99.3068 52.0713 100.317 50.3552 101.2 48.5971C102.084 46.8391 102.884 45.0392 103.557 43.1974C104.861 39.5139 105.745 35.663 106.082 31.7702C106.25 29.8448 106.292 27.8774 106.25 25.9101C106.208 23.9428 106.039 22.0173 105.745 20.0919C105.198 16.1991 104.188 12.39 102.884 8.70649L105.198 10.2552C101.537 10.5064 97.9182 10.925 94.3835 11.511C90.8489 12.097 87.3563 12.9341 84.0321 14.1062C80.7078 15.2782 77.5519 16.7851 74.7326 18.7524C71.9132 20.7197 69.3885 23.1056 67.2424 25.7845C66.1905 27.124 65.2226 28.589 64.3811 30.0959C63.5395 31.5609 62.8241 33.1097 62.2771 34.7421C61.0989 37.9652 60.4256 41.3976 60.089 44.9136C59.4157 51.9876 59.8786 59.229 60.5098 66.5542C60.8043 70.2377 61.141 73.9212 61.3514 77.6465C61.4355 79.5302 61.5197 81.3719 61.5197 83.2555C61.5197 85.1391 61.4355 86.9809 61.3934 88.8645C61.3093 90.7062 61.2251 92.5898 61.141 94.4316C61.0147 96.2733 60.9306 98.1569 60.7622 99.9987C60.636 101.84 60.4256 103.682 60.2573 105.524C60.089 107.366 59.8786 109.207 59.6682 111.049C59.2474 114.733 58.8266 118.374 58.4058 122.058C57.9429 125.699 57.5222 129.383 57.1014 133.025C56.1756 140.308 55.5023 147.633 55.1236 155Z" fill="#1D4557"/>
<path d="M0 131.685C9.84653 130.178 18.6411 125.825 28.5718 123.565C31.0545 123.021 33.5792 122.56 36.1881 122.434C38.755 122.267 41.2797 122.267 43.8465 122.351C48.896 122.56 53.9035 123.23 58.8267 124.067C61.2673 124.486 63.7079 124.946 66.1485 125.448C68.547 125.951 71.0297 126.453 73.3861 126.913C78.1411 127.834 82.9802 128.504 87.8193 129.048C97.5396 130.178 107.428 130.681 117.317 131.727C107.428 132.773 97.5396 133.359 87.5247 132.983C85.0421 132.899 82.5173 132.732 80.0347 132.522C78.7723 132.439 77.552 132.271 76.2896 132.146C75.0272 131.978 73.8069 131.811 72.5445 131.643C70.0198 131.267 67.6213 130.806 65.2228 130.388C62.7822 129.927 60.3837 129.508 57.9851 129.09C55.5866 128.671 53.1881 128.295 50.7896 127.96C48.3911 127.625 45.9926 127.374 43.5941 127.164C41.1955 126.997 38.797 126.871 36.4406 126.913C35.8515 126.913 35.2624 126.955 34.6733 126.955L32.9059 127.081C32.3168 127.123 31.7277 127.206 31.1386 127.248L30.255 127.332L29.3713 127.457C28.1931 127.625 26.9728 127.834 25.7946 128.043C24.6163 128.295 23.396 128.504 22.2178 128.755C19.8193 129.257 17.4208 129.801 14.9802 130.262C10.0149 131.225 4.96535 132.02 0 131.685Z" fill="#FF775D"/>
<path d="M59.2476 79.7394C60.3416 73.8374 61.8985 67.9773 64.2129 62.3684L65.0545 60.2755C65.349 59.5639 65.6857 58.8941 66.0223 58.2244C66.6535 56.8431 67.3268 55.4618 68 54.1223C68.7154 52.7829 69.4728 51.4853 70.2302 50.1458C70.6089 49.4761 71.0297 48.8482 71.4084 48.2204L72.6287 46.2949C75.9951 41.2301 79.9084 36.5001 84.2847 32.2725C86.4728 30.1377 88.7872 28.1704 91.1436 26.3287C93.5421 24.4869 96.0248 22.7707 98.4654 21.0127C98.0025 21.5987 97.4976 22.1847 96.9926 22.7707L95.4777 24.445L92.406 27.71C90.3862 29.8866 88.3664 32.0632 86.4307 34.3235C82.5594 38.8023 79.0248 43.4904 75.7847 48.3878L74.5644 50.2295C74.1436 50.8574 73.7649 51.4434 73.3862 52.0713C72.6287 53.327 71.8713 54.5828 71.1139 55.8385C70.3565 57.0942 69.6832 58.4337 68.9679 59.6894C68.6312 60.3173 68.2525 60.987 67.9159 61.6149L66.906 63.5822C64.1287 68.8145 61.8144 74.2979 59.2476 79.7394Z" fill="#1D4557"/>
<path d="M71.7451 52.4899C71.9134 51.4434 72.3763 50.4388 73.0075 49.5598C73.6387 48.6808 74.4382 47.8855 75.2798 47.2158C77.005 45.9182 79.0248 45.0392 81.0446 44.495C83.0644 43.9509 85.1263 43.6997 87.1882 43.6997C88.1981 43.6997 89.2501 43.7834 90.26 43.909C91.2699 44.0346 92.2798 44.2439 93.2897 44.495C92.8268 44.7462 92.3218 44.9554 91.8169 45.1229C91.3119 45.2903 90.8491 45.4577 90.3441 45.5833C89.3763 45.8763 88.4085 46.1275 87.4827 46.3786C85.5892 46.8391 83.6956 47.2995 81.8862 47.8018C80.0768 48.3041 78.3095 48.8482 76.5842 49.5598C74.9011 50.1877 73.302 51.1086 71.7451 52.4899Z" fill="#1D4557"/>
<path d="M98.5073 71.4096C100.695 68.2284 102.841 65.2565 104.735 62.2009C106.629 59.1453 108.312 56.0059 109.869 52.8247C111.426 49.6017 112.856 46.2949 114.287 42.9462C115.718 39.5557 117.064 36.1234 118.874 32.691C119.168 36.542 118.832 40.351 118.116 44.1183C117.359 47.8436 116.139 51.5271 114.455 55.0432C112.772 58.5174 110.584 61.8242 107.891 64.6705C105.156 67.4331 102.042 69.819 98.5073 71.4096Z" fill="#FF775D"/>
<path d="M39.0077 52.4899C40.1017 54.1223 40.7329 55.7129 41.3641 57.1361L43.0894 61.28L44.8567 65.3821C45.4458 66.8472 46.1191 68.354 46.5819 70.2795C44.6463 69.8609 43.0473 68.9401 41.6587 67.7262C40.27 66.5123 39.176 64.9635 38.4186 63.2055C37.6611 61.4893 37.3245 59.5639 37.4507 57.764C37.577 55.9222 37.9978 54.1642 39.0077 52.4899Z" fill="#FF775D"/>
</svg>
