<svg width="133" height="135" viewBox="0 0 133 135" fill="none" xmlns="http://www.w3.org/2000/svg">
<g clip-path="url(#clip0)">
<path d="M70.6769 48.6649C64.4665 38.1522 32.1021 -7.84066 13.0771 9.76803C-5.90415 31.4942 60.0929 114.106 78.7243 129.218C78.9429 129.393 114.413 14.7615 94.819 8.67296C78.0245 3.46044 71.5954 35.0422 70.6769 48.6649Z" fill="#FF775D"/>
<path d="M48.2406 100.922L54.2324 108.806C56.2442 111.434 58.2123 114.062 60.2679 116.647C62.2797 119.231 64.2916 121.859 66.3471 124.444C68.4027 127.028 70.4583 129.612 72.5139 132.109L69.5398 132.284C70.5895 130.401 71.5954 128.473 72.6013 126.546L75.6628 120.808C77.6747 116.953 79.6428 113.099 81.6109 109.244C83.579 105.389 85.5033 101.491 87.384 97.5925L90.2268 91.723L93.0259 85.8534C94.8628 81.955 96.6997 78.0127 98.4928 74.0705C100.286 70.1282 102.035 66.186 103.697 62.1999C106.978 54.2278 110.039 46.0805 111.832 37.6704C112.27 35.5679 112.619 33.4653 112.794 31.319C113.013 29.2165 113.013 27.0701 112.794 24.9676C112.532 22.9089 111.963 20.8502 110.87 19.1857C110.301 18.3534 109.602 17.6526 108.771 17.0831C108.377 16.8203 107.94 16.5575 107.459 16.3823C107.24 16.2947 106.978 16.2071 106.759 16.1195L106.059 15.9442C104.135 15.55 102.079 15.9881 100.111 16.6889C98.1867 17.4335 96.306 18.4848 94.5566 19.6675C91.014 22.0328 87.8213 24.9238 84.8473 27.99C81.8733 31.1 79.118 34.3852 76.5813 37.8456C74.0446 41.306 71.7266 44.8978 69.7148 48.6649C68.7089 50.5484 67.7904 52.4319 67.0032 54.3592C66.2159 56.2866 65.5599 58.2577 65.1663 60.185C64.9476 61.1487 64.8164 62.1123 64.8164 63.0322C64.8164 63.952 64.9039 64.7843 65.1226 65.4851C65.385 66.186 65.6911 66.6678 66.1722 67.0182C66.6533 67.3686 67.3531 67.6315 68.1403 67.8067L67.703 67.7629C68.4465 67.7191 69.2337 67.6753 69.8023 67.4563C70.4146 67.281 70.8519 67.0182 71.1581 66.7116C71.4642 66.405 71.6392 65.967 71.7704 65.3975C71.9016 64.8281 71.9453 64.1272 71.8141 63.3826C71.8141 63.2074 71.7704 62.9884 71.7266 62.8132L71.6392 62.2437C71.5517 61.8495 71.4642 61.4553 71.333 61.0611C71.2018 60.6668 71.1143 60.2726 70.9831 59.8784L70.7644 59.2651L70.5458 58.6519C69.9335 57.0312 69.1462 55.4543 68.2715 53.8774C66.5658 50.7236 64.5103 47.7012 62.3235 44.8102C60.093 41.9193 57.7312 39.1159 55.2383 36.4877C52.7454 33.8596 50.1212 31.319 47.3222 28.9975C44.5668 26.6759 41.6365 24.5296 38.575 22.7337C35.5135 20.9816 32.3208 19.5361 29.1281 19.0542C27.5537 18.8352 25.9792 18.8352 24.6234 19.2295C23.2238 19.6237 21.9555 20.3245 20.9058 21.332L21.0808 21.1568C20.2935 22.1204 19.6812 23.2155 19.2439 24.3982C18.8065 25.6247 18.5441 26.9387 18.3254 28.2966C18.0193 31.0562 18.1942 33.9472 18.6316 36.8381C19.069 39.7291 19.7687 42.6201 20.6434 45.5111C21.4744 48.4021 22.4803 51.2492 23.53 54.0526C24.6234 56.856 25.7605 59.6594 26.9851 62.4627C28.2097 65.2223 29.5218 67.9819 30.8338 70.7415C33.5017 76.2168 36.3445 81.6045 39.2311 86.9923C39.3185 87.1237 39.2311 87.2989 39.1436 87.3427C39.0124 87.3865 38.8812 87.3865 38.7937 87.2551C35.3386 82.2178 32.0147 77.049 28.9532 71.7489C27.3787 69.1208 25.9354 66.405 24.4922 63.6892C23.0489 60.9734 21.6931 58.2139 20.4248 55.3667C17.9318 49.5409 15.7013 43.7152 14.433 37.4514C13.8207 34.3414 13.4708 31.1 13.6895 27.7272C13.8644 26.0627 14.1268 24.3544 14.6954 22.6899C15.264 21.0254 16.0949 19.4047 17.2321 17.9154C17.2758 17.8716 17.3195 17.8278 17.3633 17.784L17.407 17.7402C18.9815 16.1195 21.0371 14.8492 23.2676 14.1921C25.4981 13.4913 27.7723 13.4475 29.8716 13.7103C32.0147 13.9731 34.0265 14.5426 35.9072 15.2872C37.8315 16.0319 39.6247 16.8641 41.3304 17.8716C43.0798 18.8352 44.698 19.9303 46.3162 21.0254C47.9345 22.1642 49.4652 23.3469 50.9522 24.5734C53.9262 27.0701 56.7253 29.7421 59.3494 32.5455C61.9736 35.3489 64.4228 38.3274 66.697 41.4374C68.9713 44.5474 71.0706 47.7888 72.9075 51.293C73.8259 53.0452 74.6569 54.8411 75.3567 56.7246L75.6191 57.4254L75.8378 58.1701C76.0127 58.6519 76.1439 59.1775 76.2751 59.6594C76.4063 60.1412 76.4938 60.7106 76.625 61.2363L76.7562 62.0685C76.8 62.3313 76.8437 62.5942 76.8437 62.9008C76.9312 63.9958 76.8874 65.2223 76.5813 66.4488C76.2751 67.6753 75.6628 69.0331 74.6569 70.0406C73.651 71.0919 72.3389 71.6613 71.1581 72.0117C69.9335 72.3622 68.7963 72.406 67.703 72.4498C67.5717 72.4498 67.4405 72.4498 67.3093 72.406H67.2656C65.9535 72.1431 64.5103 71.6175 63.2857 70.61C62.0611 69.6464 61.1863 68.2009 60.749 66.7992C60.3116 65.3975 60.2679 64.0396 60.3116 62.7694C60.3554 61.4991 60.574 60.3164 60.8802 59.1337C61.4488 56.8122 62.3235 54.7097 63.2419 52.6071C64.2041 50.5484 65.2538 48.5773 66.4346 46.6938C68.7526 42.8829 71.3767 39.2911 74.1758 35.8745C76.9749 32.4579 79.9927 29.2165 83.1854 26.1941C86.3781 23.1717 89.8332 20.3683 93.5507 17.9592C95.4313 16.7765 97.4432 15.7252 99.5425 14.9806C100.592 14.5864 101.729 14.3235 102.866 14.1483C104.004 13.9731 105.228 13.9731 106.409 14.2359L107.284 14.4988C107.546 14.5864 107.852 14.7178 108.115 14.8054C108.639 15.0244 109.164 15.331 109.689 15.6814C110.695 16.3385 111.526 17.2145 112.182 18.1782C112.838 19.1418 113.319 20.2369 113.713 21.332C114.063 22.4271 114.281 23.5221 114.456 24.661C114.762 26.8949 114.762 29.1289 114.631 31.3628C114.5 33.5967 114.238 35.7869 113.888 37.9332C113.188 42.2697 112.138 46.5624 111.001 50.8112C109.82 55.0601 108.508 59.2213 107.109 63.3826C105.709 67.5439 104.135 71.6175 102.517 75.6912C100.898 79.7648 99.1489 83.7947 97.3557 87.7369C96.4373 89.708 95.5188 91.723 94.5566 93.6941C93.5944 95.6652 92.6323 97.6363 91.6701 99.5637C89.702 103.462 87.7339 107.361 85.6783 111.215C83.6227 115.07 81.5234 118.881 79.3804 122.691C78.287 124.575 77.2373 126.502 76.1439 128.386C75.0505 130.269 73.9134 132.153 72.7763 134.036L72.7326 134.124C72.2077 134.956 71.1581 135.219 70.3271 134.693C70.1521 134.562 69.9772 134.431 69.846 134.255C67.8779 131.583 65.9098 128.911 64.0292 126.196C62.1485 123.48 60.2679 120.764 58.431 118.005C56.6378 115.245 54.8009 112.485 53.0515 109.682C51.3021 106.879 49.5964 104.032 47.9345 101.184C47.847 101.053 47.8907 100.878 48.0219 100.834C48.0219 100.746 48.1531 100.79 48.2406 100.922Z" fill="#1D4557"/>
<path d="M25.7165 79.1077C25.3229 80.4218 25.0168 81.7359 24.973 83.05C24.9293 84.3203 25.0605 85.5905 25.4104 86.7294C26.1539 89.051 27.6846 90.9783 29.609 92.5114C31.5334 94.0883 33.7639 95.3585 36.0819 96.3222C37.2627 96.804 38.4436 97.2421 39.6682 97.5925C40.2805 97.7677 40.8928 97.9429 41.5051 98.0743C41.8112 98.1619 42.1174 98.2057 42.4235 98.2495L42.8609 98.3371L43.342 98.4247C48.6777 99.3884 54.0572 100.659 59.5242 100.965C62.2358 101.097 64.9911 101.053 67.7027 100.746C70.4143 100.44 73.1259 99.9578 75.7501 99.257C78.3742 98.5561 80.9546 97.6801 83.4475 96.7164C85.9842 95.7528 88.4334 94.7015 90.8389 93.6064C93.2443 92.4676 95.6498 91.1973 97.9678 89.8394C100.286 88.5253 102.604 87.1236 104.834 85.6782C105.928 84.9335 107.065 84.2327 108.114 83.488C109.208 82.7434 110.214 81.9549 111.22 81.1227C113.188 79.502 114.981 77.7061 116.249 75.6911C116.862 74.6837 117.299 73.6324 117.561 72.5373C117.78 71.4423 117.736 70.3034 117.474 69.1645C117.168 68.0257 116.599 66.843 115.899 65.7479C115.2 64.6529 114.325 63.6016 113.363 62.5941C113.275 62.5065 113.275 62.3313 113.363 62.1999C113.45 62.1123 113.581 62.1123 113.669 62.1561C114.937 62.8131 116.118 63.6016 117.211 64.5652C118.305 65.5289 119.311 66.7116 120.011 68.1133C120.754 69.5149 121.148 71.1795 121.148 72.844C121.104 74.5085 120.71 76.1292 120.098 77.5746C119.486 79.0201 118.655 80.378 117.736 81.5607C116.818 82.7872 115.812 83.8822 114.762 84.9335C113.713 85.9848 112.619 86.9046 111.482 87.8245C110.345 88.7005 109.164 89.5766 107.983 90.365C105.621 91.9419 103.085 93.2998 100.548 94.5701C98.0115 95.7966 95.4311 96.9354 92.7632 97.9867C91.4512 98.5123 90.0953 98.9504 88.7395 99.3884C87.3837 99.7826 85.9842 100.133 84.6284 100.44C83.2289 100.746 81.8293 100.965 80.4735 101.184C79.074 101.36 77.6744 101.579 76.2749 101.71C70.6767 102.279 65.166 102.498 59.6116 102.761C54.0572 103.024 48.4153 103.418 42.8609 102.893L42.3361 102.849L41.7675 102.761C41.3739 102.717 41.024 102.63 40.6304 102.586C39.8869 102.455 39.1434 102.279 38.4436 102.06C37.0003 101.666 35.6445 101.097 34.2887 100.483C31.6208 99.2132 29.0842 97.5487 26.9411 95.3585C25.8915 94.2635 24.9293 93.037 24.2295 91.6353C23.486 90.2336 23.0049 88.7443 22.83 87.1674C22.655 85.5905 22.83 84.0575 23.3111 82.612C23.7922 81.2103 24.4919 79.8962 25.3229 78.7573C25.4104 78.6259 25.5853 78.6259 25.7165 78.7135C25.7165 78.8887 25.7165 79.0201 25.7165 79.1077Z" fill="#1D4557"/>
<path d="M130.988 49.1467C128.145 51.95 125.784 53.5269 123.247 55.8047L130.988 49.1467Z" fill="#3B9BD8"/>
<path d="M132.213 50.4169C130.726 51.4682 129.239 52.3881 127.708 53.2203C126.177 54.0964 124.69 54.8848 123.247 55.8047C124.297 54.4468 125.478 53.1327 126.615 51.8624C127.752 50.5483 128.801 49.2781 129.764 47.9202C130.332 47.1317 131.426 46.9127 132.257 47.4822C133.044 48.0516 133.262 49.1467 132.694 49.9789C132.563 50.1103 132.432 50.2855 132.213 50.4169Z" fill="#3B9BD8"/>
<path d="M1.92432 56.7684C1.92432 56.7684 10.584 61.8933 14.4764 64.5215L1.92432 56.7684Z" fill="#3B9BD8"/>
<path d="M2.84283 55.2791C4.81094 56.8122 6.77904 58.3015 8.74714 59.8784C10.7152 61.4115 12.6396 62.9446 14.5202 64.5653C12.2897 63.4264 10.0592 62.4189 7.82869 61.3677C5.59818 60.3164 3.32393 59.3089 1.09341 58.3015C0.218696 57.9073 -0.174924 56.856 0.218696 55.9799C0.612317 55.1039 1.66197 54.7097 2.53668 55.1039C2.62416 55.1039 2.71163 55.1915 2.84283 55.2791Z" fill="#3B9BD8"/>
<path d="M62.0605 1.92731C62.0605 1.92731 64.9908 14.1921 65.2533 19.6674L62.0605 1.92731Z" fill="#3B9BD8"/>
<path d="M63.7227 1.53312C63.9413 3.06622 64.1163 4.55551 64.2912 6.0448C64.4662 7.5341 64.6411 9.06719 64.7723 10.5565C64.9035 12.0458 65.0347 13.5789 65.1222 15.112C65.2097 16.6451 65.2972 18.1344 65.2097 19.6675C64.991 18.1782 64.6411 16.7327 64.2475 15.2434C63.8539 13.7979 63.4603 12.3524 63.0229 10.9069C62.5855 9.46142 62.1482 8.01593 61.7108 6.61424C61.2735 5.16875 60.7924 3.76706 60.3113 2.36537C60.0051 1.44552 60.4862 0.438054 61.4047 0.131435C62.3231 -0.175184 63.329 0.306646 63.6352 1.2265C63.6789 1.31411 63.7227 1.40171 63.7227 1.53312Z" fill="#3B9BD8"/>
</g>
<defs>
<clipPath id="clip0">
<rect width="133" height="135" fill="white"/>
</clipPath>
</defs>
</svg>
