<svg width="100%" height="100%" viewBox="0 0 1920 2424" fill="none" xmlns="http://www.w3.org/2000/svg">
<path fill-rule="evenodd" clip-rule="evenodd" d="M1146.52 2422.5C1069.8 2420.76 994.514 2406.84 919.822 2390.2C860.725 2377.04 805.126 2353.31 749.381 2330.4C729.818 2322.36 708.724 2314.98 692.712 2301.93C635.658 2255.41 580.14 2206.97 524.71 2158.49C477.154 2116.9 434.957 2068.8 377.695 2039.17C353.288 2026.54 330.062 2010.5 304.345 2001.76C242.5 1980.73 179.731 1962.29 116.905 1944.31C60.6445 1928.21 4.04071 1913.14 -52.9005 1899.68C-70.895 1895.43 -89.916 1889.04 -109.394 1900.37C-143.732 1920.34 -179.196 1938.38 -214.178 1957.26C-261.803 1982.95 -305.608 2014.26 -347.952 2047.79C-394.984 2085.02 -444.569 2117.47 -505.393 2127.58C-546.713 2134.44 -585.014 2129.04 -616.022 2098.05C-619.842 2094.23 -622.534 2086.07 -621.294 2081.01C-617.69 2066.26 -611.731 2052.1 -606.862 2037.65C-596.973 2008.3 -585.813 1979.28 -577.674 1949.44C-564.427 1900.87 -554.66 1851.33 -540.675 1802.99C-527.034 1755.83 -505.146 1711.81 -475.601 1672.5C-443.021 1629.14 -408.01 1587.62 -374.758 1544.77C-357.254 1522.2 -338.571 1499.91 -325.236 1474.93C-308.651 1443.86 -297.077 1410.11 -283.243 1377.56C-279.999 1369.93 -274.384 1362.75 -273.241 1354.87C-266.02 1305.05 -259.109 1255.16 -253.349 1205.15C-247.68 1155.92 -243.522 1106.51 -238.664 1057.18C-230.922 978.484 -221.889 899.883 -215.806 821.054C-211.402 763.973 -201.459 708.419 -179.264 655.761C-140.635 564.103 -93.9459 476.631 -36.5255 395.232C-18.9054 370.256 -2.05951 343.714 20.0358 323.143C59.1527 286.718 102.274 254.624 143.237 220.141C177.831 191.024 211.956 161.439 252.046 139.73C271.093 129.415 289.164 117.256 308.434 107.419C338.524 92.0584 368.895 77.1396 399.805 63.5169C447.634 42.4384 496.01 22.6074 544.157 2.24725C551.655 -0.922412 556.675 0.276526 561.567 8.02594C612.47 88.6606 664.307 168.669 704.391 255.611C720.681 290.951 733.19 327.252 740.629 365.273C752.912 428.064 760.172 491.47 760.49 555.501C760.748 607.08 764.809 659.222 758.723 710.101C751.12 773.664 736.815 836.662 721.824 899.043C703.126 976.843 676.519 1052.2 640.414 1123.94C634.659 1135.37 629.881 1147.29 623.117 1162.42C629.543 1158.77 633 1157.26 635.95 1155.07C656.409 1139.87 676.975 1124.79 697.108 1109.16C737.83 1077.54 778.686 1046.07 818.741 1013.62C849.279 988.879 878.734 962.796 908.555 937.171C930.922 917.949 951.075 895.238 975.83 879.911C1016.55 854.695 1059.15 831.859 1102.89 812.358C1150.99 790.915 1200.12 769.919 1250.88 756.741C1326.62 737.072 1404.19 724.416 1480.99 708.798C1498.73 705.187 1516.37 700.806 1534.26 698.294C1568.6 693.484 1603.09 689.78 1637.51 685.576C1719.41 675.58 1801.47 670.34 1883.95 676.944C1894.15 677.761 1904.63 677.842 1914.46 680.329C1961.45 692.209 2008.25 704.83 2055.15 717.062C2056.94 717.53 2058.92 717.309 2061.36 717.164C2062.02 717.749 2062.68 718.346 2063.34 718.933C2129.73 777.943 2178.84 854.044 2210.53 939.035C2150.03 1023.64 2066.37 1081.65 1982.8 1151.14C1977.91 1154.46 1974.46 1159.23 1971.49 1164.75C1968.76 1169.83 1966.41 1175.56 1963.82 1181.53C1963.8 1181.05 1963.79 1180.62 1963.76 1180.13C1958.91 1182.95 1955.9 1184.6 1952.99 1186.4C1930.84 1200.01 1908.62 1213.51 1886.61 1227.33C1854.02 1247.79 1820.04 1266.44 1789.37 1289.48C1714.1 1346.03 1640.18 1404.38 1566.13 1462.53C1532.16 1489.21 1492.37 1504.71 1454.18 1523.31C1349.27 1574.42 1243.42 1623.36 1133.4 1662.76C1078.53 1682.42 1024.17 1703.66 968.754 1721.65C919.808 1737.55 872.461 1756.41 827.734 1781.8C824.606 1783.58 821.816 1785.94 817.902 1788.73C820.84 1790.77 821.96 1792.06 823.324 1792.43C853.681 1800.76 883.609 1811.97 914.524 1816.68C1009.14 1831.09 1104.17 1842.68 1198.95 1856.02C1242.96 1862.22 1287.12 1868.2 1330.57 1877.34C1409.16 1893.89 1487.51 1911.76 1565.5 1930.95C1617.52 1943.76 1668.8 1959.62 1720.33 1974.43C1789.79 1994.39 1857.15 2020.02 1921.5 2052.89C1942.04 2063.38 1960.33 2078.18 1980.26 2089.97C2010.41 2107.78 2041.2 2124.5 2071.5 2142.04C2092.53 2154.2 2113.21 2166.97 2135.32 2180.24C2131.57 2183.01 2129.57 2184.84 2127.27 2186.12C2102.21 2200.15 2077.05 2214 2052.01 2228.06C1992.79 2261.31 1931.21 2289.58 1867.39 2312.63C1804.41 2335.39 1740.94 2356.79 1677.53 2378.34C1627.49 2395.35 1577 2409.28 1523.37 2410.89C1451.7 2413.05 1380.14 2418.7 1308.48 2421.2C1254.54 2423.08 1200.48 2423.72 1146.52 2422.5Z" fill="#E8E6DF"/>
</svg>
