<svg width="100%" height="100%" viewBox="0 0 369 650" fill="none" xmlns="http://www.w3.org/2000/svg">
<g clip-path="url(#clip0)">
<path d="M323.183 2.8007C304.089 3.27406 284.995 3.55019 265.9 3.90521L237.279 4.45746C227.752 4.65469 218.185 4.85192 208.657 5.0886C199.13 5.32528 189.603 5.60141 180.036 5.91698C170.509 6.23255 160.981 6.58757 151.454 6.98204C141.926 7.3765 132.399 7.84986 122.911 8.40211C113.423 8.95436 103.896 9.54606 94.447 10.2955C84.959 11.045 75.5104 11.9129 66.1011 13.0174C56.6918 14.1219 47.3219 15.4236 38.2276 17.317C33.7001 18.2637 29.1727 19.3682 25.0389 20.8278C22.9523 21.5378 20.9839 22.3662 19.291 23.3129C18.4642 23.7863 17.7556 24.2596 17.2438 24.733C16.732 25.1669 16.4958 25.5614 16.5745 25.5219C16.5745 25.5219 16.5745 25.4825 16.5745 25.5219L16.5351 25.6008C16.5351 25.6797 16.4958 25.7586 16.4958 25.8769L16.417 26.1925C16.3383 26.6264 16.2595 27.1392 16.1808 27.6915C16.0233 28.7565 15.9446 29.9005 15.8265 31.0444C15.6296 33.3323 15.4721 35.6597 15.3147 38.0265C15.0391 42.7206 14.8422 47.4542 14.6848 52.2272C14.0549 71.2404 13.858 90.3326 13.7005 109.464C13.543 128.556 13.5037 147.688 13.5037 166.78L13.5824 195.458L13.7005 224.135C13.8186 243.267 13.9761 262.359 14.173 281.49C14.5667 319.714 15.0785 357.938 15.8265 396.162C16.5351 434.385 17.4406 472.609 18.7004 510.754C19.3303 529.846 20.1177 548.898 21.102 567.912C21.6138 577.418 22.1649 586.925 22.913 596.353C23.2673 601.047 23.7003 605.78 24.2121 610.396C24.4484 612.723 24.7239 615.011 25.0389 617.259C25.1964 618.364 25.3539 619.468 25.5507 620.573C25.7475 621.638 25.9444 622.664 26.1412 623.61C26.2593 624.084 26.3775 624.478 26.4562 624.794C26.4956 624.873 26.4956 624.951 26.5349 624.991C26.5743 625.07 26.5743 625.109 26.5743 625.149C26.5743 625.188 26.5743 625.188 26.5743 625.188C26.5743 625.228 26.5349 625.109 26.4956 625.03C26.4562 624.951 26.3775 624.833 26.3381 624.754C26.2987 624.675 26.22 624.596 26.22 624.557C26.1412 624.478 26.1019 624.439 26.1019 624.439C26.1019 624.439 26.22 624.557 26.4562 624.675C26.8893 624.951 27.5979 625.306 28.4247 625.661C29.2514 626.017 30.1569 626.332 31.1411 626.648C33.0702 627.279 35.1962 627.792 37.3615 628.265C39.5268 628.738 41.7709 629.133 44.0149 629.527C53.0305 630.987 62.4004 631.894 71.7703 632.604C81.1402 633.275 90.5888 633.748 100.037 634.064C109.486 634.379 118.974 634.576 128.462 634.655C147.438 634.813 166.454 634.576 185.43 634.024C204.445 633.511 223.421 632.644 242.358 631.46C251.846 630.868 261.294 630.158 270.743 629.33C280.192 628.502 289.601 627.594 299.01 626.45C308.38 625.306 317.711 624.005 326.844 622.269C331.411 621.401 335.939 620.415 340.19 619.192C342.316 618.561 344.403 617.891 346.214 617.141C347.119 616.747 347.986 616.352 348.615 615.958C348.93 615.76 349.206 615.603 349.403 615.445C349.56 615.326 349.639 615.248 349.521 615.366C349.482 615.405 349.482 615.445 349.403 615.524C349.363 615.642 349.324 615.682 349.324 615.721C349.324 615.76 349.324 615.721 349.324 615.721L349.363 615.563C349.442 615.287 349.6 614.893 349.678 614.459C349.915 613.551 350.111 612.486 350.308 611.421C350.702 609.252 350.978 606.964 351.253 604.676C351.804 600.061 352.198 595.367 352.552 590.633C353.261 581.205 353.812 571.699 354.245 562.192C355.151 543.139 355.781 524.087 356.292 504.995C356.804 485.902 357.198 466.81 357.513 447.679C357.828 428.587 358.103 409.455 358.261 390.323C358.418 371.192 358.576 352.1 358.655 332.968C358.694 313.837 358.733 294.745 358.694 275.613L358.576 246.935L358.379 218.258C358.182 199.126 357.946 180.034 357.592 160.902C357.198 141.771 356.726 122.679 355.978 103.547C355.584 94.0011 355.151 84.455 354.521 74.909C354.206 70.1359 353.852 65.3629 353.419 60.6293C352.985 55.8563 352.474 51.1227 351.608 46.4286C352.67 51.0833 353.34 55.8563 354.009 60.5899C354.639 65.3235 355.151 70.0965 355.663 74.8695C356.647 84.3761 357.395 93.9222 358.103 103.468C358.812 113.014 359.403 122.56 359.993 132.106C360.544 141.653 361.096 151.199 361.529 160.784C362.473 179.916 363.261 199.008 363.93 218.139L364.914 246.817L365.741 275.495C366.253 294.626 366.686 313.758 367.001 332.889C367.316 352.021 367.631 371.152 367.828 390.284C368.025 409.416 368.103 428.547 368.143 447.718C368.182 466.85 368.064 486.021 367.867 505.152C367.631 524.323 367.316 543.455 366.647 562.665C366.292 572.251 365.899 581.876 365.269 591.501C364.954 596.313 364.599 601.165 364.088 606.057C363.812 608.502 363.536 610.987 363.143 613.512C362.946 614.814 362.71 616.076 362.355 617.496C362.198 618.206 362.001 618.956 361.686 619.823C361.607 620.06 361.529 620.297 361.45 620.533C361.332 620.81 361.253 621.046 361.096 621.362C360.938 621.638 360.781 621.993 360.584 622.348C360.387 622.703 360.19 622.979 359.954 623.255C359.127 624.36 358.3 625.109 357.552 625.701C356.804 626.332 356.056 626.805 355.387 627.239C354.009 628.068 352.67 628.699 351.411 629.291C348.852 630.395 346.371 631.223 343.93 631.973C339.049 633.432 334.246 634.537 329.443 635.523C319.836 637.495 310.27 638.916 300.703 640.217C291.136 641.48 281.569 642.545 272.003 643.491C262.436 644.438 252.869 645.227 243.302 645.898C205.035 648.659 166.69 650.079 128.305 650C109.092 649.921 89.8802 649.487 70.5498 648.146C65.7074 647.791 60.865 647.397 56.0226 646.884C51.1801 646.371 46.2983 645.779 41.3772 644.99C38.9363 644.596 36.456 644.122 33.9364 643.61C31.4167 643.057 28.8971 642.466 26.2987 641.637C24.9995 641.203 23.661 640.77 22.283 640.178C20.9051 639.586 19.4485 638.916 17.8737 637.929C17.0863 637.417 16.2595 636.825 15.354 635.997C14.4879 635.168 13.5037 634.103 12.6769 632.644C12.5194 632.328 12.3226 631.934 12.2045 631.697C12.0864 631.421 11.9683 631.145 11.8502 630.908C11.7321 630.671 11.6533 630.435 11.5746 630.198C11.4958 629.961 11.4171 629.764 11.3777 629.567C11.1022 628.738 10.9053 627.989 10.7478 627.318C10.3935 625.898 10.1573 624.596 9.92107 623.295C9.68486 621.993 9.48801 620.77 9.33053 619.508C8.97621 617.023 8.70062 614.577 8.42504 612.131C7.91324 607.24 7.48017 602.427 7.08648 597.615C6.33846 587.99 5.78729 578.365 5.27549 568.78C4.29126 549.609 3.58261 530.438 2.9527 511.267C1.77162 472.964 1.06297 434.661 0.551171 396.398C0.275585 358.056 0.0393693 319.793 0 281.49C0 262.359 0.0393693 243.227 0.118108 224.056L0.314955 195.339L0.629909 166.622C0.866125 147.53 1.18108 128.359 1.61414 109.227C2.08657 90.0564 2.63775 70.9249 3.58261 51.7144C3.81883 46.9019 4.09441 42.0895 4.44873 37.277C4.64558 34.8707 4.84243 32.4251 5.11801 29.9399C5.23612 28.7171 5.3936 27.4548 5.59045 26.1531C5.70855 25.4825 5.78729 24.8513 5.94477 24.1018C5.98414 23.9046 6.02351 23.7468 6.06288 23.5496C6.10225 23.3524 6.14162 23.1551 6.22035 22.9579C6.25972 22.7607 6.33846 22.524 6.4172 22.2478C6.49594 22.0112 6.61405 21.6561 6.73216 21.4195C7.20459 20.2755 7.8345 19.3682 8.46441 18.5793C9.09432 17.7904 9.76359 17.1592 10.4329 16.607C11.7321 15.5025 13.0312 14.7136 14.3304 14.043C16.8894 12.7018 19.3303 11.7945 21.8106 11.0056C26.6924 9.42772 31.5348 8.40211 36.3773 7.49484C41.1803 6.62702 46.0228 5.91698 50.7864 5.28584C55.5895 4.69414 60.3926 4.18133 65.1956 3.74742C74.8017 2.8796 84.3685 2.24845 93.9352 1.77509C113.069 0.788931 132.202 0.355019 151.336 0.11834C160.863 0.0394465 170.43 0 179.997 0C189.563 0 199.091 0.0788931 208.657 0.157786C218.224 0.276126 227.752 0.394465 237.318 0.591698C246.885 0.749484 256.412 0.986163 265.979 1.22284C285.034 1.6962 304.128 2.24845 323.183 2.8007Z" fill="white"/>
<path d="M153.58 578.562C153.58 595.643 169.642 604.36 180.429 604.321C193.658 604.282 207.634 596.787 207.634 576.393C207.634 559.036 191.886 550.477 180.587 550.477C169.288 550.477 153.58 561.482 153.58 578.562Z" fill="white"/>
<path d="M199.406 548.78C197.674 548.583 195.981 548.819 194.366 549.214C192.713 549.569 191.138 550.082 189.563 550.713C186.453 551.936 183.579 553.553 181.02 555.486C180.39 555.959 179.76 556.472 179.17 557.024C178.579 557.537 177.989 558.089 177.477 558.681C176.926 559.233 176.414 559.825 175.942 560.456C175.469 561.048 174.997 561.679 174.603 562.31C172.95 564.874 171.808 567.714 171.257 570.673C170.981 572.132 170.824 573.671 170.784 575.17C170.784 576.669 170.824 578.247 171.02 579.746C171.217 581.245 171.532 582.704 171.965 584.124C172.398 585.544 172.95 586.846 173.658 588.108C175.076 590.593 177.005 592.684 179.367 594.262C180.548 595.051 181.808 595.721 183.146 596.195C184.485 596.708 185.863 597.102 187.28 597.299C187.989 597.418 188.697 597.457 189.367 597.496H189.878H190.43C190.823 597.496 191.178 597.457 191.571 597.457C193.067 597.378 194.563 597.181 196.02 596.826C198.933 596.155 201.689 595.051 204.091 593.394C206.453 591.737 208.421 589.607 209.799 587.083C210.508 585.82 211.02 584.44 211.453 582.98C211.886 581.56 212.161 580.022 212.319 578.483C212.358 578.089 212.398 577.694 212.398 577.3C212.437 576.905 212.437 576.511 212.476 576.116C212.516 575.367 212.516 574.578 212.437 573.829C212.358 572.33 212.083 570.831 211.65 569.411C210.784 566.57 209.13 563.927 206.886 561.758C204.642 559.588 201.768 557.892 198.697 556.709C197.162 556.117 195.548 555.644 193.894 555.328C192.241 554.973 190.548 554.815 188.815 554.855C192.162 553.908 195.784 553.948 199.288 554.579C202.792 555.249 206.295 556.59 209.366 558.76C210.902 559.865 212.319 561.166 213.539 562.626C214.76 564.125 215.783 565.782 216.571 567.596C217.358 569.371 217.87 571.265 218.185 573.197C218.342 574.144 218.461 575.091 218.5 576.077C218.539 576.55 218.539 577.024 218.539 577.497C218.539 577.97 218.539 578.444 218.539 578.917C218.461 582.665 217.673 586.57 215.98 590.199C215.114 592.013 214.051 593.71 212.791 595.287C211.532 596.826 210.035 598.246 208.461 599.429C205.272 601.836 201.61 603.413 197.831 604.36C195.941 604.834 194.052 605.149 192.122 605.267C191.65 605.307 191.178 605.346 190.666 605.346H189.957H189.209C188.186 605.307 187.162 605.228 186.178 605.11C182.201 604.557 178.383 603.098 175.036 600.81C173.383 599.666 171.808 598.325 170.469 596.826C169.131 595.327 167.95 593.631 167.005 591.856C166.06 590.081 165.312 588.227 164.8 586.294C164.288 584.4 163.934 582.467 163.816 580.534C163.737 579.588 163.698 578.641 163.698 577.694C163.698 576.748 163.698 575.801 163.816 574.854C163.973 572.961 164.328 571.028 164.839 569.174C165.863 565.426 167.713 561.916 170.154 558.957C171.375 557.498 172.713 556.157 174.209 554.973C175.666 553.79 177.201 552.764 178.816 551.896C179.642 551.462 180.43 551.068 181.256 550.673C182.083 550.318 182.949 549.963 183.776 549.687C185.469 549.096 187.241 548.662 188.973 548.346C190.745 548.031 192.516 547.873 194.288 547.912C195.193 547.912 196.059 547.991 196.925 548.149C197.713 548.188 198.579 548.386 199.406 548.78Z" fill="#1D4557"/>
<path d="M38.4245 387.444L39.9205 406.97L41.3772 426.456C42.322 439.434 43.1882 452.452 44.0543 465.43C45.7865 491.425 47.4007 517.381 49.2117 543.297C49.6447 549.766 50.1565 556.236 50.7077 562.705C51.2195 569.174 51.8494 575.604 52.4793 582.034C52.8336 585.229 53.188 588.424 53.621 591.619C54.0541 594.775 54.5265 597.931 55.1171 600.968C55.432 602.467 55.7863 603.966 56.2194 605.268C56.4163 605.899 56.6918 606.49 56.8099 606.767C56.8493 606.806 56.8493 606.846 56.8099 606.806C56.8099 606.806 56.8099 606.806 56.7706 606.767L56.7312 606.727C56.7312 606.727 56.6918 606.688 56.7312 606.727L56.8099 606.806C56.9281 606.924 57.1643 607.082 57.4005 607.24C58.3847 607.871 59.7626 608.423 61.1406 608.936C62.5579 609.449 64.0539 609.883 65.5499 610.317C71.6128 611.974 77.9513 613.157 84.2898 614.301C90.6676 615.405 97.0454 616.392 103.463 617.299C109.88 618.246 116.336 619.074 122.754 619.942L142.123 622.427C138.856 622.506 135.588 622.466 132.36 622.427C129.092 622.387 125.864 622.309 122.596 622.23C116.061 622.072 109.565 621.796 103.069 621.401C96.573 621.007 90.0377 620.494 83.5417 619.784C80.2741 619.429 77.0064 619.034 73.7781 618.561C70.5105 618.088 67.2428 617.535 63.9752 616.786C62.3217 616.431 60.6681 615.997 59.0146 615.484C57.3217 614.932 55.6682 614.38 53.8179 613.354C53.3454 613.078 52.873 612.802 52.3612 612.407L51.9675 612.092C51.9282 612.092 51.8888 612.013 51.8494 611.974L51.6919 611.855C51.5738 611.776 51.5345 611.697 51.4557 611.579C51.1408 611.224 50.9439 610.948 50.7471 610.632C50.0384 609.488 49.6841 608.621 49.3298 607.713C48.6605 605.938 48.2274 604.281 47.7944 602.585C46.2196 595.958 45.2747 589.45 44.4086 582.941C42.7157 569.924 41.574 556.867 40.5898 543.849C38.7 517.775 37.6764 491.701 37.2434 465.627C37.0465 452.57 36.9678 439.553 37.1253 426.496C37.204 419.987 37.3221 413.439 37.5583 406.93L37.9127 397.148C38.0308 393.992 38.1882 390.718 38.4245 387.444Z" fill="#1D4557"/>
<path d="M346.962 229.342C345.033 205.004 343.616 180.665 342.316 156.366C341.017 132.067 339.915 107.729 338.576 83.469C338.261 77.3943 337.868 71.3589 337.513 65.2842C337.12 59.2488 336.687 53.2135 336.175 47.1782C335.899 44.1803 335.624 41.1823 335.269 38.2238C334.915 35.2654 334.521 32.3069 333.97 29.5062C333.694 28.1255 333.379 26.7055 332.986 25.6404C332.907 25.3643 332.789 25.1276 332.71 24.9698C332.631 24.812 332.553 24.7331 332.75 24.9304L332.789 24.9698L332.75 24.9304C332.75 24.9304 332.71 24.8909 332.671 24.8909C332.671 24.8515 332.631 24.8515 332.592 24.812C332.553 24.7726 332.513 24.7726 332.474 24.7331C332.317 24.6148 332.08 24.4964 331.844 24.3781C330.86 23.9047 329.521 23.4708 328.183 23.1158C326.844 22.7608 325.427 22.4847 323.97 22.2085C318.222 21.1829 312.199 20.6307 306.175 20.1573C300.152 19.7234 294.128 19.3684 288.065 19.1317C275.94 18.5795 263.774 18.3033 251.609 17.9483C257.672 17.1988 263.735 16.6071 269.798 16.1338C275.861 15.6604 281.963 15.266 288.065 14.9898C294.168 14.7137 300.27 14.5559 306.411 14.6348C309.482 14.6743 312.553 14.7137 315.624 14.8715C318.695 15.0293 321.805 15.2265 324.954 15.621C326.529 15.8182 328.104 16.0549 329.718 16.4099C331.332 16.7649 332.946 17.1594 334.757 17.9089C335.19 18.1061 335.663 18.3033 336.135 18.6189C336.253 18.6978 336.372 18.7767 336.49 18.8556C336.608 18.9345 336.726 19.0134 336.883 19.0923C337.001 19.1712 337.12 19.2501 337.277 19.3684L337.474 19.5262L337.592 19.6051L337.749 19.7234C338.498 20.4729 338.812 21.0251 339.088 21.538C339.364 22.0508 339.56 22.5241 339.757 22.958C340.112 23.8653 340.387 24.6542 340.623 25.4826C340.86 26.311 341.056 27.0999 341.253 27.8888C342.001 31.0446 342.513 34.082 343.025 37.1588C343.497 40.2356 343.891 43.273 344.245 46.3498C345.663 58.5783 346.529 70.7672 347.237 82.9562C348.615 107.334 349.167 131.752 349.167 156.13C349.167 168.319 349.009 180.507 348.694 192.736C348.537 198.85 348.3 204.925 348.025 211.039C347.749 217.153 347.434 223.228 346.962 229.342Z" fill="#1D4557"/>
<path d="M175.863 191.75C178.343 186.7 212.279 186.385 218.342 188.752C227.24 192.223 221.531 245.357 228.224 247.764C234.917 250.17 274.404 249.933 281.097 255.811C287.79 261.688 285.231 297.624 279.68 301.727C275.585 304.764 232.2 301.293 228.342 307.525C224.956 313.008 232.2 358.648 225.626 363.776C219.72 368.352 183.028 364.131 181.689 358.49C178.737 346.025 177.989 318.965 173.107 308.235C168.579 298.334 129.131 302.397 122.911 298.492C118.029 295.455 114.525 256.994 126.848 255.614C144.249 253.641 159.643 256.008 176.453 254.351C176.414 254.312 173.304 196.878 175.863 191.75Z" fill="#FF775D"/>
<path d="M163.934 256.915C157.713 257.113 151.493 257.192 145.273 257.349C139.052 257.507 132.871 257.625 126.651 257.941C120.47 258.257 114.289 258.69 108.147 259.44L107.006 259.558C106.809 259.598 106.612 259.598 106.455 259.637C106.297 259.677 106.179 259.677 106.022 259.716C105.47 259.874 104.959 260.111 104.526 260.505C103.62 261.255 102.872 262.398 102.36 263.7C101.809 265.002 101.455 266.422 101.14 267.842C100.864 269.302 100.667 270.761 100.549 272.26C100.313 275.258 100.313 278.295 100.47 281.333C100.628 284.37 100.904 287.408 101.337 290.445C101.77 293.443 102.321 296.441 103.108 299.36C103.502 300.78 103.935 302.239 104.447 303.502C104.722 304.133 104.998 304.764 105.313 305.198C105.431 305.435 105.588 305.592 105.628 305.592C105.628 305.592 105.628 305.592 105.588 305.553C105.588 305.553 105.51 305.514 105.549 305.514L105.588 305.553C105.667 305.592 105.746 305.632 105.864 305.671C106.337 305.829 107.006 305.987 107.714 306.105C108.423 306.224 109.132 306.302 109.88 306.381C111.336 306.539 112.872 306.657 114.407 306.736C117.478 306.894 120.549 306.973 123.659 307.052C129.879 307.21 136.1 307.368 142.438 307.841C145.588 308.078 148.777 308.433 151.966 308.985C153.58 309.261 155.194 309.616 156.847 310.129C158.501 310.642 160.154 311.233 161.887 312.259C162.753 312.811 163.619 313.482 164.406 314.428C164.603 314.665 164.8 314.941 164.957 315.217C165.036 315.375 165.115 315.493 165.194 315.651C165.272 315.809 165.351 315.967 165.391 316.046C165.587 316.48 165.784 316.914 165.942 317.347C166.611 319.044 167.044 320.661 167.398 322.278C168.146 325.473 168.619 328.629 169.052 331.785C169.879 338.057 170.351 344.329 170.902 350.522C171.178 353.638 171.414 356.715 171.768 359.753C171.926 361.251 172.123 362.79 172.32 364.21C172.438 364.92 172.556 365.63 172.674 366.301C172.753 366.616 172.831 366.932 172.91 367.208C172.989 367.484 173.068 367.721 173.107 367.721C173.107 367.721 173.107 367.681 172.91 367.405C172.871 367.366 172.792 367.247 172.674 367.168C172.595 367.09 172.556 367.05 172.477 367.011C172.398 366.932 172.398 366.932 172.359 366.932L172.32 366.892H172.359L172.477 366.932C172.595 366.971 172.713 367.011 172.831 367.05C173.382 367.247 174.052 367.405 174.76 367.563C176.138 367.878 177.634 368.194 179.091 368.431C182.044 368.944 185.075 369.338 188.107 369.693C191.138 370.048 194.169 370.324 197.201 370.521C200.232 370.719 203.264 370.837 206.216 370.837C207.713 370.837 209.169 370.758 210.587 370.64C212.004 370.521 213.382 370.324 214.484 370.048C214.642 370.009 214.76 369.969 214.878 369.93C214.996 369.89 215.114 369.851 215.193 369.811C215.311 369.772 215.35 369.732 215.429 369.693C215.468 369.654 215.547 369.654 215.508 369.654C215.547 369.654 215.429 369.693 215.429 369.732C215.39 369.732 215.39 369.772 215.429 369.732C215.468 369.693 215.547 369.575 215.626 369.417C215.783 369.062 215.98 368.51 216.098 367.918C216.256 367.326 216.374 366.656 216.453 365.985C216.846 363.263 216.925 360.226 216.925 357.228C216.925 354.191 216.846 351.153 216.728 348.076C216.492 341.923 216.059 335.73 215.823 329.379C215.783 327.801 215.744 326.184 215.705 324.566C215.705 322.949 215.744 321.292 215.901 319.517C215.98 318.61 216.098 317.702 216.413 316.559C216.492 316.282 216.571 315.967 216.728 315.612C216.846 315.257 217.043 314.902 217.319 314.428C217.594 313.955 217.949 313.561 218.264 313.245C218.578 312.929 218.893 312.693 219.208 312.456C219.799 312.022 220.35 311.746 220.862 311.509C221.374 311.273 221.846 311.115 222.319 310.957C223.263 310.642 224.13 310.405 224.996 310.247C226.689 309.892 228.342 309.655 229.956 309.458C231.57 309.261 233.184 309.143 234.759 309.024C237.948 308.788 241.098 308.669 244.247 308.59C250.507 308.393 256.767 308.393 262.869 308.235C264.404 308.196 265.94 308.156 267.396 308.038C268.892 307.959 270.389 307.841 271.648 307.644C271.963 307.604 272.278 307.525 272.514 307.486C272.633 307.446 272.751 307.446 272.79 307.407C272.829 307.407 272.869 307.368 272.79 307.407C272.751 307.407 272.711 307.446 272.711 307.446C272.672 307.486 272.593 307.525 272.554 307.525C272.514 307.525 272.514 307.565 272.514 307.565C272.514 307.565 272.514 307.565 272.554 307.525C272.633 307.486 272.751 307.289 272.829 307.131C273.066 306.736 273.341 306.184 273.577 305.592C273.814 305.001 274.05 304.37 274.247 303.699C275.034 301.017 275.585 298.098 275.979 295.139C276.373 292.181 276.609 289.183 276.727 286.224C276.845 283.226 276.806 280.228 276.57 277.309C276.451 275.85 276.255 274.43 276.018 273.049C275.782 271.668 275.428 270.327 274.995 269.223C274.798 268.67 274.522 268.197 274.286 267.842C274.247 267.763 274.168 267.684 274.129 267.605C274.089 267.566 274.05 267.487 274.01 267.448L273.971 267.408C273.971 267.408 273.932 267.369 273.892 267.369C273.853 267.329 273.774 267.29 273.696 267.211C273.341 266.974 272.79 266.738 272.2 266.501C271.609 266.264 270.94 266.067 270.27 265.87C267.554 265.12 264.562 264.607 261.57 264.174C255.546 263.306 249.405 262.793 243.224 262.28L233.933 261.531C230.822 261.255 227.712 260.978 224.523 260.584C223.736 260.466 222.909 260.347 222.082 260.189C221.649 260.111 221.216 260.032 220.783 259.913C220.547 259.874 220.311 259.795 220.075 259.716C219.956 259.677 219.799 259.637 219.681 259.598C219.602 259.558 219.563 259.558 219.445 259.519C219.326 259.479 219.169 259.401 219.051 259.361C218.539 259.124 218.145 258.848 217.791 258.533C217.476 258.217 217.201 257.941 217.004 257.665C216.571 257.113 216.295 256.56 216.098 256.087C215.665 255.101 215.39 254.194 215.193 253.326C214.76 251.59 214.563 249.973 214.366 248.355C214.169 246.738 214.051 245.16 213.972 243.543C213.618 237.192 213.539 230.999 213.342 224.806C213.264 221.729 213.146 218.613 212.949 215.575C212.752 212.538 212.476 209.501 211.964 206.582C211.728 205.122 211.374 203.702 210.941 202.44C210.705 201.809 210.468 201.217 210.193 200.744C209.917 200.27 209.602 199.915 209.405 199.797L209.327 199.757H209.287C209.287 199.757 209.248 199.757 209.209 199.718C209.09 199.678 208.933 199.6 208.815 199.56C208.5 199.442 208.185 199.363 207.831 199.284C207.161 199.087 206.413 198.968 205.665 198.811C204.209 198.535 202.673 198.298 201.177 198.061C195.114 197.193 188.933 196.72 182.752 196.404C179.682 196.247 176.571 196.207 173.501 196.286C171.965 196.326 170.43 196.404 168.894 196.562C168.146 196.641 167.359 196.759 166.611 196.917C165.863 197.075 165.115 197.272 164.367 197.548C165.705 196.759 167.28 196.325 168.776 195.97C170.312 195.615 171.847 195.339 173.422 195.142C176.532 194.708 179.642 194.472 182.792 194.274C185.902 194.077 189.051 194.038 192.162 194.038C195.311 194.038 198.421 194.116 201.571 194.314C203.146 194.393 204.72 194.55 206.335 194.708C207.122 194.787 207.949 194.905 208.776 195.063C209.209 195.142 209.602 195.221 210.075 195.339C210.311 195.418 210.547 195.458 210.783 195.537C210.823 195.537 210.901 195.576 210.98 195.615L211.216 195.694C211.374 195.773 211.531 195.852 211.649 195.931C212.791 196.602 213.539 197.509 214.051 198.337C214.602 199.166 214.957 200.033 215.311 200.822C215.941 202.479 216.334 204.096 216.689 205.674C217.358 208.87 217.712 212.025 218.027 215.181C218.342 218.337 218.539 221.453 218.736 224.569C219.09 230.802 219.326 237.034 219.838 243.109C219.956 244.608 220.114 246.146 220.311 247.606C220.508 249.066 220.744 250.525 221.098 251.827C221.256 252.458 221.452 253.089 221.689 253.484C221.807 253.681 221.886 253.878 221.925 253.917C221.964 253.957 221.964 253.917 221.925 253.917C221.886 253.878 221.807 253.799 221.649 253.72C221.61 253.681 221.571 253.681 221.531 253.681C221.492 253.681 221.571 253.681 221.571 253.681L221.728 253.72C221.846 253.76 222.004 253.799 222.161 253.839C222.476 253.917 222.791 253.957 223.145 254.036C223.854 254.154 224.563 254.233 225.311 254.312C228.263 254.627 231.374 254.864 234.444 255.061L243.735 255.653C249.956 256.048 256.216 256.521 262.515 257.31C265.664 257.744 268.853 258.217 272.121 259.085C272.948 259.322 273.774 259.558 274.64 259.874C275.507 260.189 276.412 260.544 277.357 261.176C277.829 261.491 278.381 261.846 278.892 262.32C279.129 262.556 279.325 262.793 279.562 263.03C279.758 263.266 279.955 263.503 280.113 263.74C280.782 264.686 281.215 265.594 281.569 266.501C282.278 268.276 282.711 269.972 283.065 271.668C283.38 273.365 283.617 275.021 283.774 276.639C284.089 279.913 284.128 283.187 284.05 286.421C283.971 289.656 283.735 292.891 283.341 296.086C282.908 299.32 282.396 302.516 281.412 305.829C281.176 306.657 280.9 307.486 280.546 308.354C280.191 309.221 279.798 310.089 279.247 311.036C278.932 311.509 278.656 311.983 278.184 312.496C278.066 312.614 277.947 312.732 277.829 312.89C277.672 313.008 277.554 313.166 277.396 313.284C277.239 313.442 277.042 313.561 276.884 313.679C276.806 313.758 276.648 313.837 276.491 313.916C276.373 313.995 276.255 314.034 276.136 314.113C275.703 314.35 275.388 314.468 275.073 314.547C274.759 314.665 274.483 314.705 274.247 314.783C273.735 314.902 273.262 314.981 272.79 315.06C271.018 315.336 269.404 315.454 267.79 315.572C266.176 315.691 264.601 315.73 263.026 315.809C256.727 316.006 250.546 316.085 244.405 316.282C241.334 316.401 238.263 316.519 235.271 316.716C233.775 316.835 232.279 316.953 230.822 317.15C229.366 317.308 227.909 317.545 226.61 317.821C225.941 317.979 225.311 318.136 224.799 318.334C224.287 318.491 223.775 318.728 223.696 318.807C223.657 318.807 223.696 318.807 223.736 318.768C223.775 318.728 223.854 318.61 223.972 318.491C224.051 318.373 224.051 318.334 224.051 318.334C224.051 318.334 224.011 318.413 224.011 318.491C223.893 318.846 223.815 319.478 223.775 320.148C223.657 321.489 223.618 322.949 223.618 324.448C223.618 325.947 223.657 327.446 223.696 328.984C223.893 335.098 224.326 341.331 224.563 347.603C224.681 350.759 224.759 353.914 224.759 357.11C224.72 360.305 224.641 363.539 224.13 366.971C224.011 367.839 223.854 368.707 223.618 369.614C223.382 370.521 223.106 371.468 222.594 372.533C222.358 373.046 222.043 373.598 221.61 374.19C221.413 374.466 221.137 374.782 220.823 375.058C220.508 375.334 220.114 375.649 219.799 375.847C219.445 376.083 219.169 376.202 218.854 376.399C218.578 376.517 218.264 376.675 218.027 376.754C217.752 376.872 217.476 376.951 217.24 377.03C217.004 377.109 216.728 377.188 216.492 377.227C215.547 377.464 214.642 377.622 213.775 377.74C212.909 377.858 212.043 377.937 211.216 378.016C209.524 378.135 207.909 378.174 206.295 378.174C199.839 378.174 193.54 377.622 187.24 376.833C184.091 376.438 180.981 375.965 177.831 375.373C176.256 375.097 174.682 374.742 173.068 374.348C172.241 374.15 171.414 373.914 170.509 373.598C170.272 373.519 170.036 373.44 169.761 373.322L169.367 373.164C169.209 373.085 169.052 373.007 168.894 372.928L168.579 372.73C168.501 372.652 168.383 372.612 168.225 372.494C168.068 372.375 167.95 372.297 167.792 372.139C167.635 371.981 167.477 371.823 167.359 371.705C166.887 371.153 166.729 370.758 166.572 370.403C166.257 369.732 166.139 369.22 165.981 368.746C165.863 368.273 165.745 367.8 165.666 367.366C165.509 366.498 165.351 365.669 165.233 364.841C164.997 363.224 164.839 361.607 164.721 360.029C164.446 356.873 164.209 353.757 164.013 350.64C163.58 344.447 163.186 338.254 162.477 332.179C162.123 329.142 161.729 326.144 161.139 323.264C160.824 321.844 160.469 320.424 160.036 319.201C159.918 318.886 159.8 318.61 159.682 318.334L159.643 318.215C159.643 318.176 159.603 318.176 159.603 318.136C159.564 318.097 159.524 318.018 159.485 317.979C159.288 317.742 158.934 317.426 158.501 317.111C157.595 316.519 156.336 316.006 154.997 315.572C153.658 315.138 152.241 314.823 150.824 314.507C147.911 313.916 144.918 313.521 141.887 313.206C135.824 312.574 129.643 312.259 123.423 311.943C120.313 311.786 117.202 311.588 114.053 311.352C112.478 311.233 110.903 311.075 109.289 310.839C108.502 310.72 107.675 310.602 106.848 310.444C106.022 310.247 105.155 310.089 104.171 309.695C103.935 309.616 103.659 309.498 103.384 309.34L103.187 309.222C103.148 309.182 102.99 309.103 102.911 309.064C102.715 308.945 102.557 308.788 102.439 308.669C101.888 308.156 101.612 307.683 101.337 307.249C100.825 306.381 100.47 305.553 100.156 304.764C99.565 303.147 99.1319 301.569 98.7776 299.991C98.0689 296.835 97.5571 293.68 97.2028 290.524C96.5335 284.212 96.2973 277.861 97.0453 271.432C97.2422 269.854 97.4784 268.237 97.8721 266.659C98.2658 265.081 98.7382 263.464 99.4469 261.925C99.8012 261.136 100.234 260.387 100.746 259.637C101.258 258.927 101.888 258.217 102.675 257.625C103.463 257.034 104.368 256.6 105.352 256.403C105.588 256.363 105.825 256.324 106.061 256.284C106.297 256.245 106.455 256.245 106.651 256.245L107.833 256.166C110.943 255.929 114.092 255.771 117.202 255.653C120.313 255.574 123.423 255.495 126.572 255.495C132.793 255.495 139.013 255.614 145.233 255.811L163.934 256.915Z" fill="#1D4557"/>
<path d="M192.595 287.644C192.516 287.644 192.437 287.683 192.359 287.723C192.28 287.802 192.28 287.881 192.319 287.841V287.762L192.359 287.605L192.398 287.289L192.477 286.658C192.555 286.263 192.634 285.829 192.713 285.435C192.87 284.607 193.028 283.778 193.225 282.989C193.618 281.372 194.091 279.755 194.642 278.137C195.232 276.56 195.902 274.982 196.768 273.483C197.634 271.984 198.736 270.564 200.154 269.38C200.311 269.222 200.547 269.104 200.705 268.986C200.902 268.867 201.099 268.71 201.295 268.591L201.925 268.236L202.595 267.96C202.713 267.921 202.831 267.881 202.949 267.842L203.303 267.763C203.539 267.723 203.776 267.645 204.012 267.605C204.484 267.566 204.996 267.487 205.469 267.526C205.705 267.526 205.941 267.526 206.177 267.566L206.886 267.684L207.24 267.763C207.358 267.802 207.516 267.842 207.634 267.881C207.909 267.96 208.146 268.079 208.421 268.197C209.445 268.67 210.272 269.617 210.705 270.603C211.177 271.589 211.335 272.536 211.413 273.483C211.492 274.429 211.492 275.337 211.413 276.205C211.256 277.98 210.941 279.676 210.508 281.372C209.681 284.725 208.539 287.92 207.28 291.036C206.02 294.192 204.642 297.269 203.185 300.267C201.689 303.304 200.114 306.263 198.382 309.182C197.949 309.931 197.516 310.641 197.043 311.391C196.571 312.14 196.099 312.85 195.469 313.639L195.232 313.955C195.114 314.073 195.036 314.192 194.918 314.31C194.76 314.468 194.681 314.547 194.327 314.823L194.209 314.902C194.17 314.941 194.17 314.941 194.051 314.98C193.855 315.099 193.618 315.178 193.421 315.257C193.264 315.296 193.264 315.296 193.028 315.335C192.831 315.375 192.595 315.375 192.398 315.335C192.24 315.335 192.162 315.296 192.004 315.257C191.886 315.217 191.729 315.178 191.689 315.178C191.099 314.941 190.941 314.823 190.744 314.665L190.626 314.586L190.508 314.507L190.311 314.349C190.075 314.152 189.878 313.955 189.721 313.797C189.012 313.087 188.461 312.456 187.87 311.785C186.729 310.444 185.705 309.142 184.682 307.762C183.658 306.421 182.634 305.079 181.65 303.699C179.682 300.977 177.752 298.176 175.942 295.336C175.036 293.916 174.17 292.456 173.304 290.957C172.477 289.459 171.65 287.96 170.902 286.421C170.154 284.883 169.446 283.305 168.776 281.648C168.146 279.991 167.556 278.295 167.123 276.481C166.926 275.573 166.729 274.627 166.611 273.601C166.532 272.575 166.453 271.51 166.69 270.248C166.808 269.617 166.965 268.946 167.28 268.236C167.595 267.526 168.068 266.816 168.698 266.225C169.327 265.633 170.075 265.199 170.823 264.962C171.217 264.804 171.453 264.804 171.768 264.726C172.044 264.686 172.359 264.607 172.634 264.568C173.816 264.449 174.997 264.489 176.099 264.765C177.201 265.002 178.186 265.436 179.091 265.909C180.902 266.935 182.319 268.197 183.54 269.538C185.981 272.26 187.792 275.218 189.288 278.295C190.036 279.834 190.705 281.372 191.335 282.95C191.65 283.739 191.925 284.528 192.201 285.356L192.595 286.579L192.792 287.171L192.87 287.486L192.91 287.644L192.949 287.723C192.949 287.723 192.91 287.644 192.831 287.605C192.752 287.605 192.673 287.644 192.595 287.644ZM192.673 288.315C192.634 288.315 192.516 288.275 192.437 288.236C192.359 288.196 192.28 288.078 192.28 288.038L192.24 287.96L192.162 287.841L192.004 287.565L191.689 287.052L191.02 286.027C190.587 285.317 190.114 284.646 189.642 283.975C188.697 282.634 187.752 281.293 186.768 279.991C184.8 277.427 182.674 274.982 180.351 273.049C179.209 272.102 177.989 271.313 176.808 270.84C175.627 270.406 174.564 270.288 173.658 270.485L173.304 270.603C173.186 270.643 173.028 270.682 173.028 270.682C172.949 270.721 173.028 270.721 173.028 270.721C173.068 270.721 173.068 270.682 173.068 270.761C173.068 270.84 173.028 270.958 173.028 271.155C172.989 271.55 173.028 272.142 173.146 272.773C173.264 273.404 173.422 274.074 173.658 274.784C174.052 276.165 174.642 277.625 175.233 279.045C175.863 280.465 176.532 281.924 177.201 283.344C177.91 284.764 178.619 286.224 179.367 287.644C180.115 289.064 180.863 290.524 181.689 291.944C183.264 294.784 184.918 297.624 186.611 300.385C188.343 303.146 190.154 305.868 192.083 308.393C192.555 309.024 193.067 309.616 193.5 310.129C193.618 310.247 193.736 310.365 193.776 310.444L193.815 310.484C193.776 310.484 193.815 310.444 193.421 310.286C193.382 310.286 193.264 310.247 193.185 310.207C193.067 310.168 193.028 310.168 192.87 310.168C192.673 310.168 192.516 310.168 192.319 310.168C192.122 310.207 192.122 310.207 192.004 310.247C191.847 310.286 191.65 310.365 191.492 310.444L191.414 310.484L191.374 310.523C191.217 310.641 191.256 310.602 191.256 310.602L191.374 310.484L191.532 310.326C191.965 309.813 192.437 309.182 192.87 308.551C193.343 307.92 193.776 307.249 194.209 306.578C195.981 303.857 197.634 301.056 199.209 298.176C200.784 295.336 202.319 292.417 203.697 289.459C205.075 286.5 206.335 283.502 207.28 280.425C207.752 278.887 208.146 277.348 208.382 275.849C208.5 275.1 208.539 274.351 208.539 273.601C208.5 272.891 208.421 272.181 208.185 271.668C207.949 271.116 207.673 270.721 207.201 270.445C207.083 270.366 206.965 270.327 206.807 270.288C206.728 270.248 206.689 270.248 206.61 270.209L206.374 270.169L205.862 270.051C205.705 270.011 205.508 270.011 205.35 270.011C203.972 269.854 202.634 270.288 201.413 271.116C200.193 271.984 199.13 273.128 198.264 274.469C197.358 275.771 196.61 277.23 195.941 278.729C195.272 280.228 194.721 281.766 194.209 283.344C193.973 284.133 193.736 284.922 193.5 285.711C193.382 286.106 193.303 286.5 193.185 286.895L193.028 287.486L192.949 287.802L192.91 287.96V288.038C192.91 288.038 192.91 288.117 192.831 288.236C192.87 288.236 192.752 288.315 192.673 288.315Z" fill="white"/>
<path d="M159.367 204.333C160.076 207.291 160.588 210.211 160.981 213.169C161.414 216.128 161.729 219.086 161.966 222.045C162.202 225.003 162.359 228.001 162.399 230.999C162.438 232.498 162.438 233.997 162.359 235.535C162.32 236.285 162.32 237.074 162.241 237.863C162.162 238.652 162.084 239.44 161.966 240.348C161.926 240.584 161.887 240.821 161.808 241.097C161.729 241.373 161.69 241.649 161.493 242.083C161.375 242.32 161.296 242.596 160.942 243.03C160.903 243.109 160.863 243.148 160.785 243.227C160.745 243.267 160.627 243.385 160.588 243.464C160.509 243.543 160.43 243.622 160.351 243.661L160.233 243.78C160.037 243.898 159.761 244.056 159.682 244.095C159.564 244.135 159.407 244.213 159.328 244.253L159.052 244.371C158.855 244.45 158.777 244.45 158.619 244.529C158.107 244.687 157.674 244.766 157.281 244.845C156.848 244.924 156.493 245.002 156.1 245.042C154.564 245.279 153.068 245.436 151.572 245.555C150.076 245.712 148.58 245.752 147.084 245.831C145.588 245.87 144.092 245.949 142.635 245.949C139.643 245.989 136.69 245.91 133.698 245.712C132.202 245.634 130.706 245.476 129.21 245.318C127.714 245.16 126.218 244.963 124.722 244.687C126.179 244.213 127.636 243.819 129.092 243.464C130.549 243.109 132.006 242.754 133.462 242.438C136.376 241.807 139.289 241.294 142.202 240.821C143.659 240.584 145.116 240.348 146.572 240.111C148.029 239.914 149.486 239.677 150.903 239.48C152.32 239.283 153.777 239.046 155.115 238.849C155.47 238.77 155.785 238.73 156.1 238.652C156.415 238.573 156.729 238.533 156.926 238.454L157.005 238.415C157.005 238.415 156.926 238.454 156.887 238.454L156.769 238.533C156.69 238.573 156.651 238.612 156.572 238.652L156.493 238.73C156.454 238.77 156.375 238.849 156.296 238.888C156.257 238.928 156.178 239.046 156.139 239.046C156.1 239.085 156.06 239.125 156.021 239.164C155.785 239.48 155.785 239.598 155.745 239.638C155.706 239.756 155.745 239.677 155.745 239.598C155.785 239.519 155.785 239.401 155.824 239.243C155.942 238.691 156.021 238.02 156.06 237.31C156.139 236.64 156.218 235.93 156.257 235.22L156.572 230.881C156.769 227.961 156.966 225.042 157.202 222.084C157.438 219.125 157.714 216.206 158.068 213.248C158.422 210.289 158.816 207.331 159.367 204.333Z" fill="white"/>
<path d="M236.925 360.896C236.216 358.372 235.744 355.847 235.311 353.323C234.917 350.798 234.563 348.273 234.326 345.709C234.09 343.145 233.933 340.621 233.893 338.057C233.854 336.755 233.854 335.493 233.893 334.152C233.893 333.481 233.933 332.85 233.972 332.14C234.011 331.469 234.09 330.759 234.208 329.97C234.248 329.773 234.287 329.536 234.326 329.3C234.405 329.063 234.444 328.787 234.602 328.392C234.681 328.156 234.799 327.919 235.153 327.485C235.192 327.406 235.232 327.367 235.311 327.327C235.35 327.288 235.468 327.17 235.507 327.091C235.586 327.012 235.665 326.933 235.744 326.893L235.901 326.775C236.098 326.657 236.334 326.499 236.413 326.459C236.531 326.42 236.649 326.341 236.767 326.302L237.003 326.223C237.161 326.144 237.279 326.144 237.397 326.104C237.87 325.986 238.224 325.907 238.578 325.828C238.933 325.749 239.287 325.71 239.602 325.671C240.94 325.473 242.24 325.355 243.499 325.237C244.799 325.118 246.058 325.079 247.358 325.039C248.617 325 249.917 324.961 251.176 325C253.735 325 256.294 325.118 258.814 325.355C260.074 325.473 261.373 325.592 262.633 325.789C263.893 325.947 265.192 326.183 266.491 326.459C265.271 326.893 264.011 327.288 262.79 327.643C261.531 327.998 260.31 328.313 259.05 328.59C256.57 329.181 254.09 329.694 251.609 330.128C250.389 330.365 249.129 330.562 247.909 330.759C246.688 330.917 245.428 331.154 244.208 331.311C242.988 331.509 241.767 331.706 240.625 331.864C240.35 331.903 240.074 331.982 239.799 332.021C239.562 332.061 239.287 332.14 239.129 332.179C239.129 332.179 239.051 332.179 239.09 332.179C239.129 332.179 239.169 332.14 239.208 332.14C239.208 332.14 239.405 332.021 239.523 331.943L239.602 331.864C239.641 331.824 239.72 331.745 239.799 331.706C239.838 331.666 239.917 331.548 239.956 331.548C239.996 331.509 240.035 331.469 240.074 331.43C240.31 331.114 240.35 330.996 240.389 330.917C240.429 330.799 240.429 330.838 240.389 330.917C240.389 330.996 240.35 331.075 240.311 331.193C240.232 331.627 240.153 332.219 240.114 332.81C240.035 333.402 239.996 333.994 239.917 334.585L239.641 338.293C239.444 340.779 239.248 343.303 239.011 345.828C238.775 348.352 238.5 350.877 238.145 353.401C237.87 355.808 237.476 358.372 236.925 360.896Z" fill="white"/>
</g>
<defs>
<clipPath id="clip0">
<rect width="368.3" height="650" fill="white"/>
</clipPath>
</defs>
</svg>
