<svg width="1920" height="1528" viewBox="0 0 1920 1528" fill="none" xmlns="http://www.w3.org/2000/svg">
<path d="M112.178 1022.66C211.708 1059.96 315.442 1080.81 419.96 1097.97C502.538 1111.55 586.167 1109.78 669.628 1109C698.941 1108.69 729.663 1110.17 757.107 1101.57C854.414 1071.24 950.618 1037.75 1046.71 1004.01C1129.18 975.129 1208.17 935.045 1297.05 926.684C1334.95 923.145 1372.96 914.396 1410.61 916.433C1500.89 921.417 1591.01 930.118 1680.98 939.186C1761.56 947.589 1842.07 957.232 1922.23 969.465C1947.63 973.319 1975.37 974.918 1994.52 999.476C2028.37 1042.69 2064.52 1084.26 2099.77 1126.54C2147.62 1184.15 2187.8 1247 2224.91 1311.83C2266.17 1383.92 2313.11 1451.05 2386.12 1495.62C2435.69 1525.74 2487.52 1538.46 2543.44 1514.74C2550.28 1511.69 2558.12 1502.73 2558.93 1495.69C2561.83 1474.96 2561.41 1453.59 2562.71 1432.66C2565.22 1389.94 2565.76 1346.89 2570.74 1304.28C2578.77 1235.11 2591.86 1166.42 2598.9 1097.08C2605.74 1029.35 2600.42 961.579 2582.71 895.992C2563.19 823.621 2539.78 752.071 2519.14 679.898C2508.28 641.925 2495.81 603.758 2491.46 564.707C2486.27 516.309 2488.83 466.888 2487.64 417.922C2487.4 406.49 2483.84 394.414 2486.56 383.485C2503.08 315.687 2519.73 248.142 2538.34 180.932C2556.53 114.821 2576.44 49.1587 2595.62 -16.7844C2626.21 -121.826 2655.34 -227.429 2688.01 -331.882C2711.71 -407.432 2727.64 -484.072 2726.41 -563.083C2723.93 -700.747 2709.23 -837.213 2677.3 -971.462C2667.45 -1012.62 2659.65 -1055.3 2641.84 -1093.2C2610.41 -1160.27 2571.5 -1223.69 2536.65 -1288.92C2507.18 -1344.1 2478.73 -1399.73 2438.29 -1448.2C2419.2 -1471.26 2402.3 -1496.22 2382.56 -1518.69C2351.96 -1553.94 2320.61 -1588.84 2287.82 -1622.2C2237.35 -1674.09 2185.45 -1724.43 2133.94 -1775.25C2125.84 -1783.18 2118.94 -1784.35 2108.68 -1776.74C2001.71 -1699.28 1893.82 -1623.23 1797.69 -1532.38C1758.57 -1495.5 1723.76 -1455.08 1694.58 -1410.19C1646.36 -1335.84 1604.44 -1258.24 1571.01 -1175.92C1544 -1109.83 1511.95 -1044.83 1493.54 -976.49C1470.05 -891.619 1456.08 -803.099 1443.01 -715.284C1426.87 -605.756 1422.11 -495.227 1431.48 -384.322C1432.94 -366.753 1433.02 -348.872 1433.86 -325.868C1427.52 -333.97 1423.82 -337.485 1421.17 -342.071C1402.63 -372.065 1384.1 -402.059 1366.21 -432.645C1330.2 -494.324 1293.94 -555.89 1259.2 -618.133C1232.87 -665.604 1208.34 -714.485 1183.27 -762.52C1164.39 -798.737 1150.37 -838.338 1126.48 -870.804C1087.13 -924.312 1044.21 -975.62 998.141 -1023.09C947.447 -1075.49 895.26 -1127.83 836.833 -1171.01C749.799 -1235.44 656.693 -1291.69 566.089 -1351.19C545.094 -1364.91 524.773 -1379.84 503.216 -1392.09C461.568 -1416.03 419.358 -1438.5 377.176 -1461.59C277.06 -1516.55 174.332 -1565.78 65.0912 -1599.66C51.6261 -1603.98 38.0753 -1609.17 24.1343 -1611.15C-42.3874 -1620.05 -108.823 -1628.08 -175.485 -1636.61C-178.076 -1636.98 -180.5 -1638.32 -183.543 -1639.7C-184.556 -1639.25 -185.935 -1638.94 -186.948 -1638.49C-302.628 -1596.92 -404.894 -1524.59 -489.451 -1431.62C-455.289 -1291.69 -377.932 -1174.05 -306.441 -1041.66C-301.899 -1034.88 -299.89 -1026.97 -299.034 -1018.24C-298.264 -1010.38 -298.028 -1001.68 -297.932 -992.615C-297.651 -993.347 -297.511 -993.713 -297.23 -994.446C-292.408 -988.398 -289.474 -984.544 -286.654 -980.943C-265.217 -951.938 -243.64 -923.3 -222.457 -894.182C-191.091 -851.082 -157.164 -809.731 -129.625 -764.318C-62.0462 -652.95 2.719 -539.721 67.8778 -426.971C97.6214 -375.253 140.895 -334.73 180.315 -291.274C288.734 -171.398 399.375 -54.03 520.394 53.244C580.72 106.811 639.725 162.182 701.626 213.832C756.338 259.577 807.45 308.144 851.673 363.73C854.606 367.584 857.259 372.17 860.616 377.657C855.718 378.93 853.692 379.834 851.72 379.498C808.491 374.484 764.337 373.525 721.946 363.582C593.054 333.303 464.834 299.081 336.251 267.451C276.564 252.77 216.652 237.583 156.295 226.845C46.9028 207.609 -62.9375 190.09 -173.113 174.544C-246.648 164.217 -320.488 157.973 -394.272 150.49C-493.882 140.252 -593.369 138.462 -693.208 147.456C-724.995 150.396 -755.958 159.952 -787.827 164.751C-835.828 172.188 -883.747 177.767 -931.721 184.585C-965.083 189.442 -998.106 195.058 -1033.49 200.819C-1030.14 206.305 -1028.55 209.851 -1026.19 212.439C-1001.11 243.467 -976.156 274.241 -951.197 305.015C-892.367 378.38 -827.714 446.414 -757.606 508.98C-688.456 570.758 -617.872 630.986 -547.541 691.326C-492.037 738.845 -434.398 782.982 -366.189 812.689C-275.328 852.335 -186.292 896.743 -95.571 936.756C-27.0506 967.842 42.199 996.477 112.178 1022.66Z" fill="#A2C1C6"/>
</svg>
