<svg width="1781" height="1663" viewBox="0 0 1781 1663" fill="none" xmlns="http://www.w3.org/2000/svg">
<path fill-rule="evenodd" clip-rule="evenodd" d="M1227.27 1764.65C1273.46 1734.96 1314.11 1698.17 1353.36 1659.9C1384.41 1629.62 1409.29 1594.02 1434.57 1558.88C1443.44 1546.55 1453.5 1534.06 1458.28 1519.91C1475.33 1469.48 1490.7 1418.43 1506 1367.38C1519.13 1323.58 1526.5 1277.71 1550.14 1237.79C1560.21 1220.78 1568.26 1202.06 1580.62 1187C1610.34 1150.76 1641.62 1115.81 1673.11 1081.12C1701.31 1050.05 1730.11 1019.51 1759.73 989.848C1769.1 980.474 1778.27 969.377 1794.5 969.217C1823.11 968.938 1851.67 967.026 1880.25 965.816C1919.17 964.169 1957.9 967.462 1996.58 972.693C2039.55 978.502 2082.25 980.354 2123.26 964.019C2151.12 952.919 2172.44 935.253 2179.53 904.271C2180.4 900.454 2178.92 894.335 2176.23 891.624C2168.38 883.726 2159.33 877.071 2150.82 869.83C2133.55 855.116 2115.64 841.088 2099.25 825.418C2072.58 799.913 2047.66 772.5 2020.62 747.414C1994.25 722.939 1964.04 703.508 1930.96 689.882C1894.48 674.853 1857.21 661.88 1820.51 647.411C1801.19 639.795 1781.25 632.787 1763.54 622.098C1741.53 608.806 1721.55 591.969 1700.65 576.723C1695.75 573.148 1689.57 570.738 1685.86 566.226C1662.39 537.69 1639.08 508.998 1616.43 479.801C1594.13 451.055 1572.69 421.637 1550.85 392.529C1516.01 346.086 1480.43 300.187 1446.55 253.045C1422.02 218.909 1394.7 187.794 1361 163.062C1302.34 120.01 1240.36 82.5879 1174.15 52.9717C1153.83 43.8848 1133.39 33.5282 1112.03 28.8706C1074.2 20.6214 1035.59 16.5787 997.382 10.2347C965.116 4.87976 932.957 -0.943239 900.169 0.393367C884.59 1.02801 868.903 0.142866 853.371 1.16073C829.118 2.74932 804.863 4.71943 780.774 7.70272C743.501 12.3198 706.37 17.9229 669.177 23.1087C663.385 23.9171 660.779 26.5397 660.756 33.2206C660.519 102.737 659.473 172.208 668.256 241.645C671.828 269.868 678.077 297.284 688.081 323.889C704.603 367.824 724.427 410.273 748.73 450.526C768.306 482.951 785.775 517.147 808.957 546.769C837.919 583.776 870.757 617.93 903.778 651.442C944.962 693.237 990.044 730.554 1039.54 762.057C1047.42 767.077 1054.9 772.77 1064.82 779.73C1059.5 779.839 1056.81 780.183 1054.18 779.909C1035.86 778.005 1017.54 776.223 999.261 773.93C962.293 769.288 925.303 764.793 888.425 759.384C860.311 755.261 832.344 749.892 804.329 744.947C783.315 741.237 762.319 734.514 741.337 734.135C706.82 733.509 672.068 735.075 637.894 739.158C600.318 743.646 562.285 748.798 526.243 759.46C472.459 775.368 420.245 796.35 367.368 815.189C355.153 819.537 342.706 823.366 330.817 828.462C308.008 838.246 285.529 848.781 262.898 858.978C209.06 883.24 156.938 910.546 109.098 945.429C103.177 949.746 96.8102 953.701 91.759 958.925C67.6076 983.887 43.8538 1009.24 19.8906 1034.39C18.977 1035.35 17.6819 1035.96 16.1384 1036.77C15.9569 1037.39 15.7869 1038 15.6081 1038.62C-2.36383 1100.36 -3.23714 1166.36 9.92311 1231.45C79.2378 1261.92 152.527 1267.1 230.147 1279.5C234.409 1279.76 238.337 1281.46 242.26 1283.82C245.874 1285.98 249.503 1288.7 253.365 1291.47C253.195 1291.17 253.038 1290.9 252.865 1290.58C256.91 1290.53 259.376 1290.45 261.843 1290.49C280.576 1290.77 299.308 1290.94 318.042 1291.4C345.773 1292.07 373.659 1291.1 401.205 1294.11C468.805 1301.49 536.273 1310.51 603.744 1319.36C634.697 1323.42 664.924 1318.3 695.364 1315.73C778.983 1308.65 862.357 1299.87 944.615 1283.56C985.648 1275.42 1026.97 1268.47 1067.7 1259.09C1103.67 1250.81 1139.8 1244.99 1176.83 1244.23C1179.42 1244.18 1182.03 1244.62 1185.49 1244.91C1184.47 1247.28 1184.28 1248.51 1183.59 1249.25C1168.24 1265.78 1154.25 1283.97 1137.17 1298.44C1084.91 1342.74 1031.3 1385.43 978.524 1429.13C954.018 1449.42 929.336 1469.63 906.302 1491.55C864.634 1531.22 823.627 1571.63 783.342 1612.73C756.467 1640.15 731.223 1669.21 705.422 1697.69C670.636 1736.1 639.309 1777.27 612.58 1821.86C604.051 1836.09 598.546 1852.19 590.881 1867.01C579.289 1889.41 566.879 1911.37 555.081 1933.66C546.895 1949.12 539.153 1964.83 530.724 1981.39C534.078 1981.73 535.995 1982.13 537.889 1982.08C558.559 1981.52 579.225 1980.83 599.896 1980.31C648.785 1979.07 697.207 1973.83 745.004 1964.5C792.168 1955.28 839.12 1945.04 886.087 1934.91C923.152 1926.92 959.321 1916.83 992.69 1897.85C1037.28 1872.48 1083.15 1849.35 1127.87 1824.2C1161.53 1805.28 1194.79 1785.53 1227.27 1764.65Z" fill="#ABCACF"/>
</svg>
