<svg width="1920" height="2245" viewBox="0 0 1920 2245" fill="none" xmlns="http://www.w3.org/2000/svg">
<path d="M412 40.0002C250.33 58.3437 0 102 0 102L2 2214C2 2214 106.895 2211.05 174 2214C278.437 2218.59 335.492 2241.49 440 2244C523.639 2246.01 570.657 2241.32 654 2234C832.574 2218.33 932.111 2197.56 1106 2154C1281.38 2110.07 1414 2048 1546 2010C1678 1972 1930 1914 1930 1914V128C1930 128 1758.25 78.167 1646 56.0002C1448.83 17.0638 1334.83 11.7218 1134 4.00019C851.9 -6.84626 692.509 8.17293 412 40.0002Z" fill="#ABCACF"/>
</svg>
