<svg width="183" height="181" viewBox="0 0 183 181" fill="none" xmlns="http://www.w3.org/2000/svg">
    <path
        d="M14.4401 31.2304C12.2857 36.8911 10.3323 42.6749 8.74341 48.5409C7.10422 54.3762 5.77918 60.2629 4.90022 66.2113C4.02127 72.1598 3.45646 78.1597 3.5325 84.1291C3.55826 90.0677 4.11179 96.0476 5.26845 101.833C6.42511 107.618 8.1535 113.26 10.5478 118.605C12.8605 123.971 15.8391 129.039 19.2512 133.738C26.0439 143.188 34.7527 151.203 44.3599 157.864C53.8854 164.546 64.4348 169.669 75.6499 172.238C81.248 173.482 87.0094 174.121 92.7519 174.113C98.5258 174.055 104.231 173.319 109.835 171.958C121.074 169.184 131.748 163.948 141.172 157.029C145.858 153.554 150.319 149.659 154.258 145.374C158.247 141.119 161.878 136.433 164.761 131.501C167.676 126.518 169.937 121.134 171.683 115.576C173.379 109.987 174.61 104.254 175.262 98.4492C176.568 86.8393 175.712 75.0334 172.62 63.8316C169.578 52.6606 164.236 42.1962 156.771 33.3923C153.039 28.9904 148.841 25.0087 144.311 21.4577C142.005 19.6924 139.636 18.0297 137.205 16.4695C134.742 14.9606 132.216 13.5542 129.627 12.2503C119.26 7.1682 107.775 4.3625 96.1138 4.55168C90.3085 4.66167 84.4405 5.43832 78.7735 6.90226C73.1066 8.36618 67.5591 10.5379 62.2567 13.2123C51.7021 18.5919 42.2033 26.3105 34.4764 35.5378C30.613 40.1514 27.2899 45.2371 24.5512 50.6103C21.8125 55.9834 19.7272 61.7569 18.6346 67.7155C19.4131 61.7055 21.1653 55.7985 23.6841 50.2201C26.1527 44.6109 29.3878 39.3303 33.0941 34.4089C36.8004 29.4875 41.0283 24.9561 45.6834 20.9685C50.3197 16.8989 55.4147 13.3218 60.7736 10.3294C71.5229 4.29351 83.7237 0.627575 96.0819 0.0900087C102.277 -0.204407 108.478 0.280684 114.554 1.53497C120.579 2.75845 126.447 4.8024 132.052 7.38983C137.625 10.0285 142.915 13.1286 147.892 16.7414C150.38 18.5478 152.774 20.508 155.074 22.622C157.323 24.7052 159.478 26.9422 161.571 29.2817C169.758 38.5988 175.797 49.8431 179.21 61.8758C182.623 73.9086 183.605 86.6376 182.324 99.1091C180.994 111.55 177.407 123.948 170.887 135.043C167.577 140.559 163.676 145.573 159.366 150.125C155.025 154.728 150.326 158.9 145.218 162.611C135.085 170.011 123.532 175.554 111.356 178.389C105.243 179.792 98.9789 180.537 92.7589 180.534C86.5389 180.531 80.2811 179.8 74.2494 178.361C68.2178 176.922 62.362 174.745 56.8391 172.137C51.2974 169.447 46.0194 166.214 41.0933 162.632C31.2725 155.416 22.35 146.848 15.3875 136.659C11.9314 131.581 8.99049 126.112 6.76576 120.378C4.45935 114.664 2.86915 108.683 1.81927 102.611C-0.267944 90.3325 0.45324 77.871 2.8834 65.8924C4.08906 59.8621 5.75965 53.9755 7.68158 48.243C9.66633 42.4079 11.9527 36.7576 14.4401 31.2304Z"
        fill="white" />
</svg>