<svg width="64" height="7" viewBox="0 0 64 7" fill="none" xmlns="http://www.w3.org/2000/svg">
<path d="M0.787109 0.517542C3.39533 1.11136 5.97894 1.68043 8.56256 2.07631C9.20231 2.20002 9.86667 2.27424 10.5064 2.37321L11.4907 2.52166C11.8105 2.57115 12.155 2.59589 12.4749 2.64537L14.4188 2.86806L16.3872 3.04125C21.6037 3.51135 26.8447 3.63506 32.0858 3.51135C32.7501 3.51135 33.3899 3.48661 34.0542 3.46187C34.7186 3.43713 35.3583 3.41238 36.0227 3.38764C36.687 3.3629 37.3268 3.33816 37.9912 3.28867C38.6555 3.23919 39.2953 3.18971 39.9596 3.16496C42.5678 2.99177 45.2007 2.76909 47.8089 2.49692C53.0499 1.97734 58.291 1.28455 63.5566 0.492798C62.9415 0.764963 62.3017 0.987645 61.6866 1.21033C61.0468 1.43301 60.4317 1.65568 59.7919 1.85362C58.5124 2.27424 57.2329 2.64537 55.9534 3.01651C53.3698 3.70929 50.7616 4.30311 48.1288 4.79795C45.4959 5.2928 42.8385 5.66393 40.1811 5.96084C39.5167 6.03507 38.8524 6.08455 38.188 6.15878C37.5236 6.20826 36.8593 6.25775 36.1949 6.30723C35.5306 6.35671 34.8662 6.38146 34.1772 6.4062C33.5129 6.43094 32.8485 6.48042 32.1596 6.48042C26.7955 6.62888 21.3822 6.30723 16.0919 5.39177L14.0989 5.02063C13.4345 4.87218 12.7948 4.72372 12.1304 4.57527C11.8105 4.50104 11.4661 4.42682 11.1462 4.35259L10.1619 4.08043C9.52219 3.88249 8.85783 3.73403 8.21808 3.51135L6.29882 2.86806C5.97894 2.76909 5.65907 2.64537 5.3638 2.52166L4.42878 2.15053C3.19848 1.70517 1.9928 1.11136 0.787109 0.517542Z" fill="#1D4557"/>
</svg>
