<svg width="64" height="87" viewBox="0 0 64 87" fill="none" xmlns="http://www.w3.org/2000/svg">
<path d="M0.0332031 19.2558C1.04204 28.5836 2.02628 37.9361 3.28118 47.2392C3.60105 49.565 3.92093 51.8907 4.31462 54.1918C4.51147 55.3299 4.70832 56.4928 4.95437 57.6062C5.0774 58.1753 5.20043 58.7196 5.34807 59.2639C5.4957 59.8083 5.64334 60.3278 5.86479 60.8474C6.28309 61.8866 6.77521 62.8763 7.36575 63.8412C7.95629 64.8062 8.59604 65.7216 9.30961 66.6124C10.7121 68.3938 12.3115 70.0515 13.9847 71.6103C17.3557 74.7278 21.0958 77.4495 24.9835 79.9237C26.9274 81.136 28.9451 82.2989 30.9628 83.2639C31.4795 83.5113 31.9716 83.734 32.4883 83.9319C32.7344 84.0309 32.9804 84.1051 33.2019 84.1793C33.3003 84.2041 33.4233 84.2288 33.4726 84.2536H33.4972C33.4972 84.2536 33.4972 84.2536 33.4726 84.2536C33.4726 84.2536 33.448 84.2536 33.4972 84.2536C33.5956 84.2288 33.8416 84.1793 34.0877 84.0804C34.3092 84.0061 34.5552 83.9072 34.8013 83.7835C35.2934 83.5608 35.7855 83.3134 36.2776 83.0659C38.2707 82.002 40.19 80.7649 42.0846 79.4536C43.9547 78.1422 45.7755 76.7319 47.4979 75.2227C49.2203 73.7134 50.8689 72.1299 52.3699 70.4227C53.8708 68.7155 55.2241 66.9093 56.2822 64.9794C56.5529 64.4845 56.7989 64.0144 57.0204 63.5196C57.2418 63.0247 57.4387 62.5052 57.6355 61.9856C58.0292 60.9464 58.3491 59.8577 58.6444 58.7691C59.2349 56.567 59.6532 54.3155 59.9977 52.0392C60.662 47.4619 60.9819 42.8351 61.1049 38.1836C61.2526 33.532 61.2034 28.8557 60.9819 24.2042C60.9327 23.0413 60.8589 21.8784 60.7605 20.7156C60.662 19.5527 60.5636 18.3898 60.416 17.3011C60.3668 17.029 60.3176 16.7568 60.2929 16.5589C60.2929 16.5094 60.2683 16.4599 60.2683 16.5094L60.2929 16.5589C60.3176 16.5836 60.3175 16.6331 60.4406 16.7816C60.662 17.0042 61.0311 17.1527 60.8343 17.0537L60.7851 17.029L60.3668 16.831C59.8254 16.5836 59.2841 16.3114 58.7674 16.0393C57.7093 15.495 56.6759 14.9506 55.6424 14.3816C51.5087 12.13 47.4733 9.80425 43.3887 7.47848C41.371 6.3156 39.3288 5.15271 37.3111 4.01457C36.3022 3.4455 35.2688 2.90117 34.2599 2.38158C34.0139 2.25787 33.7432 2.13416 33.4972 2.01045C33.3741 1.96097 33.2511 1.88674 33.1281 1.862C33.0051 1.81251 32.882 1.76303 32.8082 1.73829C32.8082 1.73829 32.759 1.73829 32.7836 1.73829C32.8082 1.73829 32.8082 1.73829 32.8328 1.73829C32.8328 1.73829 32.882 1.73829 32.8574 1.73829C32.8574 1.73829 32.8328 1.73829 32.8082 1.76303C32.7098 1.78777 32.5868 1.83726 32.4637 1.88674C32.2177 1.98571 31.9716 2.10942 31.7009 2.23313C29.634 3.24756 27.5672 4.36096 25.5249 5.44962C23.458 6.53828 21.3911 7.65167 19.3242 8.71559C15.1658 10.8434 10.9582 12.9218 6.57836 14.6042C8.69447 13.6145 10.7614 12.5259 12.8036 11.4125C14.8459 10.2991 16.8882 9.13621 18.8813 7.94858C20.899 6.76096 22.9166 5.57333 24.9097 4.3857L27.9362 2.57952C28.9451 1.98571 29.9539 1.3919 31.012 0.847568C31.2826 0.699115 31.5533 0.575402 31.8486 0.451691C31.9962 0.377464 32.1438 0.327981 32.3407 0.253754C32.3899 0.229012 32.4391 0.229011 32.4883 0.204269L32.5868 0.179527C32.6114 0.179527 32.6852 0.154785 32.7344 0.154785C32.8328 0.154785 32.9312 0.154785 33.0051 0.154785C33.0789 0.154785 33.1281 0.179527 33.1773 0.179527C33.3741 0.229011 33.5464 0.278495 33.694 0.32798C33.8417 0.377464 33.9893 0.451692 34.1369 0.501177C34.4322 0.624888 34.7029 0.748599 34.9735 0.87231C36.0562 1.36715 37.1142 1.91148 38.1477 2.43107C40.2392 3.49498 42.3061 4.60838 44.373 5.69704C48.4821 7.8991 52.5913 10.1506 56.7497 12.2785C57.7831 12.7981 58.8166 13.3176 59.85 13.8372C60.3668 14.0847 60.8835 14.3321 61.4002 14.5548L61.7939 14.7279L61.8431 14.7527C61.6709 14.6785 62.0646 14.8269 62.3106 15.0991C62.4583 15.2723 62.4829 15.3465 62.5321 15.4207C62.5567 15.495 62.5813 15.5444 62.6059 15.5692C62.6797 15.7424 62.7043 15.8413 62.7289 15.9403C62.8274 16.3114 62.8766 16.6084 62.9258 16.93C63.1226 18.1424 63.2457 19.33 63.3441 20.5176C63.4425 21.7053 63.5409 22.8929 63.6147 24.0558C63.91 28.7815 64.033 33.5073 63.9592 38.2578C63.8608 42.9836 63.5655 47.7341 62.8766 52.4598C62.5321 54.8351 62.1138 57.1856 61.4986 59.5361C61.1788 60.699 60.8343 61.8866 60.416 63.0247C60.1945 63.5938 59.9731 64.1629 59.7024 64.7567C59.4317 65.3258 59.1611 65.8948 58.8658 66.4392C57.6601 68.6165 56.1592 70.5711 54.5598 72.3773C52.9604 74.1835 51.2134 75.866 49.3926 77.4247C47.5717 78.9835 45.6771 80.4433 43.7086 81.8041C41.7401 83.1649 39.7225 84.4268 37.5571 85.5402C37.0158 85.8123 36.4745 86.0845 35.8839 86.3319C35.5887 86.4556 35.2934 86.5793 34.9735 86.6783C34.6536 86.7773 34.3338 86.901 33.8663 86.9505C33.7678 86.9752 33.5956 86.9752 33.448 86.9752C33.3741 86.9752 33.3003 86.9752 33.2265 86.9505C33.1527 86.9505 33.1035 86.9257 33.0543 86.9257C32.8328 86.8762 32.636 86.8268 32.4637 86.7773C32.1192 86.6783 31.824 86.5546 31.5287 86.4309C30.9382 86.1835 30.3968 85.936 29.8555 85.6639C27.6902 84.6 25.6479 83.3628 23.6548 82.0762C21.6618 80.7896 19.7179 79.4041 17.8478 77.9443C15.9778 76.4845 14.1816 74.9258 12.4592 73.268C10.7614 71.6103 9.11277 69.8288 7.68563 67.899C6.23388 65.9691 4.97898 63.8412 4.14238 61.5155C3.94553 60.9464 3.74869 60.3278 3.62566 59.734C3.47802 59.1402 3.3796 58.5464 3.28118 57.9526C3.08433 56.765 2.91209 55.6021 2.73985 54.4392C2.44458 52.0887 2.17391 49.7629 1.95246 47.4124C1.50955 42.7361 1.14047 38.0351 0.845196 33.3588C0.476108 28.6578 0.23005 23.9568 0.0332031 19.2558Z" fill="#1D4557"/>
</svg>
