<svg width="6" height="98" viewBox="0 0 6 98" fill="none" xmlns="http://www.w3.org/2000/svg">
<path d="M1.0949 0.191895C1.83308 4.20013 2.3744 8.23311 2.89113 12.2661C3.38324 16.2991 3.82615 20.3321 4.17064 24.3898C4.88421 32.4805 5.35172 40.6207 5.52396 48.7361C5.54856 50.765 5.59777 52.7938 5.59777 54.8474C5.59777 56.8763 5.57317 58.9299 5.54856 60.9588C5.45014 65.0412 5.2779 69.0989 4.98263 73.1567C4.66275 77.2144 4.24445 81.2721 3.6047 85.3051C2.96495 89.3381 2.17756 93.3463 0.947266 97.2308C1.53781 93.1979 1.9315 89.1896 2.17756 85.1566C2.42362 81.1236 2.57125 77.0907 2.66968 73.0577C2.74349 69.0247 2.7681 64.967 2.74349 60.934C2.71889 58.9052 2.71889 56.901 2.69428 54.8722C2.66968 52.8433 2.62046 50.8392 2.59586 48.8103C2.42362 40.7196 2.17756 32.6289 1.88229 24.5382C1.58702 16.4228 1.29175 8.33208 1.0949 0.191895Z" fill="#1D4557"/>
</svg>
