<svg width="22" height="31" viewBox="0 0 22 31" fill="none" xmlns="http://www.w3.org/2000/svg">
<path d="M0.0957031 0.31958C1.326 3.28865 2.43326 6.28245 3.61434 9.22678C4.20488 10.6866 4.79542 12.1464 5.43517 13.5814C6.07493 14.9917 6.76389 16.402 7.57588 17.6391C8.38788 18.8762 9.39672 20.0391 10.4548 21.1525C10.9961 21.7216 11.5374 22.2412 12.1034 22.7855C12.6693 23.3298 13.2598 23.8494 13.8504 24.369C16.2125 26.4474 18.6977 28.402 21.2321 30.3814C19.7312 29.8123 18.304 29.0948 16.8769 28.3278C15.4744 27.5608 14.0964 26.6948 12.7677 25.7546C11.439 24.8144 10.1841 23.7999 8.97842 22.6618C8.38788 22.0927 7.79734 21.4989 7.25601 20.8804C6.71468 20.2371 6.19796 19.5938 5.73044 18.8762C4.79542 17.4412 4.13106 15.9319 3.51592 14.4226C2.92538 12.9134 2.40865 11.3546 1.96575 9.82059C1.52284 8.26183 1.15376 6.70307 0.833879 5.11957C0.538609 3.51132 0.267944 1.92782 0.0957031 0.31958Z" fill="white"/>
</svg>
